<?xml version="1.0" encoding="utf-8"?>
<!-- Generator: Adobe Illustrator 26.3.1, SVG Export Plug-In . SVG Version: 6.00 Build 0)  -->
<svg version="1.1" id="Layer_2" xmlns="http://www.w3.org/2000/svg" xmlns:xlink="http://www.w3.org/1999/xlink" x="0px" y="0px"
	 viewBox="0 0 855.5 791.8" style="enable-background:new 0 0 855.5 791.8;" xml:space="preserve">
<style type="text/css">
	.st0{fill:#9FCAD0;}
</style>
<g id="Layer_11">
	<path class="st0" d="M706,139.1c26.2,33.2,95,38.8,108.9,104c14.6,68.6-45.9,151.3-54.9,189.7c-9.1,38.7,23.6,116.4-56.7,202
		c-64.8,69-122.6,47.3-170.3,62.6c-38.1,12.3-87.5,72.7-144,69.8c-80.4-4.1-110.6-42.3-154.4-79.4c-35.5-30.1-82,9.8-146.3-84.3
		c-37-54.2-24-97.2-23-149.1c1-48.2-39.8-123.2,8.5-189.6c51-70.1,89.3-53.8,146.1-92.5c53.3-36.3,8.2-57,97.9-101.6
		c73.3-36.4,124.4-7,162.4-18.4c43.4-13,81.7-30.6,133.1-7.4C665.7,68.3,669.7,93.1,706,139.1z"/>
</g>
</svg>
