<?xml version="1.0" encoding="utf-8"?>
<!-- Generator: Adobe Illustrator 26.3.1, SVG Export Plug-In . SVG Version: 6.00 Build 0)  -->
<svg version="1.1" id="Layer_1" xmlns="http://www.w3.org/2000/svg" xmlns:xlink="http://www.w3.org/1999/xlink" x="0px" y="0px"
	 viewBox="0 0 855.5 791.8" style="enable-background:new 0 0 855.5 791.8;" xml:space="preserve">
<style type="text/css">
	.st0{fill:#3B5265;}
	.st1{fill:#638391;}
	.st2{fill:none;stroke:#3B5265;stroke-width:0.5;stroke-miterlimit:10;}
	.st3{fill:#A17D5D;}
	.st4{fill:#9D7A5B;}
	.st5{fill:#FFC999;}
	.st6{fill:#F6BE92;}
	.st7{fill:#FFFFFF;}
	.st8{fill:#536239;}
	.st9{fill:#D37B87;}
	.st10{opacity:0.9;fill:#FFFFFF;enable-background:new    ;}
	.st11{fill:#FFC293;}
	.st12{fill:none;stroke:#0000FF;stroke-miterlimit:10;}
	.st13{fill:none;stroke:#C29377;stroke-width:0.5;stroke-miterlimit:10;}
	.st14{fill:#FFB48B;}
	.st15{fill:none;stroke:#000000;stroke-width:0.5;stroke-miterlimit:10;}
	.st16{fill:#514C53;}
	.st17{fill:none;stroke:#C7716B;stroke-width:0.5;stroke-miterlimit:10;}
	.st18{fill:none;stroke:#000000;stroke-miterlimit:10;}
	.st19{fill:#F9C799;}
	.st20{fill:#DD97C2;}
	.st21{fill:#5F678D;}
	.st22{fill:none;stroke:#5F678D;stroke-width:3;stroke-linecap:round;stroke-linejoin:round;stroke-miterlimit:10;}
	.st23{fill:none;stroke:#5F678D;stroke-width:3;stroke-linecap:round;stroke-miterlimit:10;}
	.st24{fill:#9FCAD0;stroke:#5F678D;stroke-width:3;stroke-linecap:round;stroke-miterlimit:10;}
	.st25{fill:none;stroke:#5F678D;stroke-width:3;stroke-miterlimit:10;}
</style>
<g id="back">
</g>
<g id="laptop">
	<path class="st0" d="M403.5,664.2l-249,4.6c-2.5,0-4.6-1.6-5.2-4L89.9,423.6c-0.1-0.3-0.1-0.6-0.1-1l-5.3-95.9
		c0-0.3,0.4-0.4,0.5-0.1l50.3,204.1l224.4-1.2c2.2,0,4.2,1.4,5,3.5l44.5,120C410,655.2,405.9,664.2,403.5,664.2z"/>
	<path class="st1" d="M404,658.7l-248.9,4.4c-2.5,0-4.6-1.6-5.2-4L92,423.5c-0.1-0.3-0.1-0.6-0.1-1l-7.4-95.8c0-0.3,0.4-0.4,0.5-0.1
		l50.3,204.1l224.4-1.2c2.2,0,4.2,1.4,5,3.5l44.2,118.6C410.1,655,407.7,658.6,404,658.7z"/>
	<line class="st2" x1="151.8" y1="665.3" x2="135.2" y2="530.8"/>
</g>
<g id="hårbak">
	<path class="st3" d="M549.6,155.9c0,0-31.4,54.8-23,83.4c5.8,19.9,14.2,19.2,16,40.1c1.4,17.4-3.5,31.9,0.3,41.8
		c6,15.4,19,27,21.4,43.4c1.9,13.2-30.4,71.9-30.4,71.9s77.3-50.1,96.3-66.7c47.1-41.1,34.7-192.2,34.7-192.2L549.6,155.9z"/>
	<path class="st4" d="M577.7,269.1c0,0-14.8,25.8-13.7,35.2c1.4,12.4,26.9,28.8,28.2,41.3c1.9,18.4-38,63.3-38,63.3
		s42.4-43.4,41.6-62.1c-0.6-12.5-24.7-30.4-25.7-42.8c-0.8-9.3,13.8-34.9,13.8-34.9H577.7L577.7,269.1z"/>
	<path class="st4" d="M602.8,269.7c0,0-8.5,23.2-6.7,31c2.4,10.4,23.7,21.7,26.1,32.1c3.4,15.3-22.3,57.2-22.3,57.2
		s27.8-40.8,25.1-56.5c-1.8-10.5-22.1-23.2-24.3-33.7c-1.6-7.8,6.8-30.8,6.8-30.8L602.8,269.7z"/>
</g>
<g id="hals_base">
	<path class="st5" d="M613.4,333c0,0,11.4-23.1,9.1-31.8c-2.4-9-8.9-17-12.9-21.9c-8.2-10-37.2,1.9-37.2,1.9L674,209.9l57.1,84.8
		L613.4,333z"/>
	<path class="st6" d="M613.3,333.6c0,0,11.5-23.8,9.2-32.4c-2.4-9-8.9-17-12.9-21.9c-8.2-10-37.9,2.5-37.9,2.5s33.3-27.1,48.4,1.7
		C630.8,303.9,613.3,333.6,613.3,333.6z"/>
</g>
<g id="Hode-base">
	<path id="hode_path" class="st5" d="M693.3,126.4C678.2,206,632.8,244,584.5,275.1c-13.3,8.6-29.5,15.9-44.7-10.6
		c-4.4-7.6-11.1-2.1-12.2-5.8c-1.2-3.9-0.8-2.3-1.3-4.8c-0.6-2.8-6.8,4.4-11-1c-1.4-1.8-1.7-10.4-8-14c-3.7-2.1-19,8.3-22.1,1.7
		c-2.8-5.9,3.6-34.1,2.3-49.2c-1-12-7.7-10.5-12.7-19.5c-1.1-2-22.6-53.1-13.6-83.1C484.1,12.7,564.6,0.6,596.7,4.4
		C669.3,12.9,698.3,99.8,693.3,126.4z"/>
	<path class="st7" d="M514.9,187.5c-1.9,4.1-2.3,8-6.7,8s-8-3.6-8-8s3.6-8,8-8C512.6,179.5,516.8,183.5,514.9,187.5z"/>
	<path class="st8" d="M507.3,188.2c1.2,2.8,0.8,6.2-0.6,6.8s-4.8-1.3-6-4.2s-0.6-6.5,0.8-7.1S506.1,185.3,507.3,188.2z"/>
	<path id="hode_path_00000151538970063474140010000007811796789711959182_" class="st9" d="M529.8,260.1c0,0-1.5-0.1-1.9-0.7
		c-0.6-0.9-1.5-2.7-1.7-5.4c-0.2-2.8-7.1,4.4-10.6-0.6c-0.8-1.2,20.4-4.6,20.1-6.2L529.8,260.1z"/>
	<path d="M502.7,190.6c0.3,0.8,0.2,1.7-0.2,1.8c-0.4,0.2-1.3-0.4-1.6-1.1c-0.3-0.8-0.2-1.7,0.2-1.9
		C501.6,189.2,502.4,189.8,502.7,190.6z"/>
	<ellipse class="st10" cx="503.7" cy="189.3" rx="1.2" ry="1.6"/>
	<path class="st11" d="M459.7,116.8c0,0,22.4-0.9,30.1,1.9c10.1,3.6,49.7,24.8,49.7,24.8S490.4,72.3,468,77.1
		C458.1,79.2,459.7,116.8,459.7,116.8z"/>
</g>
<g id="ansikt_base_utforming">
	<path class="st12" d="M546.8,270.4"/>
	<path class="st12" d="M532.8,250.4"/>
	<path class="st13" d="M507.9,223.6c0,0,7.2,6.5,6.6,9.6c-0.4,2.1-3.6,2.4-3.6,2.4"/>
	<path class="st11" d="M507.1,205.3l-3.8-9.9l12.4-12.5c0,0,0.4,2.9,0,4C513.9,191.4,507.1,205.3,507.1,205.3z"/>
	<path class="st14" d="M489.8,173.1c0,0,6.1,4.4,6.8,6.4s2.1,9.2,2.1,9.2l17-5.7c0,0-0.7-2.4-2-3C507.7,177,489.8,173.1,489.8,173.1
		z"/>
	<path class="st15" d="M500.2,194.9"/>
	<path class="st15" d="M514.3,182.2"/>
	<path class="st15" d="M494,188"/>
	<path class="st16" d="M496.2,166.3l-16.2,12l-4.1-4.5c0,0,15.3-8.2,19-10c1.5-0.7,10.1-0.2,10.1-0.2L496.2,166.3z"/>
	<path class="st17" d="M489.8,173.1c0,0,6.1,4.4,6.8,6.4s2.1,8.3,2.1,8.3l17-4.8"/>
	<polyline class="st17" points="504.9,199.7 503.3,195.1 515.7,183 	"/>
	<ellipse transform="matrix(0.6131 -0.79 0.79 0.6131 59.7338 540.6946)" class="st11" cx="581.9" cy="209.4" rx="24.6" ry="19.1"/>
</g>
<g id="ansikt_detaljer">
	<path class="st18" d="M493.6,188.3c2.7,1.6,22.8-5.6,22.8-5.6s-13.4,11.6-13.9,14.1"/>
	<path class="st13" d="M496.9,238.6c0,0,5.3-3.2,7.3-3.9c1.9-0.7,8-0.8,8-0.8"/>
</g>
<g id="hår">
	<path class="st3" d="M456.3,92.4c-1,6.8,36.1,22.2,54,29.5c15.8,6.4,26.3,28.3,45.2,31.5c28.2,4.9,18,50.7,29,62.2
		c16.3,17,31.4,24.4,40.8,36.4c13.4,17,35.6,55.3,81.6,48.6c23-3.3,43.2,91.7,74.9,109.1c16.4,9,73.5-14.1,73.5-14.1
		s-56.1,8.8-52.1-36.5c1.8-20.8-17.1-32.2-20.2-42.6c-3.1-10.7-0.4-27.9-4-38.6c-4.9-15.1-21.5-33.1-25.5-46.3
		c-9.9-32.7-2.9-42.6-10.1-54.8c-15.1-25.5-17.8-21.2-20.5-55.6c-2.4-29.7-35.6-60.4-47.4-71.7C635.1,10.8,619.9,3,593.1,0.6
		C527.5-5.5,462.8,49.6,456.3,92.4z"/>
	<path class="st4" d="M468.5,96.4c-6.3,6.8-3.5,16.2,16.3,28.4c10.5,6.4,4.5,26.5,30.4,37.9c29,12.7,57.1,7.7,62.2,25
		c2.2,7.5-16.8,26.8-16.8,26.8s27.2-19.6,30.6-27.8c5.4-12.7,1.3-23.6-9.8-34.4c-6.9-6.6-43.1-23.5-45.6-32.3
		c-2.5-8.6-3.5-26.1-3.5-26.1S477.3,87,468.5,96.4z"/>
	<path class="st3" d="M459.1,87.6c-6.3,6.8-4,20.8,15.9,32.9c10.5,6.4,4.5,26.5,30.4,37.9c29,12.7,57.1,7.7,62.2,25
		c2.2,7.5-7.4,31.9-7.4,31.9s22.6-24.5,26.1-32.7c5.4-12.7-3.5-23.9-14.7-34.6c-6.9-6.6-34.7-17.9-37.3-26.6c-2.5-8.6-1-34.2-1-34.2
		S467.9,78.2,459.1,87.6z"/>
	<path class="st4" d="M593.5,54c0,0,11.4,46.3,27.3,61.4c14.1,13.3,42.8,19.4,50,41.7c3.5,10.6-1.5,31.5,1,42.9
		c4,18.3,36.1,21.3,47.5,33.7c11.3,12.3,15.9,55.8,24.1,71.2c6.6,12.1,28,19.4,35.6,30.6c6.7,9.8,9.7,32.7,12.9,44.2
		c3.5,12.5,37.7,19.7,37.7,19.7s-27.7-2.6-37.8-13.7c-8.2-9-6.1-37.9-14.7-47.5c-8.6-9.6-31.3-19.9-37.5-31.5
		c-8.4-15.7-12.5-55.6-22.6-69.3c-9.9-13.5-40.1-14.4-47.8-31.2c-4.7-10.3,0.2-34.1-3.5-45.1c-7.3-21.2-45.7-29.9-53.9-46.7
		C603.3,96.3,593.5,54,593.5,54z"/>
	<path class="st4" d="M734.5,308.1c-4.3-11.2-44.2-16.5-47.8-26.8c-2.7-7.8,0.6-32.9-6.4-41.1C670,228,635.9,215.3,632,203
		c-4.4-13.7,4.1-50,4.1-50s-7.6,34.2,0.5,49.7c5.4,10.3,40,20.6,49.1,34.7c6.3,9.8,1.6,32,5.6,42.4c3.4,8.8,41.8,14.2,46.4,26
		c6.8,17.1,19.2,22,31.9,35.4c6.8,7.2,13.7,31.9,13.9,40.6c0.2,9.8,20.9,20.7,20.9,20.7s-23.6-8.5-23.8-18.9
		c-0.2-9-6.3-32.9-13.2-40.5C755.3,329.3,741.2,325.3,734.5,308.1z"/>
	<path class="st4" d="M641.7,60.6c0,0,30.5,7.8,53.6,38.5c7,9.3,9.2,49,14.8,58.7c5.9,10.4,23.9,17,27.2,29.3
		c4.8,17.8-0.8,47.7,10.5,62.2c5.6,7.2,23.3,21.8,24,33c0.6,9.7,9.9,49.9,9.9,49.9s-11.3-38.2-13-48.4c-1.5-9.1-17.3-24.5-23.3-32.8
		c-10.7-15.1-6.9-44.1-11.6-62c-3.1-11.6-20.6-15.8-26.8-26.3c-4.2-7.1-11.4-52.4-17.3-61.4C668.8,69.7,641.7,60.6,641.7,60.6z"/>
</g>
<g id="armbak">
	<path class="st19" d="M632.5,393.5L585.1,566c-0.8,3.7-4.7,6-8.6,5c-27.2-6.9-135.4-37.8-171.4-46.9c-23.4-5.9-78.2-12.3-81.4-12.1
		c-3.6,0.2-42.2,13.5-44.2,14.8c-4.3,2.6-23.4,10.6-31.2,15c-1.6,0.9-2,2.8-1,4.2c3.5,4.8,12.4,14.9,28.3,19.5
		c7.6,2.2,26.7-11.6,44.1-10.1c15.2,1.3,11.4,1.5,15.3,2c18.7,2.3,45.7-2.3,45.7-2.3s174.6,95.3,229.8,87.1
		c13.7-2,32.5-25.1,40.2-35.9c32.8-45.8,64.6-155.2,73-209.8c2.7-17.8,1.9-42.4,1.9-42.4s-10.2-4.5-49.1,5.1
		C637.3,368.9,632.5,393.5,632.5,393.5z"/>
	<path class="st6" d="M425.9,565.2c-61.6-26.7-106.2-9.9-106.2-9.9c15.2,1.3,11.4,1.5,15.3,2c18.7,2.3,45.7-2.3,45.7-2.3
		s174.6,95.3,229.8,87.1c13.7-2-19.1-16.6-11.3-27.4C599.3,614.7,566.8,626.3,425.9,565.2z"/>
</g>
<g id="genser">
	<path class="st20" d="M614.1,330.5c0,0-53,108.2-61.6,140.4c-7.8,29.2,4.5,184.8,4.5,184.8l161.4,17.7c0,0,64.2-201.3,44.1-299.3
		c-10.2-49.5-42.8-69.8-48.5-72C690.2,292.6,614.1,330.5,614.1,330.5z"/>
</g>
<g id="armer">
	<path class="st5" d="M660.5,453.9l-48.2,191.6c-0.8,4.1-4.8,6.7-8.8,5.6c-27.8-7.6-137.9-42-174.5-52
		c-23.8-6.6-79.6-13.7-82.9-13.5c-3.6,0.2-42.9,15-45,16.4c-4.4,2.9-23.8,11.8-31.7,16.6c-1.6,1-2,3.1-1,4.7
		c3.5,5.3,12.6,16.5,28.8,21.6c7.8,2.4,27.2-12.9,44.9-11.2c15.5,1.5,11.6,1.6,15.6,2.2c19.1,2.6,46.5-2.5,46.5-2.5
		S582,739.1,638.2,730c13.9-2.3,33.1-27.9,41-39.9c33.3-50.8,65.8-172.3,74.3-233c2.8-19.7,2-47,2-47s-10.4-5-49.9,5.7
		C665.4,426.5,660.5,453.9,660.5,453.9z"/>
	<path class="st6" d="M357.7,635.8c19.1,2.6,46.5-2.5,46.5-2.5S582,739.1,638.2,730c13.9-2.3,33.1-27.9,41-39.9
		c33.3-50.8,65.8-172.3,74.3-233c0,0-50.1,229.2-111,261.7c-38.7,20.7-149.8-40.2-217.2-77.8c-20.4-11.4-17.9-11.4-37.4-7
		C378.6,636.1,357.7,635.8,357.7,635.8z"/>
</g>
<g id="tanker">
	<g>
		<g>
			<path class="st21" d="M370.7,189.2c3.9,0,5.7-3.5,5.7-7.9s-1.8-7.9-5.7-7.9s-6,3.5-6,7.9S366.8,189.2,370.7,189.2z"/>
			<path class="st21" d="M364,189.5c-1.2,0.1-2.1,0.8-2.6,2.1l-6.5,26.1c-0.3,1.3,0.4,2.6,1.6,3s2.3-0.5,2.6-1.8l4.5-21.6l0.2,18.9
				v3.3v29.3c0,1.7,1.2,3.2,2.8,3.2s2.8-1.4,2.8-3.2l0.7-29.3h1.8l0.8,29.3c0,1.7,1.2,3.2,2.8,3.2s2.8-1.4,2.8-3.2v-29.3v-3.3
				l-0.4-19.3l5.8,22c0.3,1.3,1.5,2,2.7,1.7c1.2-0.4,1.8-1.7,1.4-2.2l-7.4-26.6c-0.7-1.9-2.1-2-2.8-2.1h-6.8L364,189.5z"/>
		</g>
		<g>
			<path class="st21" d="M399.7,178.8c3.9,0,5.7-3.5,5.7-7.9s-1.8-7.9-5.7-7.9s-6,3.5-6,7.9S395.8,178.8,399.7,178.8z"/>
			<path class="st21" d="M393,179.2c-1.2,0.1-2.1,0.8-2.6,2.1l-6.5,26.1c-0.3,1.3,0.4,2.6,1.6,3s2.3-0.5,2.6-1.8l4.5-21.6l0.2,18.9
				v3.3v29.3c0,1.7,1.2,3.2,2.8,3.2s2.8-1.4,2.8-3.2l0.7-29.3h1.8l0.8,29.3c0,1.7,1.2,3.2,2.8,3.2s2.8-1.4,2.8-3.2v-29.3v-3.3
				l-0.4-19.3l5.8,22c0.3,1.3,1.5,2,2.7,1.7c1.2-0.4,1.8-1.7,1.4-2.2l-7.4-26.6c-0.7-1.9-2.1-2-2.8-2.1h-6.8L393,179.2z"/>
		</g>
		<g>
			<path class="st21" d="M429.7,193.1c3.9,0,5.7-3.5,5.7-7.9s-1.8-7.9-5.7-7.9s-6,3.5-6,7.9C423.7,189.5,425.8,193.1,429.7,193.1z"
				/>
			<path class="st21" d="M423,193.4c-1.2,0.1-2.1,0.8-2.6,2.1l-6.5,26.1c-0.3,1.3,0.4,2.6,1.6,3c1.2,0.3,2.3-0.5,2.6-1.8l4.5-21.6
				l0.2,18.9v3.3v29.3c0,1.7,1.2,3.2,2.8,3.2s2.8-1.4,2.8-3.2l0.7-29.3h1.8l0.8,29.3c0,1.7,1.2,3.2,2.8,3.2s2.8-1.4,2.8-3.2v-29.3
				V220l-0.4-19.3l5.8,22c0.3,1.3,1.5,2,2.7,1.7c1.2-0.4,1.8-1.7,1.4-2.2l-7.4-26.6c-0.7-1.9-2.1-2-2.8-2.1h-6.8L423,193.4z"/>
		</g>
	</g>
	<g>
		<path class="st22" d="M207.7,197.3h46.7c1.2,0,2.2,1,2.2,2.2v73.4c0,1.2-1,2.2-2.2,2.2h-46.7c-1.2,0-2.2-1-2.2-2.2v-73.4
			C205.6,198.3,206.6,197.3,207.7,197.3z"/>
		<polyline class="st22" points="221.2,202.7 216.5,212.9 211.8,206.9 		"/>
		<polyline class="st22" points="221.2,256.7 216.5,266.9 211.8,260.9 		"/>
		<polyline class="st22" points="221.2,229.6 216.5,239.9 211.8,233.8 		"/>
		<line class="st22" x1="227.3" y1="204.2" x2="252.5" y2="204.2"/>
		<line class="st22" x1="227.3" y1="230.5" x2="252.5" y2="230.5"/>
		<line class="st22" x1="227.3" y1="256.9" x2="252.5" y2="256.9"/>
		<line class="st22" x1="227.3" y1="210.6" x2="244.8" y2="210.6"/>
		<line class="st22" x1="227.3" y1="236.9" x2="244.8" y2="236.9"/>
		<line class="st22" x1="227.3" y1="263.4" x2="244.8" y2="263.4"/>
	</g>
	<g>
		<path class="st23" d="M420.9,417.6H483c1.6,0,2.9,1.3,2.9,2.9v81.1c0,1.6-1.3,2.9-2.9,2.9h-62.1c-1.6,0-2.9-1.3-2.9-2.9v-81.1
			C418,418.9,419.3,417.6,420.9,417.6z"/>
		<path class="st23" d="M427.9,434h48c1.6,0,2.9,1.3,2.9,2.9v6.2c0,1.6-1.3,2.9-2.9,2.9h-48c-1.6,0-2.9-1.3-2.9-2.9v-6.2
			C425,435.3,426.3,434,427.9,434z"/>
		<path class="st23" d="M427.9,451.7h16.7c1.6,0,2.9,1.3,2.9,2.9v13.7c0,1.6-1.3,2.9-2.9,2.9h-16.7c-1.6,0-2.9-1.3-2.9-2.9v-13.7
			C425,453,426.3,451.7,427.9,451.7z"/>
		<path class="st24" d="M462.7,451.7h33.9c1.6,0,2.9,1.3,2.9,2.9v21.1c0,1.6-1.3,2.9-2.9,2.9h-33.9c-1.6,0-2.9-1.3-2.9-2.9v-21.1
			C459.8,453,461.1,451.7,462.7,451.7z"/>
		<path class="st24" d="M408.1,479.5h38c1.6,0,2.9,1.3,2.9,2.9v29.9c0,1.6-1.3,2.9-2.9,2.9h-38c-1.6,0-2.9-1.3-2.9-2.9v-29.9
			C405.2,480.8,406.5,479.5,408.1,479.5z"/>
		<line class="st23" x1="418" y1="425" x2="485.9" y2="425"/>
		<line class="st23" x1="468.8" y1="458.2" x2="468.8" y2="471.9"/>
		<line class="st23" x1="491.2" y1="458.2" x2="491.2" y2="471.9"/>
		<line class="st23" x1="480.1" y1="457" x2="480.1" y2="473.2"/>
		<polygon class="st22" points="413,502.1 441.8,502.1 433.1,487.7 426.7,497.9 420.6,491.2 		"/>
		<line class="st23" x1="463.2" y1="487.2" x2="479.2" y2="487.2"/>
		<line class="st23" x1="455.5" y1="487.2" x2="458.4" y2="487.2"/>
		<line class="st23" x1="455.5" y1="496.1" x2="479.2" y2="496.1"/>
	</g>
	<g>
		<path class="st22" d="M331.1,337.2h17.8c1.3,0,2.3,1,2.3,2.3v6.3c0,1.3-1,2.3-2.3,2.3h-17.8c-1.3,0-2.3-1-2.3-2.3v-6.3
			C328.8,338.3,329.8,337.2,331.1,337.2z"/>
		<path class="st22" d="M367.1,337.2h17.8c1.3,0,2.3,1,2.3,2.3v6.3c0,1.3-1,2.3-2.3,2.3h-17.8c-1.3,0-2.3-1-2.3-2.3v-6.3
			C364.8,338.3,365.8,337.2,367.1,337.2z"/>
		<path class="st22" d="M331.1,364.7h17.8c1.3,0,2.3,1,2.3,2.3v6.3c0,1.3-1,2.3-2.3,2.3h-17.8c-1.3,0-2.3-1-2.3-2.3V367
			C328.8,365.7,329.8,364.7,331.1,364.7z"/>
		<path class="st22" d="M245.1,351.3h17.8c1.3,0,2.3,1,2.3,2.3v6.3c0,1.3-1,2.3-2.3,2.3h-17.8c-1.3,0-2.3-1-2.3-2.3v-6.3
			C242.7,352.3,243.8,351.3,245.1,351.3z"/>
		<path class="st22" d="M284.7,349.9l5,5c0.9,0.9,0.9,2.4,0,3.3l-5,5c-0.9,0.9-2.4,0.9-3.3,0l-5-5c-0.9-0.9-0.9-2.4,0-3.3l5-5
			C282.3,349,283.8,349,284.7,349.9z"/>
		<path class="st22" d="M310,335.9l5,5c0.9,0.9,0.9,2.4,0,3.3l-5,5c-0.9,0.9-2.4,0.9-3.3,0l-5-5c-0.9-0.9-0.9-2.4,0-3.3l5-5
			C307.7,335,309.1,335,310,335.9z"/>
		<path class="st22" d="M373.8,364.2l5,5c0.9,0.9,0.9,2.4,0,3.3l-5,5c-0.9,0.9-2.4,0.9-3.3,0l-5-5c-0.9-0.9-0.9-2.4,0-3.3l5-5
			C371.4,363.3,372.9,363.3,373.8,364.2z"/>
		<circle class="st22" cx="414.4" cy="355.8" r="8.3"/>
		<path class="st22" d="M315.8,342.6h11.9"/>
		<path class="st22" d="M283,370.7h44.9"/>
		<path class="st22" d="M265.2,356.5h9.6"/>
		<path class="st22" d="M351.2,370.8h12.5"/>
		<path class="st22" d="M351.2,342.7h12.5"/>
		<path class="st22" d="M396.8,355.6h7.8"/>
		<path class="st22" d="M283.2,342.6H300"/>
		<line class="st22" x1="283" y1="370.7" x2="283" y2="364.2"/>
		<line class="st22" x1="283.2" y1="349.3" x2="283.2" y2="342.6"/>
		<polyline class="st22" points="396.8,356.5 396.8,342.6 387.5,342.7 		"/>
		<polyline class="st22" points="379.4,370.8 396.8,370.9 396.8,356.2 		"/>
	</g>
	<g>
		<circle class="st25" cx="198.8" cy="462.5" r="14"/>
		<circle class="st25" cx="193" cy="460.7" r="1.8"/>
		<circle class="st25" cx="204.6" cy="460.7" r="1.8"/>
		<path class="st23" d="M205.2,467.3c0,2.5-2.8,4.5-6.3,4.5s-6.3-2-6.3-4.5"/>
	</g>
</g>
<g>
	<circle class="st25" cx="248.2" cy="463.3" r="13.8"/>
	<circle class="st25" cx="241.9" cy="462.1" r="1.7"/>
	<circle class="st25" cx="254.5" cy="462.1" r="1.7"/>
	<path class="st23" d="M241.9,472.5c0-2.5,2.8-4.5,6.3-4.5s6.3,2,6.3,4.5"/>
</g>
<polyline class="st22" points="182.5,428.8 198.5,423.2 209,412.1 221.9,417.9 229.6,431.7 245.5,438.8 258.7,430.8 271.4,430.8 "/>
</svg>
