<?xml version="1.0" encoding="utf-8"?>
<!-- Generator: Adobe Illustrator 26.3.1, SVG Export Plug-In . SVG Version: 6.00 Build 0)  -->
<svg version="1.1" xmlns="http://www.w3.org/2000/svg" xmlns:xlink="http://www.w3.org/1999/xlink" x="0px" y="0px"
	 viewBox="0 0 1920 1080" style="enable-background:new 0 0 1920 1080;" xml:space="preserve">
<style type="text/css">
	.st0{fill:#9FCAD0;}
	.st1{fill:none;stroke:#5F678D;stroke-width:3;stroke-miterlimit:10;}
	.st2{fill:none;stroke:#5F678D;stroke-width:3;stroke-linecap:round;stroke-miterlimit:10;}
	.st3{fill:none;stroke:#5F678D;stroke-width:3;stroke-linecap:round;stroke-linejoin:round;stroke-miterlimit:10;}
	.st4{fill:#3B5265;}
	.st5{fill:#638391;}
	.st6{fill:none;stroke:#3B5265;stroke-width:0.5;stroke-miterlimit:10;}
	.st7{fill:#A17D5D;}
	.st8{fill:#9D7A5B;}
	.st9{fill:#FFC999;}
	.st10{fill:#F6BE92;}
	.st11{fill:#FFFFFF;}
	.st12{fill:#536239;}
	.st13{fill:#D37B87;}
	.st14{opacity:0.9;fill:#FFFFFF;}
	.st15{fill:#FFC293;}
	.st16{fill:none;stroke:#0000FF;stroke-miterlimit:10;}
	.st17{fill:none;stroke:#C29377;stroke-width:0.5;stroke-miterlimit:10;}
	.st18{fill:#FFB48B;}
	.st19{fill:none;stroke:#000000;stroke-width:0.5;stroke-miterlimit:10;}
	.st20{fill:#514C53;}
	.st21{fill:none;stroke:#C7716B;stroke-width:0.5;stroke-miterlimit:10;}
	.st22{fill:none;stroke:#000000;stroke-miterlimit:10;}
	.st23{fill:#F9C799;}
	.st24{fill:#DD97C2;}
	.st25{fill:#5F678D;}
	.st26{fill:#9FCAD0;stroke:#5F678D;stroke-width:3;stroke-linecap:round;stroke-miterlimit:10;}
</style>
<g id="Layer_11">
	<path class="st0" d="M1393.64,316.73c26.22,33.22,95,38.82,108.88,104.01c14.6,68.58-45.93,151.33-54.94,189.74
		c-9.08,38.73,23.64,116.43-56.7,201.96c-64.77,68.96-122.6,47.26-170.35,62.61c-38.14,12.26-87.51,72.71-143.97,69.8
		c-80.39-4.14-110.63-42.29-154.4-79.41c-35.45-30.06-82.05,9.79-146.29-84.3c-37.05-54.25-24.03-97.19-22.96-149.15
		c0.99-48.24-39.83-123.2,8.51-189.6c51.02-70.09,89.27-53.83,146.06-92.52c53.29-36.3,8.21-57.05,97.91-101.64
		c73.28-36.43,124.38-7,162.43-18.39c43.43-13,81.68-30.56,133.13-7.45C1353.39,245.95,1357.34,270.74,1393.64,316.73z"/>
	<g>
		<circle class="st1" cx="985.91" cy="616.47" r="13.85"/>
		<circle class="st1" cx="979.65" cy="615.18" r="1.69"/>
		<circle class="st1" cx="992.21" cy="615.18" r="1.69"/>
		<path class="st2" d="M979.65,625.67c0-2.46,2.81-4.46,6.28-4.46s6.28,1.99,6.28,4.46"/>
	</g>
	<polyline class="st3" points="920.24,581.91 936.25,576.35 946.77,565.21 959.62,571.02 967.35,584.79 983.29,591.91 
		996.41,583.96 1009.1,583.96 	"/>
</g>
<g id="back">
</g>
<g id="laptop">
	<path class="st4" d="M1141.26,817.36l-249.02,4.64c-2.46,0.04-4.62-1.62-5.21-4.01l-59.41-241.25c-0.08-0.32-0.13-0.64-0.14-0.96
		l-5.33-95.88c-0.02-0.31,0.42-0.37,0.5-0.07l50.34,204.07l224.44-1.22c2.22-0.01,4.21,1.37,4.98,3.45l44.54,119.95
		C1147.79,808.37,1143.69,817.31,1141.26,817.36z"/>
	<path class="st5" d="M1141.79,811.78l-248.91,4.4c-2.46,0.04-4.62-1.62-5.21-4.01l-57.96-235.52c-0.08-0.32-0.13-0.64-0.14-0.96
		l-7.42-95.79c-0.02-0.31,0.42-0.37,0.5-0.07l50.34,204.07l224.44-1.22c2.22-0.01,4.21,1.37,4.98,3.45l44.24,118.56
		C1147.89,808.09,1145.41,811.71,1141.79,811.78z"/>
	<line class="st6" x1="889.56" y1="818.4" x2="872.98" y2="683.9"/>
</g>
<g id="hårbak">
	<path class="st7" d="M1287.39,309.02c0,0-31.38,54.84-22.98,83.45c5.85,19.92,14.24,19.19,15.97,40.07
		c1.44,17.37-3.52,31.9,0.33,41.77c6,15.4,19.03,27.01,21.39,43.37c1.91,13.19-30.44,71.92-30.44,71.92s77.29-50.13,96.34-66.74
		c47.12-41.09,34.71-192.17,34.71-192.17L1287.39,309.02z"/>
	<path class="st8" d="M1315.46,422.27c0,0-14.76,25.79-13.68,35.16c1.43,12.42,26.95,28.84,28.25,41.27
		c1.91,18.36-38.03,63.29-38.03,63.29s42.44-43.41,41.58-62.06c-0.57-12.47-24.66-30.37-25.68-42.8
		c-0.77-9.34,13.78-34.85,13.78-34.85H1315.46z"/>
	<path class="st8" d="M1340.53,422.87c0,0-8.52,23.23-6.69,31.04c2.43,10.36,23.72,21.74,26.05,32.12
		c3.44,15.33-22.29,57.18-22.29,57.18s27.8-40.81,25.14-56.49c-1.78-10.48-22.14-23.25-24.26-33.66c-1.59-7.82,6.8-30.79,6.8-30.79
		L1340.53,422.87z"/>
</g>
<g id="hals_base">
	<path class="st9" d="M1351.1,486.09c0,0,11.42-23.13,9.13-31.75c-2.41-9.05-8.88-17.04-12.91-21.92
		c-8.24-9.98-37.19,1.87-37.19,1.87l101.58-71.31l57.05,84.82L1351.1,486.09z"/>
	<path class="st10" d="M1351.06,486.68c0,0,11.46-23.8,9.17-32.42c-2.41-9.05-8.88-17.04-12.91-21.92
		c-8.24-9.98-37.89,2.49-37.89,2.49s33.35-27.13,48.44,1.74C1368.56,457.06,1351.06,486.68,1351.06,486.68z"/>
</g>
<g id="Hode-base">
	<path id="hode_path" class="st9" d="M1431.01,279.55c-15.1,79.63-60.51,117.64-108.79,148.74c-13.35,8.6-29.5,15.85-44.72-10.65
		c-4.4-7.65-11.05-2.14-12.19-5.82c-1.23-3.94-0.81-2.28-1.31-4.78c-0.56-2.79-6.75,4.41-11-1c-1.41-1.8-1.67-10.43-8-14
		c-3.69-2.08-19,8.26-22.08,1.74c-2.79-5.92,3.55-34.09,2.29-49.17c-1-12-7.65-10.47-12.65-19.47c-1.09-1.95-22.57-53.1-13.57-83.1
		c22.86-76.2,103.34-88.27,135.5-84.5C1407,166.04,1436.06,252.95,1431.01,279.55z"/>
	<path class="st11" d="M1252.66,340.59c-1.91,4.08-2.32,8-6.74,8c-4.42,0-8-3.58-8-8c0-4.42,3.58-8,8-8
		C1250.33,332.59,1254.53,336.59,1252.66,340.59z"/>
	<path class="st12" d="M1245.07,341.28c1.22,2.84,0.83,6.23-0.55,6.82c-1.38,0.59-4.75-1.32-5.97-4.16
		c-1.22-2.84-0.61-6.51,0.77-7.1C1240.7,336.25,1243.86,338.44,1245.07,341.28z"/>
	<path id="hode_path_00000151538970063474140010000007811796789711959182_" class="st13" d="M1267.51,413.2c0,0-1.5-0.14-1.89-0.73
		c-0.63-0.94-1.5-2.67-1.7-5.43c-0.21-2.84-7.12,4.36-10.64-0.64c-0.85-1.21,20.38-4.65,20.09-6.17L1267.51,413.2z"/>
	<path d="M1240.47,343.68c0.32,0.76,0.22,1.67-0.15,1.82c-0.37,0.16-1.27-0.35-1.59-1.11c-0.32-0.76-0.16-1.74,0.21-1.9
		C1239.3,342.34,1240.14,342.93,1240.47,343.68z"/>
	<ellipse class="st14" cx="1241.4" cy="342.47" rx="1.19" ry="1.58"/>
	<path class="st15" d="M1197.41,269.9c0,0,22.42-0.91,30.1,1.86c10.14,3.65,49.72,24.79,49.72,24.79s-49.08-71.21-71.54-66.37
		C1195.82,232.3,1197.41,269.9,1197.41,269.9z"/>
</g>
<g id="ansikt_base_utforming">
	<path class="st16" d="M1284.5,423.5"/>
	<path class="st16" d="M1270.5,403.5"/>
	<path class="st17" d="M1245.67,376.71c0,0,7.24,6.5,6.57,9.61c-0.45,2.09-3.57,2.39-3.57,2.39"/>
	<path class="st15" d="M1244.84,358.44l-3.84-9.85l12.41-12.5c0,0,0.44,2.92,0,4C1251.61,344.51,1244.84,358.44,1244.84,358.44z"/>
	<path class="st18" d="M1227.51,326.21c0,0,6.14,4.38,6.76,6.38s2.14,9.17,2.14,9.17l17-5.67c0,0-0.72-2.36-2-3
		C1245.41,330.09,1227.51,326.21,1227.51,326.21z"/>
	<path class="st19" d="M1237.9,348"/>
	<path class="st19" d="M1252,335.34"/>
	<path class="st19" d="M1231.71,341.17"/>
	<path class="st20" d="M1233.99,319.45l-16.18,12l-4.13-4.54c0,0,15.31-8.23,19.04-10.01c1.52-0.72,10.1-0.17,10.1-0.17
		L1233.99,319.45z"/>
	<path class="st21" d="M1227.51,326.21c0,0,6.14,4.38,6.76,6.38s2.14,8.29,2.14,8.29l17-4.79"/>
	<polyline class="st21" points="1242.66,352.85 1241.03,348.2 1253.41,336.09 	"/>
	
		<ellipse transform="matrix(0.6131 -0.79 0.79 0.6131 224.1143 1182.7476)" class="st15" cx="1319.64" cy="362.55" rx="24.57" ry="19.08"/>
</g>
<g id="ansikt_detaljer">
	<path class="st22" d="M1231.38,341.47c2.71,1.65,22.83-5.62,22.83-5.62s-13.42,11.59-13.91,14.15"/>
	<path class="st17" d="M1234.66,391.68c0,0,5.35-3.16,7.35-3.9c1.89-0.7,8.03-0.84,8.03-0.84"/>
</g>
<g id="hår">
	<path class="st7" d="M1194.07,245.48c-1.03,6.78,36.07,22.2,53.99,29.5c15.75,6.42,26.26,28.28,45.23,31.54
		c28.21,4.85,18.02,50.71,29.03,62.17c16.34,17.01,31.38,24.38,40.82,36.37c13.39,17,35.55,55.33,81.64,48.64
		c23-3.34,43.16,91.67,74.9,109.13c16.45,9.05,73.53-14.06,73.53-14.06s-56.13,8.83-52.13-36.54c1.83-20.79-17.14-32.18-20.18-42.65
		c-3.1-10.67-0.43-27.85-3.97-38.65c-4.95-15.1-21.5-33.09-25.49-46.31c-9.86-32.68-2.87-42.65-10.11-54.84
		c-15.13-25.46-17.75-21.18-20.5-55.57c-2.38-29.71-35.6-60.42-47.39-71.71c-40.36-38.68-55.62-46.53-82.39-48.94
		C1265.23,147.64,1200.57,202.68,1194.07,245.48z"/>
	<path class="st8" d="M1206.2,249.5c-6.35,6.78-3.51,16.21,16.32,28.37c10.46,6.41,4.46,26.5,30.43,37.89
		c29.04,12.74,57.05,7.73,62.17,25.05c2.2,7.46-16.78,26.76-16.78,26.76s27.16-19.6,30.64-27.82c5.38-12.73,1.32-23.6-9.83-34.35
		c-6.87-6.62-43.05-23.54-45.58-32.26c-2.49-8.57-3.52-26.14-3.52-26.14S1215.02,240.09,1206.2,249.5z"/>
	<path class="st7" d="M1196.86,240.76c-6.35,6.78-3.96,20.8,15.87,32.95c10.46,6.41,4.46,26.5,30.43,37.89
		c29.04,12.74,57.05,7.73,62.17,25.05c2.2,7.46-7.37,31.91-7.37,31.91s22.61-24.49,26.09-32.71c5.38-12.73-3.54-23.86-14.69-34.62
		c-6.87-6.62-34.73-17.9-37.27-26.62c-2.49-8.57-1.03-34.18-1.03-34.18S1205.68,231.34,1196.86,240.76z"/>
	<path class="st8" d="M1331.29,207.09c0,0,11.39,46.3,27.31,61.38c14.07,13.33,42.75,19.37,50.02,41.67
		c3.47,10.64-1.46,31.54,1.04,42.89c4.03,18.29,36.09,21.29,47.5,33.68c11.34,12.3,15.87,55.84,24.14,71.15
		c6.55,12.13,27.98,19.38,35.62,30.65c6.67,9.84,9.67,32.66,12.92,44.18c3.53,12.5,37.68,19.72,37.68,19.72s-27.71-2.64-37.76-13.74
		c-8.17-9.02-6.11-37.91-14.69-47.53c-8.6-9.65-31.29-19.93-37.51-31.48c-8.44-15.66-12.54-55.55-22.56-69.25
		c-9.86-13.47-40.06-14.41-47.8-31.24c-4.74-10.31,0.23-34.15-3.52-45.1c-7.27-21.24-45.68-29.9-53.92-46.72
		C1341.01,249.47,1331.29,207.09,1331.29,207.09z"/>
	<path class="st8" d="M1472.29,461.22c-4.34-11.2-44.2-16.45-47.77-26.82c-2.67-7.75,0.57-32.9-6.41-41.11
		c-10.39-12.2-44.42-24.89-48.38-37.19c-4.43-13.73,4.12-50.05,4.12-50.05s-7.6,34.16,0.54,49.74c5.39,10.32,40.02,20.65,49.11,34.7
		c6.31,9.75,1.55,31.99,5.62,42.42c3.44,8.83,41.77,14.19,46.43,26.03c6.76,17.14,19.24,22.05,31.93,35.41
		c6.83,7.19,13.68,31.86,13.88,40.6c0.23,9.75,20.95,20.68,20.95,20.68s-23.55-8.48-23.85-18.86c-0.25-8.99-6.33-32.87-13.15-40.53
		C1493.01,482.42,1478.97,478.47,1472.29,461.22z"/>
	<path class="st8" d="M1379.47,213.74c0,0,30.48,7.81,53.64,38.49c6.99,9.26,9.23,48.95,14.76,58.69
		c5.88,10.36,23.86,17.03,27.21,29.3c4.85,17.78-0.82,47.69,10.51,62.22c5.61,7.2,23.33,21.75,24,32.96
		c0.58,9.73,9.94,49.89,9.94,49.89s-11.31-38.16-13.01-48.4c-1.51-9.07-17.34-24.46-23.28-32.81
		c-10.72-15.08-6.87-44.07-11.63-61.95c-3.09-11.61-20.64-15.82-26.83-26.34c-4.16-7.06-11.38-52.37-17.31-61.37
		C1406.58,222.8,1379.47,213.74,1379.47,213.74z"/>
</g>
<g id="armbak">
	<path class="st23" d="M1370.25,546.61l-47.38,172.49c-0.79,3.7-4.74,6.01-8.62,5.03c-27.25-6.87-135.45-37.77-171.37-46.86
		c-23.37-5.92-78.17-12.33-81.41-12.13c-3.55,0.21-42.18,13.55-44.23,14.78c-4.28,2.57-23.41,10.61-31.16,14.96
		c-1.56,0.87-2,2.79-0.98,4.2c3.49,4.82,12.37,14.89,28.27,19.46c7.62,2.19,26.67-11.63,44.09-10.08
		c15.19,1.35,11.43,1.47,15.35,1.96c18.74,2.33,45.68-2.29,45.68-2.29s174.61,95.26,229.83,87.07c13.7-2.03,32.5-25.1,40.25-35.92
		c32.76-45.78,64.58-155.16,72.99-209.77c2.73-17.75,1.93-42.36,1.93-42.36s-10.21-4.51-49.05,5.09
		C1375.05,521.98,1370.25,546.61,1370.25,546.61z"/>
	<path class="st10" d="M1163.61,718.35c-61.6-26.67-106.15-9.89-106.15-9.89c15.19,1.35,11.43,1.47,15.35,1.96
		c18.74,2.33,45.68-2.29,45.68-2.29s174.61,95.26,229.83,87.07c13.7-2.03-19.05-16.6-11.31-27.42
		C1337.01,767.78,1304.57,779.4,1163.61,718.35z"/>
</g>
<g id="genser">
	<path class="st24" d="M1351.87,483.6c0,0-53.04,108.18-61.57,140.35c-7.76,29.25,4.51,184.82,4.51,184.82l161.42,17.68
		c0,0,64.22-201.28,44.05-299.32c-10.18-49.48-42.85-69.83-48.48-72.04C1427.96,445.76,1351.87,483.6,1351.87,483.6z"/>
</g>
<g id="armer">
	<path class="st9" d="M1398.28,606.99l-48.24,191.6c-0.81,4.11-4.83,6.68-8.78,5.59c-27.75-7.63-137.91-41.95-174.49-52.05
		c-23.8-6.57-79.59-13.7-82.89-13.48c-3.62,0.24-42.95,15.05-45.03,16.42c-4.36,2.86-23.84,11.79-31.72,16.62
		c-1.58,0.97-2.03,3.1-0.99,4.67c3.55,5.35,12.6,16.54,28.78,21.61c7.76,2.43,27.15-12.91,44.89-11.2
		c15.47,1.5,11.64,1.63,15.63,2.17c19.08,2.59,46.51-2.54,46.51-2.54s177.79,105.81,234.01,96.72c13.95-2.26,33.1-27.88,40.98-39.9
		c33.35-50.85,65.76-172.35,74.32-233.01c2.78-19.71,1.96-47.05,1.96-47.05s-10.39-5.01-49.95,5.66
		C1403.17,579.63,1398.28,606.99,1398.28,606.99z"/>
	<path class="st10" d="M1095.43,788.95c19.08,2.59,46.51-2.54,46.51-2.54s177.79,105.81,234.01,96.72
		c13.95-2.26,33.1-27.88,40.98-39.9c33.35-50.85,65.76-172.35,74.32-233.01c0,0-50.13,229.25-111,261.73
		c-38.74,20.67-149.84-40.24-217.17-77.85c-20.38-11.39-17.86-11.44-37.43-6.98C1116.34,789.23,1095.43,788.95,1095.43,788.95z"/>
</g>
<g id="tanker">
	<g>
		<g>
			<path class="st25" d="M1108.4,342.31c3.88,0,5.68-3.55,5.68-7.92c0-4.37-1.8-7.92-5.68-7.92c-3.88,0-6,3.55-6,7.92
				C1102.4,338.76,1104.52,342.31,1108.4,342.31z"/>
			<path class="st25" d="M1101.74,342.66c-1.2,0.11-2.13,0.8-2.58,2.12l-6.5,26.08c-0.29,1.3,0.4,2.62,1.56,2.95
				s2.33-0.46,2.62-1.76l4.53-21.65l0.15,18.87v3.34v29.33c0,1.74,1.25,3.16,2.8,3.16s2.8-1.41,2.8-3.16l0.66-29.33h1.76l0.78,29.33
				c0,1.74,1.25,3.16,2.8,3.16s2.8-1.41,2.8-3.16v-29.33v-3.34l-0.37-19.3l5.75,21.98c0.32,1.29,1.51,2.04,2.66,1.68
				c1.15-0.36,1.81-1.71,1.44-2.25l-7.37-26.62c-0.65-1.85-2.06-2.02-2.79-2.06l-6.83-0.03L1101.74,342.66z"/>
		</g>
		<g>
			<path class="st25" d="M1137.41,331.93c3.88,0,5.68-3.55,5.68-7.92s-1.8-7.92-5.68-7.92c-3.88,0-6,3.55-6,7.92
				S1133.53,331.93,1137.41,331.93z"/>
			<path class="st25" d="M1130.76,332.29c-1.2,0.11-2.13,0.8-2.58,2.12l-6.5,26.08c-0.29,1.3,0.4,2.62,1.56,2.95
				s2.33-0.46,2.62-1.76l4.53-21.65l0.15,18.87v3.34v29.33c0,1.74,1.25,3.16,2.8,3.16s2.8-1.41,2.8-3.16l0.66-29.33h1.76l0.78,29.33
				c0,1.74,1.25,3.16,2.8,3.16s2.8-1.41,2.8-3.16v-29.33v-3.34l-0.37-19.3l5.75,21.98c0.32,1.29,1.51,2.04,2.66,1.68
				c1.15-0.36,1.81-1.71,1.44-2.25l-7.37-26.62c-0.65-1.85-2.06-2.02-2.79-2.06l-6.83-0.03L1130.76,332.29z"/>
		</g>
		<g>
			<path class="st25" d="M1167.43,346.2c3.88,0,5.68-3.55,5.68-7.92c0-4.37-1.8-7.92-5.68-7.92c-3.88,0-6,3.55-6,7.92
				C1161.43,342.66,1163.55,346.2,1167.43,346.2z"/>
			<path class="st25" d="M1160.78,346.56c-1.2,0.11-2.13,0.8-2.58,2.12l-6.5,26.08c-0.29,1.3,0.4,2.62,1.56,2.95
				c1.15,0.33,2.33-0.46,2.62-1.76l4.53-21.65l0.15,18.87v3.34v29.33c0,1.74,1.25,3.16,2.8,3.16s2.8-1.41,2.8-3.16l0.66-29.33h1.76
				l0.78,29.33c0,1.74,1.25,3.16,2.8,3.16s2.8-1.41,2.8-3.16v-29.33v-3.34l-0.37-19.3l5.75,21.98c0.32,1.29,1.51,2.04,2.66,1.68
				c1.15-0.36,1.81-1.71,1.44-2.25l-7.37-26.62c-0.65-1.85-2.06-2.02-2.79-2.06l-6.83-0.03L1160.78,346.56z"/>
		</g>
	</g>
	<g>
		<path class="st3" d="M945.49,350.43h46.65c1.2,0,2.16,0.97,2.16,2.16v73.42c0,1.2-0.97,2.16-2.16,2.16h-46.65
			c-1.2,0-2.16-0.97-2.16-2.16V352.6C943.33,351.4,944.3,350.43,945.49,350.43z"/>
		<polyline class="st3" points="958.94,355.8 954.28,366.05 949.51,359.99 		"/>
		<polyline class="st3" points="958.94,409.82 954.28,420.07 949.51,414.01 		"/>
		<polyline class="st3" points="958.94,382.73 954.28,392.98 949.51,386.92 		"/>
		<line class="st3" x1="965.05" y1="357.33" x2="990.22" y2="357.33"/>
		<line class="st3" x1="965.05" y1="383.62" x2="990.22" y2="383.62"/>
		<line class="st3" x1="965.05" y1="410.06" x2="990.22" y2="410.06"/>
		<line class="st3" x1="965.05" y1="363.74" x2="982.52" y2="363.74"/>
		<line class="st3" x1="965.05" y1="390.03" x2="982.52" y2="390.03"/>
		<line class="st3" x1="965.05" y1="416.48" x2="982.52" y2="416.48"/>
	</g>
	<g>
		<path class="st2" d="M1158.61,570.69h62.14c1.59,0,2.88,1.29,2.88,2.88v81.14c0,1.59-1.29,2.88-2.88,2.88h-62.14
			c-1.59,0-2.88-1.29-2.88-2.88v-81.14C1155.73,571.98,1157.02,570.69,1158.61,570.69z"/>
		<path class="st2" d="M1165.66,587.13h48.04c1.59,0,2.88,1.29,2.88,2.88v6.19c0,1.59-1.29,2.88-2.88,2.88h-48.04
			c-1.59,0-2.88-1.29-2.88-2.88v-6.19C1162.77,588.42,1164.06,587.13,1165.66,587.13z"/>
		<path class="st2" d="M1165.66,604.85h16.66c1.59,0,2.88,1.29,2.88,2.88v13.67c0,1.59-1.29,2.88-2.88,2.88h-16.66
			c-1.59,0-2.88-1.29-2.88-2.88v-13.67C1162.77,606.14,1164.06,604.85,1165.66,604.85z"/>
		<path class="st26" d="M1200.46,604.85h33.95c1.59,0,2.88,1.29,2.88,2.88v21.14c0,1.59-1.29,2.88-2.88,2.88h-33.95
			c-1.59,0-2.88-1.29-2.88-2.88v-21.14C1197.58,606.14,1198.87,604.85,1200.46,604.85z"/>
		<path class="st26" d="M1145.8,632.61h38.01c1.59,0,2.88,1.29,2.88,2.88v29.89c0,1.59-1.29,2.88-2.88,2.88h-38.01
			c-1.59,0-2.88-1.29-2.88-2.88v-29.89C1142.92,633.9,1144.21,632.61,1145.8,632.61z"/>
		<line class="st2" x1="1155.73" y1="578.16" x2="1223.63" y2="578.16"/>
		<line class="st2" x1="1206.55" y1="611.37" x2="1206.55" y2="625.03"/>
		<line class="st2" x1="1228.97" y1="611.37" x2="1228.97" y2="625.03"/>
		<line class="st2" x1="1217.87" y1="610.08" x2="1217.87" y2="626.31"/>
		<polygon class="st3" points="1150.71,655.25 1179.54,655.25 1170.84,640.79 1164.43,651.04 1158.35,644.28 		"/>
		<line class="st2" x1="1200.97" y1="640.3" x2="1216.9" y2="640.3"/>
		<line class="st2" x1="1193.2" y1="640.3" x2="1196.19" y2="640.3"/>
		<line class="st2" x1="1193.2" y1="649.27" x2="1216.9" y2="649.27"/>
	</g>
	<g>
		<path class="st3" d="M1068.84,490.36h17.82c1.28,0,2.31,1.04,2.31,2.31v6.34c0,1.28-1.04,2.31-2.31,2.31h-17.82
			c-1.28,0-2.31-1.04-2.31-2.31v-6.34C1066.53,491.4,1067.57,490.36,1068.84,490.36z"/>
		<path class="st3" d="M1104.84,490.36h17.82c1.28,0,2.31,1.04,2.31,2.31v6.34c0,1.28-1.04,2.31-2.31,2.31h-17.82
			c-1.28,0-2.31-1.04-2.31-2.31v-6.34C1102.52,491.4,1103.56,490.36,1104.84,490.36z"/>
		<path class="st3" d="M1068.84,517.78h17.82c1.28,0,2.31,1.04,2.31,2.31v6.34c0,1.28-1.04,2.31-2.31,2.31h-17.82
			c-1.28,0-2.31-1.04-2.31-2.31v-6.34C1066.53,518.82,1067.57,517.78,1068.84,517.78z"/>
		<path class="st3" d="M982.81,504.42h17.82c1.28,0,2.31,1.04,2.31,2.31v6.34c0,1.28-1.04,2.31-2.31,2.31h-17.82
			c-1.28,0-2.31-1.04-2.31-2.31v-6.34C980.49,505.45,981.53,504.42,982.81,504.42z"/>
		<path class="st3" d="M1022.42,503.07l5.04,5.04c0.9,0.9,0.9,2.37,0,3.27l-5.04,5.04c-0.9,0.9-2.37,0.9-3.27,0l-5.04-5.04
			c-0.9-0.9-0.9-2.37,0-3.27l5.04-5.04C1020.05,502.17,1021.52,502.17,1022.42,503.07z"/>
		<path class="st3" d="M1047.79,489.02l5.04,5.04c0.9,0.9,0.9,2.37,0,3.27l-5.04,5.04c-0.9,0.9-2.37,0.9-3.27,0l-5.04-5.04
			c-0.9-0.9-0.9-2.37,0-3.27l5.04-5.04C1045.42,488.12,1046.88,488.12,1047.79,489.02z"/>
		<path class="st3" d="M1111.54,517.3l5.04,5.04c0.9,0.9,0.9,2.37,0,3.27l-5.04,5.04c-0.9,0.9-2.37,0.9-3.27,0l-5.04-5.04
			c-0.9-0.9-0.9-2.37,0-3.27l5.04-5.04C1109.18,516.4,1110.64,516.4,1111.54,517.3z"/>
		<circle class="st3" cx="1152.14" cy="508.96" r="8.31"/>
		<path class="st3" d="M1053.5,495.69h11.95"/>
		<path class="st3" d="M1020.77,523.78h44.87"/>
		<path class="st3" d="M1002.94,509.66h9.58"/>
		<path class="st3" d="M1088.98,523.97h12.53"/>
		<path class="st3" d="M1088.98,495.85h12.47"/>
		<path class="st3" d="M1134.57,508.69h7.84"/>
		<path class="st3" d="M1020.99,495.69h16.73"/>
		<line class="st3" x1="1020.77" y1="523.78" x2="1020.77" y2="517.29"/>
		<line class="st3" x1="1020.94" y1="502.44" x2="1020.94" y2="495.76"/>
		<polyline class="st3" points="1134.57,509.64 1134.57,495.76 1125.23,495.85 		"/>
		<polyline class="st3" points="1117.18,523.95 1134.57,524.04 1134.57,509.3 		"/>
	</g>
	<g>
		<circle class="st1" cx="936.54" cy="615.64" r="13.97"/>
		<circle class="st1" cx="930.72" cy="613.81" r="1.75"/>
		<circle class="st1" cx="942.36" cy="613.84" r="1.75"/>
		<path class="st2" d="M942.9,620.43c0,2.48-2.84,4.5-6.34,4.5c-3.5,0-6.34-2.01-6.34-4.5"/>
	</g>
</g>
</svg>
