<?xml version="1.0" encoding="utf-8"?>
<!-- Generator: Adobe Illustrator 26.3.1, SVG Export Plug-In . SVG Version: 6.00 Build 0)  -->
<svg version="1.1" xmlns="http://www.w3.org/2000/svg" xmlns:xlink="http://www.w3.org/1999/xlink" x="0px" y="0px"
	 viewBox="0 0 1718.3 537.9" style="enable-background:new 0 0 1718.3 537.9;" xml:space="preserve">
<style type="text/css">
	.st0{fill:#0A0066;}
	.st1{fill:#4D4DFF;}
</style>
<g id="Testing">
</g>
<g id="Design">
</g>
<g id="Definer">
</g>
<g id="research">
	<path class="st0" d="M1452.7,2.5h15.5v3h-5.9v19.3h-3.6V5.5h-6V2.5z M1487,11c0.7,1.3,1.1,2.8,1.1,4.5c0,0.7,0,1.3-0.1,1.8h-13.5
		c0.1,1.4,0.6,2.5,1.6,3.4c0.9,0.9,2.1,1.3,3.5,1.3c2,0,3.3-0.8,4.2-2.5h3.9c-0.5,1.6-1.5,2.9-2.9,4c-1.4,1-3.1,1.6-5.2,1.6
		c-1.7,0-3.2-0.4-4.5-1.1c-1.3-0.8-2.4-1.8-3.1-3.2c-0.8-1.4-1.1-3-1.1-4.8c0-1.8,0.4-3.4,1.1-4.8c0.7-1.4,1.8-2.4,3.1-3.2
		s2.9-1.1,4.6-1.1c1.7,0,3.1,0.4,4.4,1.1C1485.3,8.7,1486.3,9.7,1487,11z M1484.3,14.4c0-1.3-0.5-2.4-1.4-3.2
		c-0.9-0.8-2.1-1.2-3.5-1.2c-1.3,0-2.3,0.4-3.2,1.2c-0.9,0.8-1.4,1.9-1.6,3.2H1484.3z M1500.4,21.4c-0.6,0.4-1.4,0.6-2.4,0.6
		c-1,0-1.8-0.3-2.4-0.8c-0.7-0.5-1-1.1-1.1-1.9h-3.8c0,1.1,0.4,2,1,2.9c0.6,0.9,1.5,1.5,2.6,2s2.3,0.8,3.7,0.8
		c1.4,0,2.6-0.2,3.6-0.7c1-0.4,1.8-1.1,2.4-1.9c0.6-0.8,0.8-1.7,0.8-2.7c0-1.1-0.3-2-0.9-2.7c-0.6-0.7-1.3-1.2-2.1-1.6
		c-0.8-0.4-1.9-0.7-3.2-1c-1-0.3-1.7-0.5-2.2-0.7c-0.5-0.2-0.9-0.4-1.2-0.8c-0.3-0.3-0.5-0.7-0.5-1.2c0-0.6,0.3-1.1,0.8-1.4
		c0.5-0.4,1.2-0.5,2.2-0.5c1,0,1.8,0.2,2.3,0.7c0.6,0.5,0.9,1.1,1,1.9h3.6c-0.1-1.7-0.7-3.1-2-4.1c-1.2-1-2.8-1.5-4.8-1.5
		c-1.3,0-2.5,0.2-3.6,0.7c-1,0.4-1.8,1.1-2.4,1.8c-0.6,0.8-0.8,1.6-0.8,2.6c0,1.2,0.3,2.1,0.9,2.8c0.6,0.7,1.3,1.2,2.2,1.6
		c0.8,0.3,1.9,0.7,3.2,1.1c1.4,0.4,2.4,0.7,3,1.1c0.6,0.3,0.9,0.8,0.9,1.5C1501.2,20.5,1500.9,21,1500.4,21.4z M1509.3,19.9
		c0,1.7,0.4,3,1.3,3.7s2.1,1.2,3.8,1.2h2.9v-3h-2.2c-0.7,0-1.3-0.1-1.6-0.4c-0.3-0.3-0.5-0.8-0.5-1.4v-9.8h4.3v-3h-4.3V2.7h-3.7v4.4
		h-2.1v3h2.1V19.9z M1522.5,4.8c0.6,0,1.2-0.2,1.6-0.7c0.4-0.4,0.7-1,0.7-1.7c0-0.7-0.2-1.2-0.7-1.7c-0.4-0.4-1-0.7-1.6-0.7
		c-0.7,0-1.2,0.2-1.7,0.7c-0.4,0.4-0.7,1-0.7,1.7c0,0.7,0.2,1.2,0.7,1.7C1521.3,4.6,1521.8,4.8,1522.5,4.8z M1520.7,7.1v17.6h3.6
		V7.1H1520.7z M1532.7,14.9c0-1.6,0.4-2.8,1.2-3.6s1.9-1.3,3.2-1.3s2.4,0.4,3.2,1.3c0.8,0.8,1.2,2.1,1.2,3.6v9.9h3.6V14.4
		c0-1.6-0.3-3-0.9-4.1c-0.6-1.1-1.5-2-2.6-2.6c-1.1-0.6-2.3-0.9-3.7-0.9c-1,0-2,0.2-3,0.6c-0.9,0.4-1.7,1-2.3,1.7v-2h-3.6v17.6h3.6
		V14.9z M1549.8,20.6c-0.7-1.4-1.1-3-1.1-4.8c0-1.8,0.4-3.3,1.1-4.7c0.7-1.4,1.7-2.4,3-3.2c1.3-0.8,2.7-1.1,4.2-1.1
		c1.4,0,2.6,0.3,3.6,0.8c1.1,0.5,1.9,1.2,2.5,2V7.1h3.7V25c0,1.6-0.3,3.1-1,4.3c-0.7,1.3-1.7,2.3-3,3c-1.3,0.7-2.8,1.1-4.6,1.1
		c-2.4,0-4.4-0.6-6-1.7c-1.6-1.1-2.5-2.6-2.7-4.6h3.6c0.3,0.9,0.9,1.7,1.8,2.2c0.9,0.6,2,0.8,3.2,0.8c1.5,0,2.7-0.4,3.6-1.3
		c0.9-0.9,1.4-2.2,1.4-3.9v-2.9c-0.6,0.8-1.5,1.5-2.5,2.1c-1.1,0.6-2.3,0.8-3.6,0.8c-1.5,0-2.9-0.4-4.2-1.2S1550.5,22,1549.8,20.6z
		 M1552.4,15.9c0,1.2,0.2,2.3,0.8,3.2c0.5,0.9,1.2,1.6,2,2.1s1.7,0.7,2.6,0.7c0.9,0,1.8-0.2,2.6-0.7c0.8-0.5,1.5-1.2,2-2.1
		c0.5-0.9,0.8-2,0.8-3.2s-0.3-2.3-0.8-3.2c-0.5-0.9-1.2-1.6-2-2c-0.8-0.5-1.7-0.7-2.6-0.7c-0.9,0-1.8,0.2-2.6,0.7
		c-0.8,0.5-1.5,1.1-2,2C1552.6,13.6,1552.4,14.6,1552.4,15.9z M1504.8,150.2c1.1,0.5,1.9,1.2,2.4,2c0.5,0.9,0.8,1.8,0.8,2.9
		c0,1.3-0.4,2.4-1.1,3.3c-0.7,0.9-1.7,1.5-2.8,1.9c0.8,0.1,1.6,0.5,2.2,1c0.7,0.5,1.2,1.2,1.6,2c0.4,0.8,0.6,1.6,0.6,2.5
		c0,1.1-0.3,2.1-0.9,3.1c-0.6,0.9-1.4,1.6-2.5,2.1c-1.1,0.5-2.4,0.8-3.9,0.8h-8.3v-22.3h8C1502.4,149.5,1503.7,149.7,1504.8,150.2z
		 M1500.9,161.5h-5.1v7.9h5.2c1.5,0,2.6-0.3,3.4-1s1.2-1.6,1.2-2.8c0-1.2-0.4-2.2-1.3-2.9C1503.5,161.8,1502.3,161.5,1500.9,161.5z
		 M1505,155.5c0-1.1-0.4-2-1.1-2.7c-0.7-0.6-1.8-1-3.2-1h-4.8v7.2h4.9c1.4,0,2.4-0.3,3.2-1C1504.7,157.5,1505,156.6,1505,155.5z
		 M1515.5,157.1v-2.8h-2.9v17.5h2.9v-9.5c0-3.5,1.6-5.3,4.9-5.3h0.8v-3c-1.4,0-2.5,0.3-3.5,0.8S1516,156.1,1515.5,157.1z
		 M1524.3,154.2v10.3c0,1.6,0.3,3,0.9,4.1c0.6,1.1,1.5,2,2.6,2.5c1.1,0.6,2.3,0.8,3.7,0.8c1.2,0,2.3-0.3,3.3-0.8
		c1-0.5,1.8-1.2,2.3-2.1v2.6h2.9v-17.5h-2.9v9.6c0,1.8-0.4,3.2-1.3,4.2c-0.9,1-2.1,1.4-3.7,1.4c-1.5,0-2.7-0.5-3.6-1.4
		c-0.9-0.9-1.3-2.3-1.3-4v-9.9H1524.3z M1545,148.1v23.7h2.9V164l6.9,7.7h4l-8.3-8.8l8.3-8.7h-4.1l-6.8,7.8v-13.9H1545z M1564.5,155
		c1.3-0.7,2.8-1.1,4.5-1.1c1.7,0,3.1,0.4,4.4,1.1s2.3,1.7,3,3c0.7,1.3,1,2.7,1,4.3c0,0.6,0,1.1-0.1,1.8h-14c0.1,1.7,0.7,3.1,1.8,4
		c1.1,1,2.4,1.5,3.9,1.5c1.3,0,2.3-0.3,3.2-0.9c0.8-0.6,1.4-1.4,1.8-2.4h3.1c-0.5,1.7-1.4,3.1-2.8,4.1c-1.4,1.1-3.2,1.6-5.2,1.6
		c-1.7,0-3.2-0.4-4.5-1.1c-1.3-0.7-2.3-1.8-3.1-3.2c-0.7-1.4-1.1-3-1.1-4.8c0-1.8,0.4-3.4,1.1-4.8
		C1562.2,156.8,1563.2,155.8,1564.5,155z M1565.1,157.8c-1,0.9-1.6,2.2-1.8,3.9h11.1c0-1.1-0.2-2.1-0.7-2.9c-0.5-0.8-1.2-1.4-2-1.8
		s-1.8-0.6-2.8-0.6C1567.4,156.4,1566.2,156.9,1565.1,157.8z M1584.2,162.2c0-3.5,1.6-5.3,4.9-5.3h0.8v-3c-1.4,0-2.5,0.3-3.5,0.8
		s-1.7,1.3-2.2,2.3v-2.8h-2.9v17.5h2.9V162.2z M1593.9,167c0,1.7,0.4,2.9,1.2,3.7c0.8,0.7,2,1.1,3.6,1.1h2.6v-2.5h-2.1
		c-0.9,0-1.5-0.2-1.9-0.5c-0.4-0.4-0.5-1-0.5-1.8v-10.3h4.6v-2.4h-4.6v-4.4h-2.9v4.4h-2.3v2.4h2.3V167z M1604.9,167.7
		c-0.7-1.4-1.1-3-1.1-4.8c0-1.8,0.4-3.4,1.1-4.8s1.7-2.4,3.1-3.2c1.3-0.7,2.8-1.1,4.5-1.1c1.7,0,3.1,0.4,4.4,1.1
		c1.3,0.7,2.3,1.7,3,3c0.7,1.3,1,2.7,1,4.3c0,0.6,0,1.1-0.1,1.8h-14c0.1,1.7,0.7,3.1,1.8,4s2.4,1.5,3.9,1.5c1.3,0,2.3-0.3,3.2-0.9
		c0.8-0.6,1.4-1.4,1.8-2.4h3.1c-0.5,1.7-1.4,3.1-2.8,4.1c-1.4,1.1-3.2,1.6-5.2,1.6c-1.7,0-3.2-0.4-4.5-1.1
		C1606.7,170.2,1605.6,169.1,1604.9,167.7z M1606.8,161.7h11.1c0-1.1-0.2-2.1-0.7-2.9c-0.5-0.8-1.2-1.4-2-1.8
		c-0.8-0.4-1.8-0.6-2.8-0.6c-1.5,0-2.7,0.5-3.8,1.4C1607.5,158.7,1606.9,160,1606.8,161.7z M1636.5,169.6c0.5-0.8,0.8-1.6,0.8-2.6
		c0-1.1-0.3-1.9-0.9-2.6c-0.6-0.7-1.2-1.2-2-1.5c-0.8-0.3-1.8-0.7-3.1-1c-1-0.3-1.8-0.5-2.4-0.8c-0.6-0.2-1-0.5-1.4-0.9
		c-0.4-0.4-0.6-0.8-0.6-1.4c0-0.7,0.3-1.3,0.9-1.8c0.6-0.4,1.5-0.7,2.5-0.7c1.1,0,2,0.3,2.7,0.8s1,1.3,1.1,2.2h2.9
		c-0.1-1.7-0.7-3.1-1.9-4c-1.2-1-2.8-1.5-4.7-1.5c-1.3,0-2.4,0.2-3.4,0.7c-1,0.4-1.7,1-2.3,1.8c-0.5,0.7-0.8,1.6-0.8,2.5
		c0,1.1,0.3,2,0.9,2.7c0.6,0.7,1.3,1.2,2.1,1.6c0.8,0.4,1.9,0.7,3.2,1c1.4,0.4,2.5,0.7,3.2,1.1c0.7,0.4,1,0.9,1,1.7
		c0,0.7-0.3,1.4-1,1.9c-0.6,0.5-1.5,0.7-2.6,0.7c-1.2,0-2.2-0.3-2.9-0.8s-1.1-1.3-1.2-2.1h-3c0.1,1.1,0.4,2,1,2.8
		c0.6,0.8,1.5,1.5,2.5,1.9c1.1,0.5,2.3,0.7,3.6,0.7c1.3,0,2.4-0.2,3.3-0.7C1635.2,171,1636,170.3,1636.5,169.6z M1642.1,167
		c0,1.7,0.4,2.9,1.2,3.7c0.8,0.7,2,1.1,3.6,1.1h2.6v-2.5h-2.1c-0.9,0-1.5-0.2-1.9-0.5c-0.4-0.4-0.5-1-0.5-1.8v-10.3h4.6v-2.4h-4.6
		v-4.4h-2.9v4.4h-2.3v2.4h2.3V167z M1654.6,151.4c0.5,0,1-0.2,1.4-0.6c0.4-0.4,0.6-0.9,0.6-1.4c0-0.6-0.2-1-0.6-1.4
		c-0.4-0.4-0.8-0.6-1.4-0.6c-0.6,0-1,0.2-1.4,0.6c-0.4,0.4-0.6,0.9-0.6,1.4c0,0.6,0.2,1,0.6,1.4
		C1653.5,151.2,1654,151.4,1654.6,151.4z M1656,154.2h-2.9v17.5h2.9V154.2z M1676.6,171.8v-10.3c0-2.4-0.7-4.3-2-5.6
		c-1.3-1.3-3.1-1.9-5.2-1.9c-1.2,0-2.3,0.2-3.3,0.7c-1,0.5-1.8,1.2-2.4,2.1v-2.5h-2.9v17.5h2.9v-9.7c0-1.8,0.5-3.2,1.4-4.2
		c0.9-1,2.1-1.4,3.7-1.4c1.5,0,2.7,0.5,3.6,1.4c0.9,0.9,1.3,2.3,1.3,4v9.9H1676.6z M1695.2,172.1v-3.7c-0.6,1-1.4,1.9-2.6,2.6
		s-2.5,1-4,1c-1.6,0-3-0.4-4.2-1.2c-1.3-0.8-2.3-1.8-3-3.2c-0.7-1.4-1.1-3-1.1-4.7c0-1.8,0.4-3.4,1.1-4.7s1.7-2.4,3-3.2
		c1.3-0.7,2.7-1.1,4.2-1.1c1.5,0,2.8,0.3,4,1c1.1,0.7,2,1.5,2.5,2.5v-3.2h2.9v17.9c0,1.6-0.3,3-1,4.3c-0.7,1.2-1.7,2.2-2.9,2.9
		s-2.7,1.1-4.4,1.1c-2.3,0-4.2-0.5-5.8-1.6c-1.5-1.1-2.4-2.6-2.7-4.4h2.9c0.3,1.1,1,1.9,2,2.6c1,0.7,2.2,1,3.6,1
		c1.6,0,2.9-0.5,3.9-1.5C1694.7,175.4,1695.2,174,1695.2,172.1z M1695.2,163c0-1.3-0.3-2.5-0.8-3.5c-0.5-1-1.3-1.7-2.2-2.3
		c-0.9-0.5-1.9-0.8-3-0.8s-2.1,0.3-3,0.8c-0.9,0.5-1.6,1.3-2.1,2.2c-0.5,1-0.8,2.1-0.8,3.5c0,1.3,0.3,2.5,0.8,3.5
		c0.5,1,1.2,1.7,2.1,2.3c0.9,0.5,1.9,0.8,3,0.8s2.1-0.3,3-0.8c0.9-0.5,1.6-1.3,2.2-2.3C1694.9,165.4,1695.2,164.3,1695.2,163z
		 M1503.1,231.6l8,22.2h-3.1l-1.8-5h-9.7l-1.8,5h-3.1l8.1-22.2H1503.1z M1505.4,246.4l-4-11.3l-4,11.3H1505.4z M1530.4,253.8v-10.3
		c0-2.4-0.7-4.3-2-5.6c-1.3-1.3-3.1-1.9-5.2-1.9c-1.2,0-2.3,0.2-3.3,0.7c-1,0.5-1.8,1.2-2.4,2.1v-2.5h-2.9v17.5h2.9v-9.7
		c0-1.8,0.5-3.2,1.4-4.2c0.9-1,2.1-1.4,3.7-1.4c1.5,0,2.7,0.5,3.6,1.4c0.9,0.9,1.3,2.3,1.3,4v9.9H1530.4z M1548.9,253.8v-3.3
		c-0.6,1-1.4,1.9-2.6,2.5c-1.1,0.7-2.5,1-4,1c-1.6,0-3-0.4-4.2-1.2c-1.3-0.8-2.3-1.8-3-3.2c-0.7-1.4-1.1-3-1.1-4.7
		c0-1.8,0.4-3.4,1.1-4.7c0.7-1.4,1.7-2.4,3-3.2c1.3-0.7,2.7-1.1,4.2-1.1c1.5,0,2.9,0.3,4,1c1.1,0.7,2,1.5,2.5,2.5v-3.2h2.9v17.5
		H1548.9z M1548.9,245c0-1.3-0.3-2.5-0.8-3.5c-0.5-1-1.3-1.7-2.2-2.3c-0.9-0.5-1.9-0.8-3-0.8s-2.1,0.3-3,0.8
		c-0.9,0.5-1.6,1.3-2.1,2.2c-0.5,1-0.8,2.1-0.8,3.5c0,1.3,0.3,2.5,0.8,3.5c0.5,1,1.2,1.7,2.1,2.3c0.9,0.5,1.9,0.8,3,0.8
		s2.1-0.3,3-0.8c0.9-0.5,1.6-1.3,2.2-2.3C1548.6,247.4,1548.9,246.3,1548.9,245z M1559.7,230.1h-2.9v23.7h2.9V230.1z M1571.3,250.4
		l-5.5-14.2h-3.2l7.1,17.3l-3.5,8.4h3l10.6-25.8h-3L1571.3,250.4z M1591.5,250.8c-0.6,0.5-1.5,0.7-2.6,0.7c-1.2,0-2.2-0.3-2.9-0.8
		s-1.1-1.3-1.2-2.1h-3c0.1,1.1,0.4,2,1,2.8c0.6,0.8,1.5,1.5,2.5,1.9c1.1,0.5,2.3,0.7,3.6,0.7c1.3,0,2.4-0.2,3.3-0.7
		c1-0.4,1.7-1,2.3-1.8c0.5-0.8,0.8-1.6,0.8-2.6c0-1.1-0.3-1.9-0.9-2.6c-0.6-0.7-1.2-1.2-2-1.5c-0.8-0.3-1.8-0.7-3.1-1
		c-1-0.3-1.8-0.5-2.4-0.8c-0.6-0.2-1-0.5-1.4-0.9c-0.4-0.4-0.6-0.8-0.6-1.4c0-0.7,0.3-1.3,0.9-1.8c0.6-0.4,1.5-0.7,2.5-0.7
		c1.1,0,2,0.3,2.7,0.8s1,1.3,1.1,2.2h2.9c-0.1-1.7-0.7-3.1-1.9-4c-1.2-1-2.8-1.5-4.7-1.5c-1.3,0-2.4,0.2-3.4,0.7
		c-1,0.4-1.7,1-2.3,1.8c-0.5,0.7-0.8,1.6-0.8,2.5c0,1.1,0.3,2,0.9,2.7c0.6,0.7,1.3,1.2,2.1,1.6c0.8,0.4,1.9,0.7,3.2,1
		c1.4,0.4,2.5,0.7,3.2,1.1c0.7,0.4,1,0.9,1,1.7C1592.4,249.7,1592.1,250.4,1591.5,250.8z M1606.9,254c-1.7,0-3.2-0.4-4.5-1.1
		c-1.3-0.7-2.3-1.8-3.1-3.2c-0.7-1.4-1.1-3-1.1-4.8c0-1.8,0.4-3.4,1.1-4.8c0.7-1.4,1.7-2.4,3.1-3.2c1.3-0.7,2.8-1.1,4.5-1.1
		c1.7,0,3.1,0.4,4.4,1.1s2.3,1.7,3,3c0.7,1.3,1,2.7,1,4.3c0,0.6,0,1.1-0.1,1.8h-14c0.1,1.7,0.7,3.1,1.8,4c1.1,1,2.4,1.5,3.9,1.5
		c1.3,0,2.3-0.3,3.2-0.9c0.8-0.6,1.4-1.4,1.8-2.4h3.1c-0.5,1.7-1.4,3.1-2.8,4.1C1610.8,253.5,1609,254,1606.9,254z M1601.3,243.7
		h11.1c0-1.1-0.2-2.1-0.7-2.9c-0.5-0.8-1.2-1.4-2-1.8s-1.8-0.6-2.8-0.6c-1.5,0-2.7,0.5-3.8,1.4C1602,240.7,1601.4,242,1601.3,243.7z
		 M1622.1,239.1v-2.8h-2.9v17.5h2.9v-9.5c0-3.5,1.6-5.3,4.9-5.3h0.8v-3c-1.4,0-2.5,0.3-3.5,0.8S1622.6,238.1,1622.1,239.1z
		 M1508.9,313.5h-3.7l-9.2,10.3v-10.3h-2.9v22.3h2.9v-10.2l9.2,10.2h3.8l-10.2-11.1L1508.9,313.5z M1519.5,336c-1.6,0-3-0.4-4.2-1.2
		c-1.3-0.8-2.3-1.8-3-3.2c-0.7-1.4-1.1-3-1.1-4.7c0-1.8,0.4-3.4,1.1-4.7c0.7-1.4,1.7-2.4,3-3.2c1.3-0.7,2.7-1.1,4.2-1.1
		c1.5,0,2.9,0.3,4,1c1.1,0.7,2,1.5,2.5,2.5v-3.2h2.9v17.5h-2.9v-3.3c-0.6,1-1.4,1.9-2.6,2.5C1522.3,335.7,1521,336,1519.5,336z
		 M1517.1,332.7c0.9,0.5,1.9,0.8,3,0.8s2.1-0.3,3-0.8c0.9-0.5,1.6-1.3,2.2-2.3c0.5-1,0.8-2.1,0.8-3.5s-0.3-2.5-0.8-3.5
		c-0.5-1-1.3-1.7-2.2-2.3c-0.9-0.5-1.9-0.8-3-0.8s-2.1,0.3-3,0.8c-0.9,0.5-1.6,1.3-2.1,2.2c-0.5,1-0.8,2.1-0.8,3.5
		c0,1.3,0.3,2.5,0.8,3.5C1515.5,331.4,1516.2,332.2,1517.1,332.7z M1542.5,320.9v-3c-1.4,0-2.5,0.3-3.5,0.8s-1.7,1.3-2.2,2.3v-2.8
		h-2.9v17.5h2.9v-9.5c0-3.5,1.6-5.3,4.9-5.3H1542.5z M1554,320.6v-2.4h-4.6v-4.4h-2.9v4.4h-2.3v2.4h2.3V331c0,1.7,0.4,2.9,1.2,3.7
		c0.8,0.7,2,1.1,3.6,1.1h2.6v-2.5h-2.1c-0.9,0-1.5-0.2-1.9-0.5c-0.4-0.4-0.5-1-0.5-1.8v-10.3H1554z M1560.4,312.1h-2.9v23.7h2.9
		V312.1z M1580.4,322c0.7,1.3,1,2.7,1,4.3c0,0.6,0,1.1-0.1,1.8h-14c0.1,1.7,0.7,3.1,1.8,4c1.1,1,2.4,1.5,3.9,1.5
		c1.3,0,2.3-0.3,3.2-0.9c0.8-0.6,1.4-1.4,1.8-2.4h3.1c-0.5,1.7-1.4,3.1-2.8,4.1c-1.4,1.1-3.2,1.6-5.2,1.6c-1.7,0-3.2-0.4-4.5-1.1
		c-1.3-0.7-2.3-1.8-3.1-3.2c-0.7-1.4-1.1-3-1.1-4.8c0-1.8,0.4-3.4,1.1-4.8c0.7-1.4,1.7-2.4,3.1-3.2c1.3-0.7,2.8-1.1,4.5-1.1
		c1.7,0,3.1,0.4,4.4,1.1C1578.7,319.7,1579.7,320.7,1580.4,322z M1578.4,325.7c0-1.1-0.2-2.1-0.7-2.9c-0.5-0.8-1.2-1.4-2-1.8
		s-1.8-0.6-2.8-0.6c-1.5,0-2.7,0.5-3.8,1.4c-1,0.9-1.6,2.2-1.8,3.9H1578.4z M1599,318.2h2.9v17.9c0,1.6-0.3,3-1,4.3
		c-0.7,1.2-1.7,2.2-2.9,2.9s-2.7,1.1-4.4,1.1c-2.3,0-4.2-0.5-5.8-1.6c-1.5-1.1-2.4-2.6-2.7-4.4h2.9c0.3,1.1,1,1.9,2,2.6
		c1,0.7,2.2,1,3.6,1c1.6,0,2.9-0.5,3.9-1.5c1-1,1.5-2.4,1.5-4.2v-3.7c-0.6,1-1.4,1.9-2.6,2.6c-1.1,0.7-2.5,1-4,1
		c-1.6,0-3-0.4-4.2-1.2c-1.3-0.8-2.3-1.8-3-3.2c-0.7-1.4-1.1-3-1.1-4.7c0-1.8,0.4-3.4,1.1-4.7c0.7-1.4,1.7-2.4,3-3.2
		c1.3-0.7,2.7-1.1,4.2-1.1c1.5,0,2.8,0.3,4,1c1.1,0.7,2,1.5,2.5,2.5V318.2z M1599,327c0-1.3-0.3-2.5-0.8-3.5c-0.5-1-1.3-1.7-2.2-2.3
		c-0.9-0.5-1.9-0.8-3-0.8s-2.1,0.3-3,0.8c-0.9,0.5-1.6,1.3-2.1,2.2c-0.5,1-0.8,2.1-0.8,3.5c0,1.3,0.3,2.5,0.8,3.5
		c0.5,1,1.2,1.7,2.1,2.3c0.9,0.5,1.9,0.8,3,0.8s2.1-0.3,3-0.8c0.9-0.5,1.6-1.3,2.2-2.3C1598.7,329.4,1599,328.3,1599,327z
		 M1620.6,318.2h2.9v17.9c0,1.6-0.3,3-1,4.3c-0.7,1.2-1.7,2.2-2.9,2.9c-1.3,0.7-2.7,1.1-4.4,1.1c-2.3,0-4.2-0.5-5.8-1.6
		c-1.5-1.1-2.4-2.6-2.7-4.4h2.9c0.3,1.1,1,1.9,2,2.6c1,0.7,2.2,1,3.6,1c1.6,0,2.9-0.5,3.9-1.5c1-1,1.5-2.4,1.5-4.2v-3.7
		c-0.6,1-1.4,1.9-2.6,2.6s-2.5,1-4,1c-1.6,0-3-0.4-4.2-1.2c-1.3-0.8-2.3-1.8-3-3.2c-0.7-1.4-1.1-3-1.1-4.7c0-1.8,0.4-3.4,1.1-4.7
		c0.7-1.4,1.7-2.4,3-3.2c1.3-0.7,2.7-1.1,4.2-1.1c1.5,0,2.8,0.3,4,1c1.1,0.7,2,1.5,2.5,2.5V318.2z M1620.6,327
		c0-1.3-0.3-2.5-0.8-3.5c-0.5-1-1.3-1.7-2.2-2.3c-0.9-0.5-1.9-0.8-3-0.8s-2.1,0.3-3,0.8c-0.9,0.5-1.6,1.3-2.1,2.2
		c-0.5,1-0.8,2.1-0.8,3.5c0,1.3,0.3,2.5,0.8,3.5c0.5,1,1.2,1.7,2.1,2.3c0.9,0.5,1.9,0.8,3,0.8s2.1-0.3,3-0.8
		c0.9-0.5,1.6-1.3,2.2-2.3C1620.4,329.4,1620.6,328.3,1620.6,327z M1643.6,333.1l-5.5-14.8h-3.1l6.9,17.5h3.4l6.9-17.5h-3.1
		L1643.6,333.1z M1670,322c0.7,1.3,1,2.7,1,4.3c0,0.6,0,1.1-0.1,1.8h-14c0.1,1.7,0.7,3.1,1.8,4c1.1,1,2.4,1.5,3.9,1.5
		c1.3,0,2.3-0.3,3.2-0.9c0.8-0.6,1.4-1.4,1.8-2.4h3.1c-0.5,1.7-1.4,3.1-2.8,4.1c-1.4,1.1-3.2,1.6-5.2,1.6c-1.7,0-3.2-0.4-4.5-1.1
		c-1.3-0.7-2.3-1.8-3.1-3.2s-1.1-3-1.1-4.8c0-1.8,0.4-3.4,1.1-4.8c0.7-1.4,1.7-2.4,3.1-3.2c1.3-0.7,2.8-1.1,4.5-1.1
		c1.7,0,3.1,0.4,4.4,1.1C1668.3,319.7,1669.3,320.7,1670,322z M1668,325.7c0-1.1-0.2-2.1-0.7-2.9c-0.5-0.8-1.2-1.4-2-1.8
		s-1.8-0.6-2.8-0.6c-1.5,0-2.7,0.5-3.8,1.4c-1,0.9-1.6,2.2-1.8,3.9H1668z M1674.8,335.8h2.9v-17.5h-2.9V335.8z M1676.3,311.4
		c-0.6,0-1,0.2-1.4,0.6c-0.4,0.4-0.6,0.9-0.6,1.4c0,0.6,0.2,1,0.6,1.4c0.4,0.4,0.9,0.6,1.4,0.6c0.5,0,1-0.2,1.4-0.6
		c0.4-0.4,0.6-0.9,0.6-1.4c0-0.6-0.2-1-0.6-1.4C1677.3,311.6,1676.9,311.4,1676.3,311.4z M1697.7,322c0.7,1.3,1,2.7,1,4.3
		c0,0.6,0,1.1-0.1,1.8h-14c0.1,1.7,0.7,3.1,1.8,4c1.1,1,2.4,1.5,3.9,1.5c1.3,0,2.3-0.3,3.2-0.9c0.8-0.6,1.4-1.4,1.8-2.4h3.1
		c-0.5,1.7-1.4,3.1-2.8,4.1c-1.4,1.1-3.2,1.6-5.2,1.6c-1.7,0-3.2-0.4-4.5-1.1c-1.3-0.7-2.3-1.8-3.1-3.2c-0.7-1.4-1.1-3-1.1-4.8
		c0-1.8,0.4-3.4,1.1-4.8c0.7-1.4,1.7-2.4,3.1-3.2c1.3-0.7,2.8-1.1,4.5-1.1c1.7,0,3.1,0.4,4.4,1.1C1696,319.7,1697,320.7,1697.7,322z
		 M1695.7,325.7c0-1.1-0.2-2.1-0.7-2.9c-0.5-0.8-1.2-1.4-2-1.8s-1.8-0.6-2.8-0.6c-1.5,0-2.7,0.5-3.8,1.4c-1,0.9-1.6,2.2-1.8,3.9
		H1695.7z M1716.3,319.8c-1.3-1.3-3.1-1.9-5.2-1.9c-1.2,0-2.3,0.2-3.3,0.7c-1,0.5-1.8,1.2-2.4,2.1v-2.5h-2.9v17.5h2.9v-9.7
		c0-1.8,0.5-3.2,1.4-4.2s2.1-1.4,3.7-1.4c1.5,0,2.7,0.5,3.6,1.4c0.9,0.9,1.3,2.3,1.3,4v9.9h2.9v-10.3
		C1718.3,323,1717.6,321.1,1716.3,319.8z M1499.7,371.5l-5.5-14.8h-3.1l6.9,17.5h3.4l6.9-17.5h-3.1L1499.7,371.5z M1511.1,374.2h2.9
		v-17.5h-2.9V374.2z M1512.6,349.8c-0.6,0-1,0.2-1.4,0.6c-0.4,0.4-0.6,0.9-0.6,1.4c0,0.6,0.2,1,0.6,1.4c0.4,0.4,0.9,0.6,1.4,0.6
		c0.5,0,1-0.2,1.4-0.6c0.4-0.4,0.6-0.9,0.6-1.4c0-0.6-0.2-1-0.6-1.4C1513.6,350,1513.1,349.8,1512.6,349.8z M1532.7,350.5h2.9v23.7
		h-2.9v-3.3c-0.6,1-1.4,1.9-2.6,2.6c-1.1,0.7-2.5,1-4,1c-1.6,0-3-0.4-4.2-1.2c-1.3-0.8-2.3-1.8-3-3.2c-0.7-1.4-1.1-3-1.1-4.7
		c0-1.8,0.4-3.4,1.1-4.7c0.7-1.4,1.7-2.4,3-3.2c1.3-0.7,2.7-1.1,4.3-1.1c1.4,0,2.6,0.3,3.8,0.9c1.2,0.6,2.1,1.5,2.7,2.5V350.5z
		 M1532.7,365.4c0-1.3-0.3-2.5-0.8-3.5c-0.5-1-1.3-1.7-2.2-2.3c-0.9-0.5-1.9-0.8-3-0.8s-2.1,0.3-3,0.8c-0.9,0.5-1.6,1.3-2.1,2.2
		c-0.5,1-0.8,2.1-0.8,3.5c0,1.3,0.3,2.5,0.8,3.5c0.5,1,1.2,1.7,2.1,2.3c0.9,0.5,1.9,0.8,3,0.8s2.1-0.3,3-0.8
		c0.9-0.5,1.6-1.3,2.2-2.3C1532.5,367.8,1532.7,366.7,1532.7,365.4z M1555.6,360.4c0.7,1.3,1,2.7,1,4.3c0,0.6,0,1.1-0.1,1.8h-14
		c0.1,1.7,0.7,3.1,1.8,4c1.1,1,2.4,1.5,3.9,1.5c1.3,0,2.3-0.3,3.2-0.9c0.8-0.6,1.4-1.4,1.8-2.4h3.1c-0.5,1.7-1.4,3.1-2.8,4.1
		c-1.4,1.1-3.2,1.6-5.2,1.6c-1.7,0-3.2-0.4-4.5-1.1c-1.3-0.7-2.3-1.8-3.1-3.2c-0.7-1.4-1.1-3-1.1-4.8c0-1.8,0.4-3.4,1.1-4.8
		c0.7-1.4,1.7-2.4,3.1-3.2c1.3-0.7,2.8-1.1,4.5-1.1c1.7,0,3.1,0.4,4.4,1.1C1553.9,358.1,1554.9,359.1,1555.6,360.4z M1553.6,364.1
		c0-1.1-0.2-2.1-0.7-2.9c-0.5-0.8-1.2-1.4-2-1.8c-0.8-0.4-1.8-0.6-2.8-0.6c-1.5,0-2.7,0.5-3.8,1.4c-1,0.9-1.6,2.2-1.8,3.9H1553.6z
		 M1563.3,359.5v-2.8h-2.9v17.5h2.9v-9.5c0-3.5,1.6-5.3,4.9-5.3h0.8v-3c-1.4,0-2.5,0.3-3.5,0.8S1563.9,358.5,1563.3,359.5z
		 M1587.3,360.4c0.7,1.3,1,2.7,1,4.3c0,0.6,0,1.1-0.1,1.8h-14c0.1,1.7,0.7,3.1,1.8,4c1.1,1,2.4,1.5,3.9,1.5c1.3,0,2.3-0.3,3.2-0.9
		c0.8-0.6,1.4-1.4,1.8-2.4h3.1c-0.5,1.7-1.4,3.1-2.8,4.1c-1.4,1.1-3.2,1.6-5.2,1.6c-1.7,0-3.2-0.4-4.5-1.1c-1.3-0.7-2.3-1.8-3.1-3.2
		c-0.7-1.4-1.1-3-1.1-4.8c0-1.8,0.4-3.4,1.1-4.8c0.7-1.4,1.7-2.4,3.1-3.2c1.3-0.7,2.8-1.1,4.5-1.1c1.7,0,3.1,0.4,4.4,1.1
		C1585.6,358.1,1586.6,359.1,1587.3,360.4z M1585.4,364.1c0-1.1-0.2-2.1-0.7-2.9c-0.5-0.8-1.2-1.4-2-1.8c-0.8-0.4-1.8-0.6-2.8-0.6
		c-1.5,0-2.7,0.5-3.8,1.4c-1,0.9-1.6,2.2-1.8,3.9H1585.4z M1048.4,11c1,1.7,1.5,3.7,1.5,5.9c0,2.3-0.5,4.2-1.5,5.9s-2.3,2.9-4.1,3.8
		c-1.8,0.9-3.9,1.3-6.2,1.3h-7.3V5.7h7.3c2.4,0,4.4,0.5,6.2,1.4C1046,8,1047.4,9.3,1048.4,11z M1046.1,16.9c0-2.6-0.7-4.6-2.1-6
		c-1.4-1.5-3.4-2.2-6-2.2h-3.6V25h3.6c2.6,0,4.6-0.7,6-2.1S1046.1,19.5,1046.1,16.9z M1069.1,22.7c-0.5,1.6-1.5,3-2.9,4
		c-1.4,1-3.1,1.6-5.2,1.6c-1.7,0-3.2-0.4-4.5-1.1c-1.3-0.8-2.4-1.8-3.1-3.2c-0.8-1.4-1.1-3-1.1-4.8c0-1.8,0.4-3.4,1.1-4.8
		s1.8-2.4,3.1-3.2c1.3-0.7,2.9-1.1,4.6-1.1c1.7,0,3.1,0.4,4.4,1.1c1.3,0.7,2.3,1.7,3,3.1c0.7,1.3,1.1,2.8,1.1,4.5
		c0,0.7,0,1.3-0.1,1.8H1056c0.1,1.4,0.6,2.5,1.6,3.4c0.9,0.9,2.1,1.3,3.5,1.3c2,0,3.3-0.8,4.2-2.5H1069.1z M1056.1,17.6h9.8
		c0-1.3-0.5-2.4-1.4-3.2c-0.9-0.8-2.1-1.2-3.5-1.2c-1.3,0-2.3,0.4-3.2,1.2C1056.8,15.1,1056.2,16.2,1056.1,17.6z M1081.9,24.6
		c-0.6,0.4-1.4,0.6-2.4,0.6c-1,0-1.8-0.2-2.4-0.8c-0.7-0.5-1-1.1-1.1-1.9h-3.8c0,1.1,0.4,2,1,2.9s1.5,1.5,2.6,2s2.3,0.8,3.7,0.8
		c1.4,0,2.6-0.2,3.6-0.7c1-0.4,1.8-1.1,2.4-1.9c0.6-0.8,0.8-1.7,0.8-2.7c0-1.1-0.3-2-0.9-2.7c-0.6-0.7-1.3-1.2-2.1-1.6
		c-0.8-0.4-1.9-0.7-3.2-1c-1-0.3-1.7-0.5-2.2-0.7c-0.5-0.2-0.9-0.4-1.2-0.8c-0.3-0.3-0.5-0.7-0.5-1.2c0-0.6,0.3-1.1,0.8-1.4
		c0.5-0.4,1.2-0.5,2.2-0.5c1,0,1.8,0.2,2.3,0.7c0.6,0.5,0.9,1.1,1,1.9h3.6c-0.1-1.7-0.7-3.1-2-4.1c-1.2-1-2.8-1.5-4.8-1.5
		c-1.3,0-2.5,0.2-3.6,0.7c-1,0.4-1.8,1.1-2.4,1.8c-0.6,0.8-0.8,1.6-0.8,2.6c0,1.2,0.3,2.1,0.9,2.8c0.6,0.7,1.3,1.2,2.2,1.6
		s1.9,0.7,3.2,1.1c1.4,0.4,2.4,0.7,3,1.1c0.6,0.3,0.9,0.8,0.9,1.5C1082.8,23.7,1082.5,24.2,1081.9,24.6z M1092.2,8
		c0.6,0,1.2-0.2,1.6-0.7s0.7-1,0.7-1.7s-0.2-1.2-0.7-1.7s-1-0.7-1.6-0.7c-0.7,0-1.2,0.2-1.7,0.7s-0.7,1-0.7,1.7s0.2,1.2,0.7,1.7
		S1091.5,8,1092.2,8z M1090.3,28h3.6V10.3h-3.6V28z M1098.6,23.8c-0.7-1.4-1.1-3-1.1-4.8s0.4-3.3,1.1-4.7s1.7-2.4,3-3.2
		c1.3-0.8,2.7-1.1,4.2-1.1c1.4,0,2.6,0.3,3.6,0.8c1.1,0.5,1.9,1.2,2.5,2v-2.6h3.7v17.9c0,1.6-0.3,3.1-1,4.3c-0.7,1.3-1.7,2.3-3,3
		c-1.3,0.7-2.8,1.1-4.6,1.1c-2.4,0-4.4-0.6-6-1.7c-1.6-1.1-2.5-2.6-2.7-4.6h3.6c0.3,0.9,0.9,1.7,1.8,2.2c0.9,0.6,2,0.8,3.2,0.8
		c1.5,0,2.7-0.4,3.6-1.3c0.9-0.9,1.4-2.2,1.4-3.9v-2.9c-0.6,0.8-1.5,1.5-2.5,2.1c-1.1,0.6-2.3,0.8-3.6,0.8c-1.5,0-2.9-0.4-4.2-1.2
		C1100.4,26.3,1099.4,25.2,1098.6,23.8z M1101.3,19.1c0,1.2,0.2,2.3,0.8,3.2c0.5,0.9,1.2,1.6,2,2.1c0.8,0.5,1.7,0.7,2.6,0.7
		c0.9,0,1.8-0.2,2.6-0.7c0.8-0.5,1.5-1.2,2-2.1c0.5-0.9,0.8-2,0.8-3.2s-0.3-2.3-0.8-3.2c-0.5-0.9-1.2-1.6-2-2
		c-0.8-0.5-1.7-0.7-2.6-0.7c-0.9,0-1.8,0.2-2.6,0.7c-0.8,0.5-1.5,1.1-2,2C1101.5,16.8,1101.3,17.8,1101.3,19.1z M1124.1,18.1
		c0-1.6,0.4-2.8,1.2-3.6s1.9-1.3,3.2-1.3c1.4,0,2.4,0.4,3.2,1.3s1.2,2.1,1.2,3.6V28h3.6V17.6c0-1.6-0.3-3-0.9-4.1
		c-0.6-1.1-1.5-2-2.6-2.6s-2.3-0.9-3.7-0.9c-1,0-2,0.2-3,0.6s-1.7,1-2.3,1.7v-2h-3.6V28h3.6V18.1z M1070.3,161.9
		c0.6,0.8,1.4,1.4,2.3,1.8c0.9,0.4,2.1,0.8,3.5,1.2c1.2,0.3,2.1,0.6,2.8,0.9c0.7,0.3,1.3,0.7,1.8,1.2c0.5,0.5,0.7,1.2,0.7,2.1
		c0,1.1-0.4,2-1.2,2.7s-1.9,1-3.3,1c-1.5,0-2.6-0.4-3.3-1.1c-0.8-0.7-1.2-1.6-1.3-2.6h-3.1c0,1.2,0.4,2.3,1,3.2
		c0.7,0.9,1.6,1.7,2.7,2.2c1.2,0.5,2.5,0.8,4,0.8c1.5,0,2.9-0.3,4-0.9s2-1.4,2.6-2.3c0.6-1,0.9-2,0.9-3.1c0-1.4-0.3-2.5-1-3.3
		c-0.6-0.8-1.4-1.4-2.3-1.8c-0.9-0.4-2.1-0.8-3.6-1.2c-1.2-0.3-2.2-0.6-2.8-0.9c-0.7-0.3-1.2-0.7-1.7-1.2c-0.5-0.5-0.7-1.2-0.7-2
		c0-1.1,0.4-2,1.2-2.6c0.8-0.6,1.8-0.9,3-0.9c1.3,0,2.3,0.3,3.1,1c0.8,0.7,1.2,1.4,1.3,2.3h3.2c-0.2-1.7-0.9-3.1-2.3-4.2
		c-1.3-1-3-1.6-5.1-1.6c-1.5,0-2.7,0.3-3.9,0.8c-1.1,0.5-2,1.2-2.6,2.2c-0.6,0.9-0.9,2-0.9,3.2
		C1069.3,159.9,1069.6,161,1070.3,161.9z M1094.1,166.2l8.3-8.7h-4.1l-6.8,7.8v-13.9h-2.9V175h2.9v-7.7l6.9,7.7h4L1094.1,166.2z
		 M1105.1,175h2.9v-17.5h-2.9V175z M1108,151.2c-0.4-0.4-0.8-0.6-1.4-0.6c-0.6,0-1,0.2-1.4,0.6c-0.4,0.4-0.6,0.9-0.6,1.4
		c0,0.6,0.2,1,0.6,1.4c0.4,0.4,0.9,0.6,1.4,0.6c0.5,0,1-0.2,1.4-0.6c0.4-0.4,0.6-0.9,0.6-1.4C1108.5,152,1108.3,151.6,1108,151.2z
		 M1124.8,172.8c0.5-0.8,0.8-1.6,0.8-2.6c0-1.1-0.3-1.9-0.9-2.6s-1.2-1.2-2-1.5c-0.8-0.3-1.8-0.7-3.1-1c-1-0.3-1.8-0.5-2.4-0.8
		s-1-0.5-1.4-0.9c-0.4-0.4-0.6-0.8-0.6-1.4c0-0.7,0.3-1.3,0.9-1.8c0.6-0.4,1.5-0.7,2.5-0.7c1.1,0,2,0.3,2.7,0.8s1,1.3,1.1,2.2h2.9
		c-0.1-1.7-0.7-3.1-1.9-4c-1.2-1-2.8-1.5-4.7-1.5c-1.3,0-2.4,0.2-3.4,0.7c-1,0.4-1.7,1-2.3,1.8c-0.5,0.7-0.8,1.6-0.8,2.5
		c0,1.1,0.3,2,0.9,2.7c0.6,0.7,1.3,1.2,2.1,1.6s1.9,0.7,3.2,1c1.4,0.4,2.5,0.7,3.2,1.1c0.7,0.4,1,0.9,1,1.7c0,0.7-0.3,1.4-1,1.9
		c-0.6,0.5-1.5,0.7-2.6,0.7c-1.2,0-2.2-0.3-2.9-0.8c-0.7-0.6-1.1-1.3-1.2-2.1h-3c0.1,1.1,0.4,2,1,2.8c0.6,0.8,1.5,1.5,2.5,1.9
		c1.1,0.5,2.3,0.7,3.6,0.7c1.3,0,2.4-0.2,3.3-0.7S1124.2,173.5,1124.8,172.8z M1132.1,157.8c-1,0.4-1.7,1-2.3,1.8
		c-0.5,0.7-0.8,1.6-0.8,2.5c0,1.1,0.3,2,0.9,2.7c0.6,0.7,1.3,1.2,2.1,1.6c0.8,0.4,1.9,0.7,3.2,1c1.4,0.4,2.5,0.7,3.2,1.1
		c0.7,0.4,1,0.9,1,1.7c0,0.7-0.3,1.4-1,1.9c-0.6,0.5-1.5,0.7-2.6,0.7c-1.2,0-2.2-0.3-2.9-0.8s-1.1-1.3-1.2-2.1h-3
		c0.1,1.1,0.4,2,1,2.8c0.6,0.8,1.5,1.5,2.5,1.9c1.1,0.5,2.3,0.7,3.6,0.7c1.3,0,2.4-0.2,3.3-0.7c1-0.4,1.7-1,2.3-1.8
		c0.5-0.8,0.8-1.6,0.8-2.6c0-1.1-0.3-1.9-0.9-2.6c-0.6-0.7-1.2-1.2-2-1.5c-0.8-0.3-1.8-0.7-3.1-1c-1-0.3-1.8-0.5-2.4-0.8
		c-0.6-0.2-1-0.5-1.4-0.9c-0.4-0.4-0.6-0.8-0.6-1.4c0-0.7,0.3-1.3,0.9-1.8c0.6-0.4,1.5-0.7,2.5-0.7c1.1,0,2,0.3,2.7,0.8
		s1,1.3,1.1,2.2h2.9c-0.1-1.7-0.7-3.1-1.9-4c-1.2-1-2.8-1.5-4.7-1.5C1134.2,157.1,1133.1,157.4,1132.1,157.8z M1158.9,169.5h3.1
		c-0.5,1.7-1.4,3.1-2.8,4.1c-1.4,1.1-3.2,1.6-5.2,1.6c-1.7,0-3.2-0.4-4.5-1.1c-1.3-0.7-2.3-1.8-3.1-3.2c-0.7-1.4-1.1-3-1.1-4.8
		c0-1.8,0.4-3.4,1.1-4.8c0.7-1.4,1.7-2.4,3.1-3.2c1.3-0.7,2.8-1.1,4.5-1.1c1.7,0,3.1,0.4,4.4,1.1s2.3,1.7,3,3c0.7,1.3,1,2.7,1,4.3
		c0,0.6,0,1.1-0.1,1.8h-14c0.1,1.7,0.7,3.1,1.8,4c1.1,1,2.4,1.5,3.9,1.5c1.3,0,2.3-0.3,3.2-0.9
		C1158,171.3,1158.6,170.5,1158.9,169.5z M1148.3,164.9h11.1c0-1.1-0.2-2.1-0.7-2.9c-0.5-0.8-1.2-1.4-2-1.8s-1.8-0.6-2.8-0.6
		c-1.5,0-2.7,0.5-3.8,1.4C1149,161.9,1148.5,163.2,1148.3,164.9z M1169.1,165.4c0-3.5,1.6-5.3,4.9-5.3h0.8v-3
		c-1.4,0-2.5,0.3-3.5,0.8s-1.7,1.3-2.2,2.3v-2.8h-2.9V175h2.9V165.4z M1089.8,252.5l-5.1-18.8h-3.3l-5.4,18.9l-4.9-18.9h-3.1
		l6.2,22.3l3.2,0l5.4-18l5.2,18h3.3l6.5-22.3h-3.1L1089.8,252.5z M1101.1,256h2.9v-17.5h-2.9V256z M1103.9,232.2
		c-0.4-0.4-0.8-0.6-1.4-0.6c-0.6,0-1,0.2-1.4,0.6c-0.4,0.4-0.6,0.9-0.6,1.4c0,0.6,0.2,1,0.6,1.4c0.4,0.4,0.9,0.6,1.4,0.6
		c0.5,0,1-0.2,1.4-0.6c0.4-0.4,0.6-0.9,0.6-1.4C1104.5,233,1104.3,232.6,1103.9,232.2z M1111.9,241.3v-2.8h-2.9V256h2.9v-9.5
		c0-3.5,1.6-5.3,4.9-5.3h0.8v-3c-1.4,0-2.5,0.3-3.5,0.8S1112.4,240.3,1111.9,241.3z M1136.8,248.3h-14c0.1,1.7,0.7,3.1,1.8,4
		s2.4,1.5,3.9,1.5c1.3,0,2.3-0.3,3.2-0.9c0.8-0.6,1.4-1.4,1.8-2.4h3.1c-0.5,1.7-1.4,3.1-2.8,4.1c-1.4,1.1-3.2,1.6-5.2,1.6
		c-1.7,0-3.2-0.4-4.5-1.1c-1.3-0.7-2.3-1.8-3.1-3.2s-1.1-3-1.1-4.8c0-1.8,0.4-3.4,1.1-4.8s1.7-2.4,3.1-3.2c1.3-0.7,2.8-1.1,4.5-1.1
		c1.7,0,3.1,0.4,4.4,1.1c1.3,0.7,2.3,1.7,3,3c0.7,1.3,1,2.7,1,4.3C1136.9,247.1,1136.8,247.7,1136.8,248.3z M1133.9,245.9
		c0-1.1-0.2-2.1-0.7-2.9c-0.5-0.8-1.2-1.4-2-1.8c-0.8-0.4-1.8-0.6-2.8-0.6c-1.5,0-2.7,0.5-3.8,1.4c-1,0.9-1.6,2.2-1.8,3.9H1133.9z
		 M1145,234.7c0.5-0.5,1.4-0.8,2.7-0.8v-2.4c-2.2,0-3.9,0.5-4.9,1.4c-1,0.9-1.5,2.3-1.5,4.3v1.2h-2.3v2.4h2.3V256h2.9v-15.1h3.7
		v-2.4h-3.7v-1.2C1144.2,236,1144.4,235.2,1145,234.7z M1151.2,238.4V256h2.9v-9.5c0-3.5,1.6-5.3,4.9-5.3h0.8v-3
		c-1.4,0-2.5,0.3-3.5,0.8s-1.7,1.3-2.2,2.3v-2.8H1151.2z M1176.9,238.4h2.9V256h-2.9v-3.3c-0.6,1-1.4,1.9-2.6,2.5
		c-1.1,0.7-2.5,1-4,1c-1.6,0-3-0.4-4.2-1.2c-1.3-0.8-2.3-1.8-3-3.2c-0.7-1.4-1.1-3-1.1-4.7c0-1.8,0.4-3.4,1.1-4.7
		c0.7-1.4,1.7-2.4,3-3.2c1.3-0.7,2.7-1.1,4.2-1.1c1.5,0,2.9,0.3,4,1c1.1,0.7,2,1.5,2.5,2.5V238.4z M1176.9,247.2
		c0-1.3-0.3-2.5-0.8-3.5c-0.5-1-1.3-1.7-2.2-2.3c-0.9-0.5-1.9-0.8-3-0.8s-2.1,0.3-3,0.8c-0.9,0.5-1.6,1.3-2.1,2.2
		c-0.5,1-0.8,2.1-0.8,3.5c0,1.3,0.3,2.5,0.8,3.5c0.5,1,1.2,1.7,2.1,2.3c0.9,0.5,1.9,0.8,3,0.8s2.1-0.3,3-0.8
		c0.9-0.5,1.6-1.3,2.2-2.3C1176.7,249.6,1176.9,248.5,1176.9,247.2z M1208.8,242c0.9,0.9,1.3,2.3,1.3,4v9.9h2.9v-10.3
		c0-1.6-0.3-3-0.9-4.1s-1.5-2-2.5-2.5c-1.1-0.6-2.3-0.8-3.6-0.8c-1.4,0-2.6,0.3-3.8,1c-1.1,0.7-1.9,1.6-2.4,2.9
		c-0.6-1.3-1.4-2.3-2.5-2.9s-2.4-1-3.9-1c-1.2,0-2.2,0.2-3.2,0.7c-1,0.5-1.7,1.2-2.3,2.1v-2.5h-2.9V256h2.9v-9.7
		c0-1.8,0.4-3.2,1.3-4.2c0.9-1,2.1-1.5,3.6-1.5c1.5,0,2.6,0.5,3.5,1.4c0.9,0.9,1.3,2.3,1.3,4v9.9h2.9v-9.7c0-1.8,0.4-3.2,1.3-4.2
		c0.9-1,2.1-1.5,3.6-1.5C1206.8,240.6,1208,241.1,1208.8,242z M1232.7,242.2c0.7,1.3,1,2.7,1,4.3c0,0.6,0,1.1-0.1,1.8h-14
		c0.1,1.7,0.7,3.1,1.8,4c1.1,1,2.4,1.5,3.9,1.5c1.3,0,2.3-0.3,3.2-0.9c0.8-0.6,1.4-1.4,1.8-2.4h3.1c-0.5,1.7-1.4,3.1-2.8,4.1
		c-1.4,1.1-3.2,1.6-5.2,1.6c-1.7,0-3.2-0.4-4.5-1.1c-1.3-0.7-2.3-1.8-3.1-3.2c-0.7-1.4-1.1-3-1.1-4.8c0-1.8,0.4-3.4,1.1-4.8
		c0.7-1.4,1.7-2.4,3.1-3.2c1.3-0.7,2.8-1.1,4.5-1.1c1.7,0,3.1,0.4,4.4,1.1S1232,240.9,1232.7,242.2z M1230.8,245.9
		c0-1.1-0.2-2.1-0.7-2.9c-0.5-0.8-1.2-1.4-2-1.8s-1.8-0.6-2.8-0.6c-1.5,0-2.7,0.5-3.8,1.4c-1,0.9-1.6,2.2-1.8,3.9H1230.8z
		 M1247.3,247.1c-0.8-0.3-1.8-0.7-3.1-1c-1-0.3-1.8-0.5-2.4-0.8s-1-0.5-1.4-0.9c-0.4-0.4-0.6-0.8-0.6-1.4c0-0.7,0.3-1.3,0.9-1.8
		c0.6-0.4,1.5-0.7,2.5-0.7c1.1,0,2,0.3,2.7,0.8s1,1.3,1.1,2.2h2.9c-0.1-1.7-0.7-3.1-1.9-4c-1.2-1-2.8-1.5-4.7-1.5
		c-1.3,0-2.4,0.2-3.4,0.7c-1,0.4-1.7,1-2.3,1.8c-0.5,0.7-0.8,1.6-0.8,2.5c0,1.1,0.3,2,0.9,2.7c0.6,0.7,1.3,1.2,2.1,1.6
		s1.9,0.7,3.2,1c1.4,0.4,2.5,0.7,3.2,1.1c0.7,0.4,1,0.9,1,1.7c0,0.7-0.3,1.4-1,1.9c-0.6,0.5-1.5,0.7-2.6,0.7c-1.2,0-2.2-0.3-2.9-0.8
		c-0.7-0.6-1.1-1.3-1.2-2.1h-3c0.1,1.1,0.4,2,1,2.8c0.6,0.8,1.5,1.5,2.5,1.9c1.1,0.5,2.3,0.7,3.6,0.7c1.3,0,2.4-0.2,3.3-0.7
		s1.7-1,2.3-1.8c0.5-0.8,0.8-1.6,0.8-2.6c0-1.1-0.3-1.9-0.9-2.6S1248.1,247.4,1247.3,247.1z M1082.8,316.5c1.3,1.2,2,2.8,2,4.7
		c0,1.9-0.6,3.4-1.9,4.6c-1.3,1.2-3.2,1.8-5.8,1.8h-4.3v9.3h-2.9v-22.3h7.2C1079.6,314.7,1081.5,315.3,1082.8,316.5z M1081.8,321.2
		c0-2.8-1.6-4.1-4.7-4.1h-4.3v8.2h4.3c1.6,0,2.8-0.4,3.6-1.1C1081.4,323.5,1081.8,322.5,1081.8,321.2z M1091.3,322.3v-2.8h-2.9V337
		h2.9v-9.5c0-3.5,1.6-5.3,4.9-5.3h0.8v-3c-1.4,0-2.5,0.3-3.5,0.8S1091.8,321.3,1091.3,322.3z M1115.8,323.4c0.8,1.4,1.2,3,1.2,4.8
		c0,1.8-0.4,3.4-1.2,4.8c-0.8,1.4-1.9,2.4-3.2,3.2c-1.4,0.7-2.9,1.1-4.5,1.1c-1.6,0-3.1-0.4-4.5-1.1c-1.3-0.7-2.4-1.8-3.1-3.2
		s-1.1-3-1.1-4.8c0-1.8,0.4-3.4,1.2-4.8c0.8-1.4,1.8-2.4,3.2-3.2c1.3-0.7,2.8-1.1,4.5-1.1s3.2,0.4,4.5,1.1
		C1114,321,1115,322,1115.8,323.4z M1114,328.2c0-1.4-0.3-2.6-0.8-3.6s-1.3-1.7-2.2-2.2s-1.9-0.7-2.9-0.7c-1.1,0-2,0.2-2.9,0.7
		c-0.9,0.5-1.6,1.2-2.1,2.2s-0.8,2.2-0.8,3.6c0,1.4,0.3,2.6,0.8,3.6c0.5,1,1.2,1.7,2.1,2.2c0.9,0.5,1.8,0.7,2.9,0.7
		c1,0,2-0.2,2.9-0.7c0.9-0.5,1.7-1.2,2.2-2.2C1113.7,330.8,1114,329.6,1114,328.2z M1124.4,315h-2.9v4.4h-2.3v2.4h2.3v10.3
		c0,1.7,0.4,2.9,1.2,3.7c0.8,0.7,2,1.1,3.6,1.1h2.6v-2.5h-2.1c-0.9,0-1.5-0.2-1.9-0.5c-0.4-0.4-0.5-1-0.5-1.8v-10.3h4.6v-2.4h-4.6
		V315z M1147.9,323.4c0.8,1.4,1.2,3,1.2,4.8c0,1.8-0.4,3.4-1.2,4.8c-0.8,1.4-1.9,2.4-3.2,3.2c-1.4,0.7-2.9,1.1-4.5,1.1
		c-1.6,0-3.1-0.4-4.5-1.1c-1.3-0.7-2.4-1.8-3.1-3.2c-0.8-1.4-1.1-3-1.1-4.8c0-1.8,0.4-3.4,1.2-4.8c0.8-1.4,1.8-2.4,3.2-3.2
		c1.3-0.7,2.8-1.1,4.5-1.1c1.7,0,3.2,0.4,4.5,1.1C1146.1,321,1147.2,322,1147.9,323.4z M1146.1,328.2c0-1.4-0.3-2.6-0.8-3.6
		s-1.3-1.7-2.2-2.2s-1.9-0.7-2.9-0.7c-1.1,0-2,0.2-2.9,0.7c-0.9,0.5-1.6,1.2-2.1,2.2s-0.8,2.2-0.8,3.6c0,1.4,0.3,2.6,0.8,3.6
		c0.5,1,1.2,1.7,2.1,2.2s1.8,0.7,2.9,0.7c1,0,2-0.2,2.9-0.7c0.9-0.5,1.7-1.2,2.2-2.2C1145.8,330.8,1146.1,329.6,1146.1,328.2z
		 M1156.5,315h-2.9v4.4h-2.3v2.4h2.3v10.3c0,1.7,0.4,2.9,1.2,3.7c0.8,0.7,2,1.1,3.6,1.1h2.6v-2.5h-2.1c-0.9,0-1.5-0.2-1.9-0.5
		c-0.4-0.4-0.5-1-0.5-1.8v-10.3h4.6v-2.4h-4.6V315z M1171.3,333.6l-5.5-14.2h-3.2l7.1,17.3l-3.5,8.4h3l10.6-25.8h-3L1171.3,333.6z
		 M1199.3,323.4c0.7,1.4,1.1,2.9,1.1,4.7c0,1.8-0.4,3.3-1.1,4.7c-0.7,1.4-1.7,2.5-3,3.2c-1.3,0.8-2.7,1.2-4.2,1.2
		c-1.5,0-2.8-0.3-4-1c-1.1-0.7-2-1.5-2.6-2.5v11.6h-2.9v-25.9h2.9v3.2c0.6-1,1.4-1.8,2.6-2.5c1.1-0.7,2.5-1,4-1c1.6,0,3,0.4,4.2,1.1
		C1197.6,321,1198.6,322.1,1199.3,323.4z M1197.4,328.1c0-1.3-0.3-2.5-0.8-3.5c-0.5-1-1.3-1.7-2.2-2.2c-0.9-0.5-1.9-0.8-3-0.8
		c-1.1,0-2.1,0.3-3,0.8c-0.9,0.5-1.6,1.3-2.2,2.3c-0.5,1-0.8,2.1-0.8,3.4c0,1.3,0.3,2.5,0.8,3.5c0.5,1,1.3,1.7,2.2,2.3
		c0.9,0.5,1.9,0.8,3,0.8c1.1,0,2.1-0.3,3-0.8c0.9-0.5,1.6-1.3,2.2-2.3C1197.2,330.6,1197.4,329.5,1197.4,328.1z M1219.2,323.2
		c0.7,1.3,1,2.7,1,4.3c0,0.6,0,1.1-0.1,1.8h-14c0.1,1.7,0.7,3.1,1.8,4c1.1,1,2.4,1.5,3.9,1.5c1.3,0,2.3-0.3,3.2-0.9
		c0.8-0.6,1.4-1.4,1.8-2.4h3.1c-0.5,1.7-1.4,3.1-2.8,4.1c-1.4,1.1-3.2,1.6-5.2,1.6c-1.7,0-3.2-0.4-4.5-1.1c-1.3-0.7-2.3-1.8-3.1-3.2
		s-1.1-3-1.1-4.8c0-1.8,0.4-3.4,1.1-4.8c0.7-1.4,1.7-2.4,3.1-3.2c1.3-0.7,2.8-1.1,4.5-1.1c1.7,0,3.1,0.4,4.4,1.1
		C1217.5,320.9,1218.5,321.9,1219.2,323.2z M1217.2,326.9c0-1.1-0.2-2.1-0.7-2.9c-0.5-0.8-1.2-1.4-2-1.8s-1.8-0.6-2.8-0.6
		c-1.5,0-2.7,0.5-3.8,1.4c-1,0.9-1.6,2.2-1.8,3.9H1217.2z M566.6,252.7h-8.3v-22.3h8c1.5,0,2.8,0.3,3.9,0.8c1.1,0.5,1.9,1.2,2.4,2
		c0.5,0.9,0.8,1.8,0.8,2.9c0,1.3-0.4,2.4-1.1,3.3c-0.7,0.9-1.7,1.5-2.8,1.9c0.8,0.1,1.6,0.5,2.2,1c0.7,0.5,1.2,1.2,1.6,2
		c0.4,0.8,0.6,1.6,0.6,2.5c0,1.1-0.3,2.1-0.9,3.1c-0.6,0.9-1.4,1.6-2.5,2.1C569.4,252.4,568.1,252.7,566.6,252.7z M561.2,240h4.9
		c1.4,0,2.4-0.3,3.2-1c0.7-0.6,1.1-1.5,1.1-2.7c0-1.1-0.4-2-1.1-2.7c-0.7-0.6-1.8-1-3.2-1h-4.8V240z M566.3,250.3
		c1.5,0,2.6-0.3,3.4-1c0.8-0.7,1.2-1.6,1.2-2.8c0-1.2-0.4-2.2-1.3-2.9c-0.9-0.7-2-1.1-3.4-1.1h-5.1v7.9H566.3z M580.8,243.2
		c0-3.5,1.6-5.3,4.9-5.3h0.8v-3c-1.4,0-2.5,0.3-3.5,0.8s-1.7,1.3-2.2,2.3v-2.8h-2.9v17.5h2.9V243.2z M605.4,235.2h-2.9v9.6
		c0,1.8-0.4,3.2-1.3,4.2s-2.1,1.4-3.7,1.4c-1.5,0-2.7-0.5-3.6-1.4c-0.9-0.9-1.3-2.3-1.3-4v-9.9h-2.9v10.3c0,1.6,0.3,3,0.9,4.1
		c0.6,1.1,1.5,2,2.6,2.5c1.1,0.6,2.3,0.8,3.7,0.8c1.2,0,2.3-0.3,3.3-0.8c1-0.5,1.8-1.2,2.3-2.1v2.6h2.9V235.2z M610.3,252.7h2.9V245
		l6.9,7.7h4l-8.3-8.8l8.3-8.7H620l-6.8,7.8V229h-2.9V252.7z M642.7,245h-14c0.1,1.7,0.7,3.1,1.8,4c1.1,1,2.4,1.5,3.9,1.5
		c1.3,0,2.3-0.3,3.2-0.9c0.8-0.6,1.4-1.4,1.8-2.4h3.1c-0.5,1.7-1.4,3.1-2.8,4.1c-1.4,1.1-3.2,1.6-5.2,1.6c-1.7,0-3.2-0.4-4.5-1.1
		c-1.3-0.7-2.3-1.8-3.1-3.2c-0.7-1.4-1.1-3-1.1-4.8c0-1.8,0.4-3.4,1.1-4.8c0.7-1.4,1.7-2.4,3.1-3.2c1.3-0.7,2.8-1.1,4.5-1.1
		c1.7,0,3.1,0.4,4.4,1.1c1.3,0.7,2.3,1.7,3,3c0.7,1.3,1,2.7,1,4.3C642.8,243.8,642.7,244.4,642.7,245z M639.8,242.7
		c0-1.1-0.2-2.1-0.7-2.9c-0.5-0.8-1.2-1.4-2-1.8c-0.8-0.4-1.8-0.6-2.8-0.6c-1.5,0-2.7,0.5-3.8,1.4c-1,0.9-1.6,2.2-1.8,3.9H639.8z
		 M649.5,243.2c0-3.5,1.6-5.3,4.9-5.3h0.8v-3c-1.4,0-2.5,0.3-3.5,0.8s-1.7,1.3-2.2,2.3v-2.8h-2.9v17.5h2.9V243.2z M667.4,249.8
		c-0.6,0.5-1.5,0.7-2.6,0.7c-1.2,0-2.2-0.3-2.9-0.8c-0.7-0.6-1.1-1.3-1.2-2.1h-3c0.1,1.1,0.4,2,1,2.8s1.5,1.5,2.5,1.9
		c1.1,0.5,2.3,0.7,3.6,0.7c1.3,0,2.4-0.2,3.3-0.7c1-0.4,1.7-1,2.3-1.8c0.5-0.8,0.8-1.6,0.8-2.6c0-1.1-0.3-1.9-0.9-2.6
		c-0.6-0.7-1.2-1.2-2-1.5c-0.8-0.3-1.8-0.7-3.1-1c-1-0.3-1.8-0.5-2.4-0.8c-0.6-0.2-1-0.5-1.4-0.9c-0.4-0.4-0.6-0.8-0.6-1.4
		c0-0.7,0.3-1.3,0.9-1.8c0.6-0.4,1.5-0.7,2.5-0.7c1.1,0,2,0.3,2.7,0.8s1,1.3,1.1,2.2h2.9c-0.1-1.7-0.7-3.1-1.9-4
		c-1.2-1-2.8-1.5-4.7-1.5c-1.3,0-2.4,0.2-3.4,0.7c-1,0.4-1.7,1-2.3,1.8c-0.5,0.7-0.8,1.6-0.8,2.5c0,1.1,0.3,2,0.9,2.7
		c0.6,0.7,1.3,1.2,2.1,1.6c0.8,0.4,1.9,0.7,3.2,1c1.4,0.4,2.5,0.7,3.2,1.1c0.7,0.4,1,0.9,1,1.7C668.3,248.7,668,249.3,667.4,249.8z
		 M674.2,243.9c0,1.8,0.4,3.4,1.1,4.8c0.7,1.4,1.7,2.4,3,3.2c1.3,0.7,2.8,1.1,4.4,1.1c2.1,0,3.9-0.5,5.3-1.6
		c1.4-1.1,2.3-2.5,2.8-4.3h-3.1c-0.3,1.1-0.9,2-1.8,2.6c-0.9,0.6-1.9,0.9-3.2,0.9c-1.7,0-3-0.6-4-1.7c-1-1.2-1.5-2.8-1.5-4.9
		c0-2.1,0.5-3.7,1.5-4.8c1-1.1,2.4-1.7,4-1.7c1.3,0,2.4,0.3,3.2,0.9c0.9,0.6,1.4,1.5,1.7,2.5h3.1c-0.4-1.9-1.4-3.3-2.8-4.4
		c-1.4-1-3.2-1.6-5.3-1.6c-1.7,0-3.1,0.4-4.4,1.1c-1.3,0.7-2.3,1.8-3,3.2C674.5,240.5,674.2,242.1,674.2,243.9z M697.7,236
		c1.3-0.7,2.8-1.1,4.5-1.1c1.7,0,3.1,0.4,4.4,1.1c1.3,0.7,2.3,1.7,3,3c0.7,1.3,1,2.7,1,4.3c0,0.6,0,1.1-0.1,1.8h-14
		c0.1,1.7,0.7,3.1,1.8,4c1.1,1,2.4,1.5,3.9,1.5c1.3,0,2.3-0.3,3.2-0.9c0.8-0.6,1.4-1.4,1.8-2.4h3.1c-0.5,1.7-1.4,3.1-2.8,4.1
		c-1.4,1.1-3.2,1.6-5.2,1.6c-1.7,0-3.2-0.4-4.5-1.1c-1.3-0.7-2.3-1.8-3.1-3.2c-0.7-1.4-1.1-3-1.1-4.8c0-1.8,0.4-3.4,1.1-4.8
		C695.4,237.8,696.4,236.7,697.7,236z M698.4,238.8c-1,0.9-1.6,2.2-1.8,3.9h11.1c0-1.1-0.2-2.1-0.7-2.9c-0.5-0.8-1.2-1.4-2-1.8
		c-0.8-0.4-1.8-0.6-2.8-0.6C700.7,237.3,699.4,237.8,698.4,238.8z M723.1,234.8c-1.2,0-2.3,0.2-3.3,0.7c-1,0.5-1.8,1.2-2.4,2.1v-2.5
		h-2.9v17.5h2.9V243c0-1.8,0.5-3.2,1.4-4.2s2.1-1.4,3.7-1.4c1.5,0,2.7,0.5,3.6,1.4c0.9,0.9,1.3,2.3,1.3,4v9.9h2.9v-10.3
		c0-2.4-0.7-4.3-2-5.6C726.9,235.5,725.2,234.8,723.1,234.8z M735,248.6c-0.7-1.4-1.1-3-1.1-4.7c0-1.8,0.4-3.4,1.1-4.7
		c0.7-1.4,1.7-2.4,3-3.2c1.3-0.7,2.7-1.1,4.2-1.1c1.5,0,2.9,0.3,4,1c1.1,0.7,2,1.5,2.5,2.5v-3.2h2.9v17.5h-2.9v-3.3
		c-0.6,1-1.4,1.9-2.6,2.5c-1.1,0.7-2.5,1-4,1c-1.6,0-3-0.4-4.2-1.2C736.7,251.1,735.7,250,735,248.6z M736.9,243.9
		c0,1.3,0.3,2.5,0.8,3.5c0.5,1,1.2,1.7,2.1,2.3c0.9,0.5,1.9,0.8,3,0.8s2.1-0.3,3-0.8c0.9-0.5,1.6-1.3,2.2-2.3c0.5-1,0.8-2.1,0.8-3.5
		s-0.3-2.5-0.8-3.5c-0.5-1-1.3-1.7-2.2-2.3c-0.9-0.5-1.9-0.8-3-0.8s-2.1,0.3-3,0.8c-0.9,0.5-1.6,1.3-2.1,2.2
		C737.2,241.4,736.9,242.5,736.9,243.9z M756.6,235.2v17.5h2.9v-9.5c0-3.5,1.6-5.3,4.9-5.3h0.8v-3c-1.4,0-2.5,0.3-3.5,0.8
		s-1.7,1.3-2.2,2.3v-2.8H756.6z M770.1,232.3c0.5,0,1-0.2,1.4-0.6c0.4-0.4,0.6-0.9,0.6-1.4c0-0.6-0.2-1-0.6-1.4
		c-0.4-0.4-0.8-0.6-1.4-0.6c-0.6,0-1,0.2-1.4,0.6c-0.4,0.4-0.6,0.9-0.6,1.4c0,0.6,0.2,1,0.6,1.4
		C769.1,232.1,769.5,232.3,770.1,232.3z M771.5,235.2h-2.9v17.5h2.9V235.2z M791.9,239.1c0.8,1.4,1.2,3,1.2,4.8
		c0,1.8-0.4,3.4-1.2,4.8c-0.8,1.4-1.9,2.4-3.2,3.2c-1.4,0.7-2.9,1.1-4.5,1.1c-1.6,0-3.1-0.4-4.5-1.1c-1.3-0.7-2.4-1.8-3.1-3.2
		c-0.8-1.4-1.1-3-1.1-4.8c0-1.8,0.4-3.4,1.2-4.8c0.8-1.4,1.8-2.4,3.2-3.2c1.3-0.7,2.8-1.1,4.5-1.1c1.7,0,3.2,0.4,4.5,1.1
		C790.1,236.7,791.1,237.8,791.9,239.1z M790.1,243.9c0-1.4-0.3-2.6-0.8-3.6s-1.3-1.7-2.2-2.2s-1.9-0.7-2.9-0.7
		c-1.1,0-2,0.2-2.9,0.7s-1.6,1.2-2.1,2.2s-0.8,2.2-0.8,3.6c0,1.4,0.3,2.6,0.8,3.6c0.5,1,1.2,1.7,2.1,2.2c0.9,0.5,1.8,0.7,2.9,0.7
		s2-0.2,2.9-0.7c0.9-0.5,1.7-1.2,2.2-2.2C789.8,246.5,790.1,245.3,790.1,243.9z M811.9,239c0.7,1.3,1,2.7,1,4.3c0,0.6,0,1.1-0.1,1.8
		h-14c0.1,1.7,0.7,3.1,1.8,4c1.1,1,2.4,1.5,3.9,1.5c1.3,0,2.3-0.3,3.2-0.9c0.8-0.6,1.4-1.4,1.8-2.4h3.1c-0.5,1.7-1.4,3.1-2.8,4.1
		c-1.4,1.1-3.2,1.6-5.2,1.6c-1.7,0-3.2-0.4-4.5-1.1c-1.3-0.7-2.3-1.8-3.1-3.2c-0.7-1.4-1.1-3-1.1-4.8c0-1.8,0.4-3.4,1.1-4.8
		c0.7-1.4,1.7-2.4,3.1-3.2c1.3-0.7,2.8-1.1,4.5-1.1c1.7,0,3.1,0.4,4.4,1.1C810.2,236.7,811.2,237.7,811.9,239z M809.9,242.7
		c0-1.1-0.2-2.1-0.7-2.9c-0.5-0.8-1.2-1.4-2-1.8c-0.8-0.4-1.8-0.6-2.8-0.6c-1.5,0-2.7,0.5-3.8,1.4c-1,0.9-1.6,2.2-1.8,3.9H809.9z
		 M819.7,238v-2.8h-2.9v17.5h2.9v-9.5c0-3.5,1.6-5.3,4.9-5.3h0.8v-3c-1.4,0-2.5,0.3-3.5,0.8S820.2,237,819.7,238z M572.3,396.8v-2.4
		h-12v22.3h12v-2.4h-9.1v-7.7h8.1v-2.4h-8.1v-7.5H572.3z M584.8,401.6v-2.4h-4.6v-4.4h-2.9v4.4h-2.3v2.4h2.3v10.3
		c0,1.7,0.4,2.9,1.2,3.7c0.8,0.7,2,1.1,3.6,1.1h2.6v-2.5h-2.1c-0.9,0-1.5-0.2-1.9-0.5c-0.4-0.4-0.5-1-0.5-1.8v-10.3H584.8z
		 M602.1,416.7v-3.3c-0.6,1-1.4,1.9-2.6,2.5c-1.1,0.7-2.5,1-4,1c-1.6,0-3-0.4-4.2-1.2c-1.3-0.8-2.3-1.8-3-3.2
		c-0.7-1.4-1.1-3-1.1-4.7c0-1.8,0.4-3.4,1.1-4.7c0.7-1.4,1.7-2.4,3-3.2c1.3-0.7,2.7-1.1,4.2-1.1c1.5,0,2.9,0.3,4,1
		c1.1,0.7,2,1.5,2.5,2.5v-3.2h2.9v17.5H602.1z M602.1,407.9c0-1.3-0.3-2.5-0.8-3.5c-0.5-1-1.3-1.7-2.2-2.3c-0.9-0.5-1.9-0.8-3-0.8
		s-2.1,0.3-3,0.8c-0.9,0.5-1.6,1.3-2.1,2.2c-0.5,1-0.8,2.1-0.8,3.5c0,1.3,0.3,2.5,0.8,3.5c0.5,1,1.2,1.7,2.1,2.3
		c0.9,0.5,1.9,0.8,3,0.8s2.1-0.3,3-0.8c0.9-0.5,1.6-1.3,2.2-2.3C601.8,410.4,602.1,409.2,602.1,407.9z M612.9,416.7H610V393h2.9v9.4
		c0.6-1,1.5-1.9,2.6-2.6c1.2-0.7,2.5-1,3.9-1c1.6,0,3,0.4,4.3,1.1c1.3,0.7,2.3,1.8,3,3.2c0.7,1.4,1.1,2.9,1.1,4.7
		c0,1.8-0.4,3.3-1.1,4.7c-0.7,1.4-1.7,2.5-3,3.2c-1.3,0.8-2.7,1.2-4.2,1.2c-1.5,0-2.8-0.3-4-1c-1.1-0.7-2-1.5-2.6-2.5V416.7z
		 M612.9,407.9c0,1.3,0.3,2.5,0.8,3.5c0.5,1,1.3,1.7,2.2,2.3c0.9,0.5,1.9,0.8,3,0.8c1.1,0,2.1-0.3,3-0.8c0.9-0.5,1.6-1.3,2.2-2.3
		c0.5-1,0.8-2.2,0.8-3.5c0-1.3-0.3-2.5-0.8-3.5c-0.5-1-1.3-1.7-2.2-2.2c-0.9-0.5-1.9-0.8-3-0.8c-1.1,0-2.1,0.3-3,0.8
		c-0.9,0.5-1.6,1.3-2.2,2.3C613.1,405.5,612.9,406.6,612.9,407.9z M631.6,416.7h2.9V393h-2.9V416.7z M655.4,409h-14
		c0.1,1.7,0.7,3.1,1.8,4c1.1,1,2.4,1.5,3.9,1.5c1.3,0,2.3-0.3,3.2-0.9c0.8-0.6,1.4-1.4,1.8-2.4h3.1c-0.5,1.7-1.4,3.1-2.8,4.1
		c-1.4,1.1-3.2,1.6-5.2,1.6c-1.7,0-3.2-0.4-4.5-1.1c-1.3-0.7-2.3-1.8-3.1-3.2c-0.7-1.4-1.1-3-1.1-4.8c0-1.8,0.4-3.4,1.1-4.8
		c0.7-1.4,1.7-2.4,3.1-3.2c1.3-0.7,2.8-1.1,4.5-1.1c1.7,0,3.1,0.4,4.4,1.1c1.3,0.7,2.3,1.7,3,3c0.7,1.3,1,2.7,1,4.3
		C655.5,407.8,655.4,408.4,655.4,409z M652.5,406.7c0-1.1-0.2-2.1-0.7-2.9c-0.5-0.8-1.2-1.4-2-1.8c-0.8-0.4-1.8-0.6-2.8-0.6
		c-1.5,0-2.7,0.5-3.8,1.4c-1,0.9-1.6,2.2-1.8,3.9H652.5z M662.2,407.2c0-3.5,1.6-5.3,4.9-5.3h0.8v-3c-1.4,0-2.5,0.3-3.5,0.8
		s-1.7,1.3-2.2,2.3v-2.8h-2.9v17.5h2.9V407.2z M692.5,416.7h2.9V407c0-1.8,0.4-3.2,1.3-4.2c0.9-1,2.1-1.5,3.6-1.5
		c1.5,0,2.6,0.5,3.5,1.4c0.9,0.9,1.3,2.3,1.3,4v9.9h2.9v-10.3c0-1.6-0.3-3-0.9-4.1c-0.6-1.1-1.5-2-2.5-2.5c-1.1-0.6-2.3-0.8-3.6-0.8
		c-1.4,0-2.6,0.3-3.8,1c-1.1,0.7-1.9,1.6-2.4,2.9c-0.6-1.3-1.4-2.3-2.5-2.9c-1.1-0.7-2.4-1-3.9-1c-1.2,0-2.2,0.2-3.2,0.7
		c-1,0.5-1.7,1.2-2.3,2.1v-2.5h-2.9v17.5h2.9V407c0-1.8,0.4-3.2,1.3-4.2c0.9-1,2.1-1.5,3.6-1.5c1.5,0,2.6,0.5,3.5,1.4
		c0.9,0.9,1.3,2.3,1.3,4V416.7z M725.4,408.8c0,1.8-0.4,3.2-1.3,4.2s-2.1,1.4-3.7,1.4c-1.5,0-2.7-0.5-3.6-1.4
		c-0.9-0.9-1.3-2.3-1.3-4v-9.9h-2.9v10.3c0,1.6,0.3,3,0.9,4.1c0.6,1.1,1.5,2,2.6,2.5c1.1,0.6,2.3,0.8,3.7,0.8c1.2,0,2.3-0.3,3.3-0.8
		c1-0.5,1.8-1.2,2.3-2.1v2.6h2.9v-17.5h-2.9V408.8z M733.2,416.7h2.9V393h-2.9V416.7z M744,392.9c-0.4-0.4-0.8-0.6-1.4-0.6
		c-0.6,0-1,0.2-1.4,0.6c-0.4,0.4-0.6,0.9-0.6,1.4c0,0.6,0.2,1,0.6,1.4c0.4,0.4,0.9,0.6,1.4,0.6c0.5,0,1-0.2,1.4-0.6
		c0.4-0.4,0.6-0.9,0.6-1.4C744.5,393.8,744.3,393.3,744,392.9z M741.1,416.7h2.9v-17.5h-2.9V416.7z M762.7,399.2h2.9v17.9
		c0,1.6-0.3,3-1,4.3c-0.7,1.2-1.7,2.2-2.9,2.9c-1.3,0.7-2.7,1.1-4.4,1.1c-2.3,0-4.2-0.5-5.8-1.6c-1.5-1.1-2.4-2.6-2.7-4.4h2.9
		c0.3,1.1,1,1.9,2,2.6c1,0.7,2.2,1,3.6,1c1.6,0,2.9-0.5,3.9-1.5c1-1,1.5-2.4,1.5-4.2v-3.7c-0.6,1-1.4,1.9-2.6,2.6
		c-1.1,0.7-2.5,1-4,1c-1.6,0-3-0.4-4.2-1.2c-1.3-0.8-2.3-1.8-3-3.2c-0.7-1.4-1.1-3-1.1-4.7c0-1.8,0.4-3.4,1.1-4.7
		c0.7-1.4,1.7-2.4,3-3.2c1.3-0.7,2.7-1.1,4.2-1.1c1.5,0,2.8,0.3,4,1c1.1,0.7,2,1.5,2.5,2.5V399.2z M762.7,407.9
		c0-1.3-0.3-2.5-0.8-3.5c-0.5-1-1.3-1.7-2.2-2.3c-0.9-0.5-1.9-0.8-3-0.8s-2.1,0.3-3,0.8c-0.9,0.5-1.6,1.3-2.1,2.2
		c-0.5,1-0.8,2.1-0.8,3.5c0,1.3,0.3,2.5,0.8,3.5c0.5,1,1.2,1.7,2.1,2.3c0.9,0.5,1.9,0.8,3,0.8s2.1-0.3,3-0.8
		c0.9-0.5,1.6-1.3,2.2-2.3C762.5,410.4,762.7,409.2,762.7,407.9z M785.6,403c0.7,1.3,1,2.7,1,4.3c0,0.6,0,1.1-0.1,1.8h-14
		c0.1,1.7,0.7,3.1,1.8,4c1.1,1,2.4,1.5,3.9,1.5c1.3,0,2.3-0.3,3.2-0.9c0.8-0.6,1.4-1.4,1.8-2.4h3.1c-0.5,1.7-1.4,3.1-2.8,4.1
		c-1.4,1.1-3.2,1.6-5.2,1.6c-1.7,0-3.2-0.4-4.5-1.1c-1.3-0.7-2.3-1.8-3.1-3.2c-0.7-1.4-1.1-3-1.1-4.8c0-1.8,0.4-3.4,1.1-4.8
		c0.7-1.4,1.7-2.4,3.1-3.2c1.3-0.7,2.8-1.1,4.5-1.1c1.7,0,3.1,0.4,4.4,1.1C783.9,400.7,784.9,401.7,785.6,403z M783.6,406.7
		c0-1.1-0.2-2.1-0.7-2.9c-0.5-0.8-1.2-1.4-2-1.8c-0.8-0.4-1.8-0.6-2.8-0.6c-1.5,0-2.7,0.5-3.8,1.4c-1,0.9-1.6,2.2-1.8,3.9H783.6z
		 M560.8,455.1h2.9V440h3.7v-2.4h-3.7v-1.2c0-1.2,0.3-2,0.8-2.5c0.5-0.5,1.4-0.8,2.7-0.8v-2.4c-2.2,0-3.9,0.5-4.9,1.4
		s-1.5,2.3-1.5,4.3v1.2h-2.3v2.4h2.3V455.1z M583.4,452.5v2.6h2.9v-17.5h-2.9v9.6c0,1.8-0.4,3.2-1.3,4.2s-2.1,1.4-3.7,1.4
		c-1.5,0-2.7-0.5-3.6-1.4c-0.9-0.9-1.3-2.3-1.3-4v-9.9h-2.9v10.3c0,1.6,0.3,3,0.9,4.1c0.6,1.1,1.5,2,2.6,2.5
		c1.1,0.6,2.3,0.8,3.7,0.8c1.2,0,2.3-0.3,3.3-0.8C582.1,454.1,582.9,453.4,583.4,452.5z M604.1,445.2v9.9h2.9v-10.3
		c0-2.4-0.7-4.3-2-5.6c-1.3-1.3-3.1-1.9-5.2-1.9c-1.2,0-2.3,0.2-3.3,0.7c-1,0.5-1.8,1.2-2.4,2.1v-2.5h-2.9v17.5h2.9v-9.7
		c0-1.8,0.5-3.2,1.4-4.2s2.1-1.4,3.7-1.4c1.5,0,2.7,0.5,3.6,1.4C603.7,442.1,604.1,443.4,604.1,445.2z M614.7,447.4l6.9,7.7h4
		l-8.3-8.8l8.3-8.7h-4.1l-6.8,7.8v-13.9h-2.9v23.7h2.9V447.4z M637.9,446.3c-0.8-0.3-1.8-0.7-3.1-1c-1-0.3-1.8-0.5-2.4-0.8
		c-0.6-0.2-1-0.5-1.4-0.9c-0.4-0.4-0.6-0.8-0.6-1.4c0-0.7,0.3-1.3,0.9-1.8c0.6-0.4,1.5-0.7,2.5-0.7c1.1,0,2,0.3,2.7,0.8
		s1,1.3,1.1,2.2h2.9c-0.1-1.7-0.7-3.1-1.9-4c-1.2-1-2.8-1.5-4.7-1.5c-1.3,0-2.4,0.2-3.4,0.7c-1,0.4-1.7,1-2.3,1.8
		c-0.5,0.7-0.8,1.6-0.8,2.5c0,1.1,0.3,2,0.9,2.7c0.6,0.7,1.3,1.2,2.1,1.6c0.8,0.4,1.9,0.7,3.2,1c1.4,0.4,2.5,0.7,3.2,1.1
		c0.7,0.4,1,0.9,1,1.7c0,0.7-0.3,1.4-1,1.9c-0.6,0.5-1.5,0.7-2.6,0.7c-1.2,0-2.2-0.3-2.9-0.8c-0.7-0.6-1.1-1.3-1.2-2.1h-3
		c0.1,1.1,0.4,2,1,2.8s1.5,1.5,2.5,1.9c1.1,0.5,2.3,0.7,3.6,0.7c1.3,0,2.4-0.2,3.3-0.7c1-0.4,1.7-1,2.3-1.8c0.5-0.8,0.8-1.6,0.8-2.6
		c0-1.1-0.3-1.9-0.9-2.6C639.4,447.1,638.7,446.6,637.9,446.3z M646.5,430.8c-0.6,0-1,0.2-1.4,0.6c-0.4,0.4-0.6,0.9-0.6,1.4
		c0,0.6,0.2,1,0.6,1.4c0.4,0.4,0.8,0.6,1.4,0.6c0.6,0,1-0.2,1.4-0.6c0.4-0.4,0.6-0.9,0.6-1.4c0-0.6-0.2-1-0.6-1.4
		C647.5,430.9,647.1,430.8,646.5,430.8z M645,458.8c0,0.8-0.2,1.3-0.5,1.6c-0.3,0.3-0.9,0.5-1.7,0.5h-1.2v2.5h1.7
		c1.5,0,2.7-0.4,3.5-1.1c0.8-0.7,1.2-1.9,1.2-3.4v-21.3H645V458.8z M668.3,441.5c0.8,1.4,1.2,3,1.2,4.8c0,1.8-0.4,3.4-1.2,4.8
		c-0.8,1.4-1.9,2.4-3.2,3.2c-1.4,0.7-2.9,1.1-4.5,1.1c-1.6,0-3.1-0.4-4.5-1.1c-1.3-0.7-2.4-1.8-3.1-3.2c-0.8-1.4-1.1-3-1.1-4.8
		c0-1.8,0.4-3.4,1.2-4.8c0.8-1.4,1.8-2.4,3.2-3.2c1.3-0.7,2.8-1.1,4.5-1.1c1.7,0,3.2,0.4,4.5,1.1
		C666.5,439.1,667.6,440.2,668.3,441.5z M666.5,446.3c0-1.4-0.3-2.6-0.8-3.6s-1.3-1.7-2.2-2.2s-1.9-0.7-2.9-0.7
		c-1.1,0-2,0.2-2.9,0.7s-1.6,1.2-2.1,2.2s-0.8,2.2-0.8,3.6c0,1.4,0.3,2.6,0.8,3.6c0.5,1,1.2,1.7,2.1,2.2c0.9,0.5,1.8,0.7,2.9,0.7
		s2-0.2,2.9-0.7c0.9-0.5,1.7-1.2,2.2-2.2C666.3,448.9,666.5,447.7,666.5,446.3z M681.9,437.2c-1.2,0-2.3,0.2-3.3,0.7
		c-1,0.5-1.8,1.2-2.4,2.1v-2.5h-2.9v17.5h2.9v-9.7c0-1.8,0.5-3.2,1.4-4.2s2.1-1.4,3.7-1.4c1.5,0,2.7,0.5,3.6,1.4
		c0.9,0.9,1.3,2.3,1.3,4v9.9h2.9v-10.3c0-2.4-0.7-4.3-2-5.6C685.8,437.9,684,437.2,681.9,437.2z M706.7,453.8
		c-1.4,1.1-3.2,1.6-5.2,1.6c-1.7,0-3.2-0.4-4.5-1.1c-1.3-0.7-2.3-1.8-3.1-3.2c-0.7-1.4-1.1-3-1.1-4.8c0-1.8,0.4-3.4,1.1-4.8
		c0.7-1.4,1.7-2.4,3.1-3.2c1.3-0.7,2.8-1.1,4.5-1.1c1.7,0,3.1,0.4,4.4,1.1c1.3,0.7,2.3,1.7,3,3c0.7,1.3,1,2.7,1,4.3
		c0,0.6,0,1.1-0.1,1.8h-14c0.1,1.7,0.7,3.1,1.8,4c1.1,1,2.4,1.5,3.9,1.5c1.3,0,2.3-0.3,3.2-0.9c0.8-0.6,1.4-1.4,1.8-2.4h3.1
		C709,451.4,708.1,452.8,706.7,453.8z M695.8,445.1h11.1c0-1.1-0.2-2.1-0.7-2.9c-0.5-0.8-1.2-1.4-2-1.8c-0.8-0.4-1.8-0.6-2.8-0.6
		c-1.5,0-2.7,0.5-3.8,1.4C696.5,442.1,695.9,443.4,695.8,445.1z M713.7,437.6v17.5h2.9v-9.5c0-3.5,1.6-5.3,4.9-5.3h0.8v-3
		c-1.4,0-2.5,0.3-3.5,0.8s-1.7,1.3-2.2,2.3v-2.8H713.7z M535.8,7.7c1,1.7,1.5,3.7,1.5,5.9c0,2.3-0.5,4.2-1.5,5.9
		c-1,1.7-2.3,2.9-4.1,3.8c-1.8,0.9-3.9,1.3-6.2,1.3h-7.3V2.5h7.3c2.4,0,4.4,0.5,6.2,1.4C533.5,4.7,534.9,6,535.8,7.7z M533.5,13.7
		c0-2.6-0.7-4.6-2.1-6s-3.4-2.2-6-2.2h-3.6v16.3h3.6c2.6,0,4.6-0.7,6-2.1C532.8,18.2,533.5,16.2,533.5,13.7z M556,10.9
		c0.7,1.3,1.1,2.8,1.1,4.5c0,0.7,0,1.3-0.1,1.8h-13.5c0.1,1.4,0.6,2.5,1.6,3.4c0.9,0.9,2.1,1.3,3.5,1.3c2,0,3.3-0.8,4.2-2.5h3.9
		c-0.5,1.6-1.5,2.9-2.9,4c-1.4,1-3.1,1.6-5.2,1.6c-1.7,0-3.2-0.4-4.5-1.1c-1.3-0.8-2.4-1.8-3.1-3.2s-1.1-3-1.1-4.8
		c0-1.8,0.4-3.4,1.1-4.8c0.7-1.4,1.8-2.4,3.1-3.2c1.3-0.7,2.9-1.1,4.6-1.1c1.7,0,3.1,0.4,4.4,1.1C554.2,8.6,555.2,9.6,556,10.9z
		 M553.2,14.3c0-1.3-0.5-2.4-1.4-3.2c-0.9-0.8-2.1-1.2-3.5-1.2c-1.3,0-2.3,0.4-3.2,1.2c-0.9,0.8-1.4,1.9-1.6,3.2H553.2z M561.1,24.7
		h3.7V10h3.3v-3h-3.3V5.8c0-1,0.2-1.7,0.7-2.2c0.4-0.4,1.2-0.6,2.3-0.6V0c-2.3,0-4,0.5-5.1,1.4s-1.6,2.4-1.6,4.4v1.2H559v3h2.1V24.7
		z M573.1,4.7c0.6,0,1.2-0.2,1.6-0.7c0.4-0.4,0.7-1,0.7-1.7c0-0.7-0.2-1.2-0.7-1.7c-0.4-0.4-1-0.7-1.6-0.7c-0.7,0-1.2,0.2-1.7,0.7
		c-0.4,0.4-0.7,1-0.7,1.7c0,0.7,0.2,1.2,0.7,1.7C571.9,4.5,572.5,4.7,573.1,4.7z M571.3,24.7h3.6V7.1h-3.6V24.7z M583.4,14.8
		c0-1.6,0.4-2.8,1.2-3.6s1.9-1.3,3.2-1.3c1.4,0,2.4,0.4,3.2,1.3c0.8,0.8,1.2,2.1,1.2,3.6v9.9h3.6V14.3c0-1.6-0.3-3-0.9-4.1
		c-0.6-1.1-1.5-2-2.6-2.6c-1.1-0.6-2.3-0.9-3.7-0.9c-1,0-2,0.2-3,0.6c-0.9,0.4-1.7,1-2.3,1.7v-2h-3.6v17.6h3.6V14.8z M600.4,20.7
		c-0.8-1.4-1.1-3-1.1-4.8c0-1.8,0.4-3.4,1.1-4.8c0.7-1.4,1.8-2.4,3.1-3.2c1.3-0.7,2.9-1.1,4.6-1.1c1.7,0,3.1,0.4,4.4,1.1
		c1.3,0.7,2.3,1.7,3,3.1c0.7,1.3,1.1,2.8,1.1,4.5c0,0.7,0,1.3-0.1,1.8H603c0.1,1.4,0.6,2.5,1.6,3.4c0.9,0.9,2.1,1.3,3.5,1.3
		c2,0,3.3-0.8,4.2-2.5h3.9c-0.5,1.6-1.5,2.9-2.9,4c-1.4,1-3.1,1.6-5.2,1.6c-1.7,0-3.2-0.4-4.5-1.1C602.2,23.1,601.2,22,600.4,20.7z
		 M603.1,14.3h9.8c0-1.3-0.5-2.4-1.4-3.2c-0.9-0.8-2.1-1.2-3.5-1.2c-1.3,0-2.3,0.4-3.2,1.2C603.8,11.9,603.2,12.9,603.1,14.3z
		 M623.9,15.4c0-1.8,0.4-3.1,1.1-3.8c0.7-0.7,1.8-1.1,3.2-1.1h0.9V6.8c-1.2,0-2.3,0.3-3.2,0.8c-0.9,0.5-1.6,1.2-2.1,2.1V7.1h-3.6
		v17.6h3.6V15.4z M560.3,149.4h8c1.5,0,2.8,0.3,3.9,0.8c1.1,0.5,1.9,1.2,2.4,2c0.5,0.9,0.8,1.8,0.8,2.9c0,1.3-0.4,2.4-1.1,3.3
		c-0.7,0.9-1.7,1.5-2.8,1.9c0.8,0.1,1.6,0.5,2.2,1c0.7,0.5,1.2,1.2,1.6,2c0.4,0.8,0.6,1.6,0.6,2.5c0,1.1-0.3,2.1-0.9,3.1
		c-0.6,0.9-1.4,1.6-2.5,2.1c-1.1,0.5-2.4,0.8-3.9,0.8h-8.3V149.4z M563.2,159h4.9c1.4,0,2.4-0.3,3.2-1c0.7-0.6,1.1-1.5,1.1-2.7
		c0-1.1-0.4-2-1.1-2.7c-0.7-0.6-1.8-1-3.2-1h-4.8V159z M563.2,169.3h5.2c1.5,0,2.6-0.3,3.4-1c0.8-0.7,1.2-1.6,1.2-2.8
		c0-1.2-0.4-2.2-1.3-2.9c-0.9-0.7-2-1.1-3.4-1.1h-5.1V169.3z M579.9,154.2v17.5h2.9v-9.5c0-3.5,1.6-5.3,4.9-5.3h0.8v-3
		c-1.4,0-2.5,0.3-3.5,0.8s-1.7,1.3-2.2,2.3v-2.8H579.9z M594.5,154.2h-2.9v10.3c0,1.6,0.3,3,0.9,4.1c0.6,1.1,1.5,2,2.6,2.5
		c1.1,0.6,2.3,0.8,3.7,0.8c1.2,0,2.3-0.3,3.3-0.8c1-0.5,1.8-1.2,2.3-2.1v2.6h2.9v-17.5h-2.9v9.6c0,1.8-0.4,3.2-1.3,4.2
		s-2.1,1.4-3.7,1.4c-1.5,0-2.7-0.5-3.6-1.4c-0.9-0.9-1.3-2.3-1.3-4V154.2z M612.3,148v23.7h2.9V164l6.9,7.7h4l-8.3-8.8l8.3-8.7H622
		l-6.8,7.8V148H612.3z M628.8,158.1c0.7-1.4,1.7-2.4,3.1-3.2c1.3-0.7,2.8-1.1,4.5-1.1c1.7,0,3.1,0.4,4.4,1.1c1.3,0.7,2.3,1.7,3,3
		c0.7,1.3,1,2.7,1,4.3c0,0.6,0,1.1-0.1,1.8h-14c0.1,1.7,0.7,3.1,1.8,4c1.1,1,2.4,1.5,3.9,1.5c1.3,0,2.3-0.3,3.2-0.9
		c0.8-0.6,1.4-1.4,1.8-2.4h3.1c-0.5,1.7-1.4,3.1-2.8,4.1c-1.4,1.1-3.2,1.6-5.2,1.6c-1.7,0-3.2-0.4-4.5-1.1c-1.3-0.7-2.3-1.8-3.1-3.2
		c-0.7-1.4-1.1-3-1.1-4.8C627.7,161.1,628.1,159.5,628.8,158.1z M630.7,161.7h11.1c0-1.1-0.2-2.1-0.7-2.9c-0.5-0.8-1.2-1.4-2-1.8
		c-0.8-0.4-1.8-0.6-2.8-0.6c-1.5,0-2.7,0.5-3.8,1.4C631.4,158.7,630.9,160,630.7,161.7z M651.5,162.2c0-3.5,1.6-5.3,4.9-5.3h0.8v-3
		c-1.4,0-2.5,0.3-3.5,0.8s-1.7,1.3-2.2,2.3v-2.8h-2.9v17.5h2.9V162.2z M663.5,162c0-1.8,0.5-3.2,1.4-4.2s2.1-1.4,3.7-1.4
		c1.5,0,2.7,0.5,3.6,1.4c0.9,0.9,1.3,2.3,1.3,4v9.9h2.9v-10.3c0-1.6-0.3-3-0.9-4.1c-0.6-1.1-1.4-2-2.5-2.5c-1.1-0.6-2.3-0.8-3.6-0.8
		c-1.3,0-2.4,0.2-3.4,0.7c-1,0.5-1.8,1.2-2.4,2.1V148h-2.9v23.7h2.9V162z M682.5,151.3c0.5,0,1-0.2,1.4-0.6c0.4-0.4,0.6-0.9,0.6-1.4
		c0-0.6-0.2-1-0.6-1.4c-0.4-0.4-0.8-0.6-1.4-0.6c-0.6,0-1,0.2-1.4,0.6c-0.4,0.4-0.6,0.9-0.6,1.4c0,0.6,0.2,1,0.6,1.4
		C681.5,151.1,682,151.3,682.5,151.3z M681,171.7h2.9v-17.5H681V171.7z M697.7,168.8c-0.6,0.5-1.5,0.7-2.6,0.7
		c-1.2,0-2.2-0.3-2.9-0.8c-0.7-0.6-1.1-1.3-1.2-2.1h-3c0.1,1.1,0.4,2,1,2.8s1.5,1.5,2.5,1.9c1.1,0.5,2.3,0.7,3.6,0.7
		c1.3,0,2.4-0.2,3.3-0.7c1-0.4,1.7-1,2.3-1.8c0.5-0.8,0.8-1.6,0.8-2.6c0-1.1-0.3-1.9-0.9-2.6c-0.6-0.7-1.2-1.2-2-1.5
		c-0.8-0.3-1.8-0.7-3.1-1c-1-0.3-1.8-0.5-2.4-0.8c-0.6-0.2-1-0.5-1.4-0.9c-0.4-0.4-0.6-0.8-0.6-1.4c0-0.7,0.3-1.3,0.9-1.8
		c0.6-0.4,1.5-0.7,2.5-0.7c1.1,0,2,0.3,2.7,0.8s1,1.3,1.1,2.2h2.9c-0.1-1.7-0.7-3.1-1.9-4c-1.2-1-2.8-1.5-4.7-1.5
		c-1.3,0-2.4,0.2-3.4,0.7c-1,0.4-1.7,1-2.3,1.8c-0.5,0.7-0.8,1.6-0.8,2.5c0,1.1,0.3,2,0.9,2.7c0.6,0.7,1.3,1.2,2.1,1.6
		c0.8,0.4,1.9,0.7,3.2,1c1.4,0.4,2.5,0.7,3.2,1.1c0.7,0.4,1,0.9,1,1.7C698.7,167.7,698.3,168.3,697.7,168.8z M706.3,166.9
		c0,1.7,0.4,2.9,1.2,3.7c0.8,0.7,2,1.1,3.6,1.1h2.6v-2.5h-2.1c-0.9,0-1.5-0.2-1.9-0.5c-0.4-0.4-0.5-1-0.5-1.8v-10.3h4.6v-2.4h-4.6
		v-4.4h-2.9v4.4H704v2.4h2.3V166.9z M717.3,167.7c-0.8-1.4-1.1-3-1.1-4.8c0-1.8,0.4-3.4,1.2-4.8c0.8-1.4,1.8-2.4,3.2-3.2
		c1.3-0.7,2.8-1.1,4.5-1.1c1.7,0,3.2,0.4,4.5,1.1c1.3,0.7,2.4,1.8,3.2,3.2c0.8,1.4,1.2,3,1.2,4.8c0,1.8-0.4,3.4-1.2,4.8
		c-0.8,1.4-1.9,2.4-3.2,3.2c-1.4,0.7-2.9,1.1-4.5,1.1c-1.6,0-3.1-0.4-4.5-1.1C719.1,170.1,718.1,169.1,717.3,167.7z M719.1,162.9
		c0,1.4,0.3,2.6,0.8,3.6c0.5,1,1.2,1.7,2.1,2.2c0.9,0.5,1.8,0.7,2.9,0.7s2-0.2,2.9-0.7c0.9-0.5,1.7-1.2,2.2-2.2
		c0.6-1,0.8-2.2,0.8-3.6c0-1.4-0.3-2.6-0.8-3.6s-1.3-1.7-2.2-2.2s-1.9-0.7-2.9-0.7c-1.1,0-2,0.2-2.9,0.7s-1.6,1.2-2.1,2.2
		S719.1,161.5,719.1,162.9z M740.7,162.2c0-3.5,1.6-5.3,4.9-5.3h0.8v-3c-1.4,0-2.5,0.3-3.5,0.8s-1.7,1.3-2.2,2.3v-2.8h-2.9v17.5h2.9
		V162.2z M749.7,171.7h2.9v-17.5h-2.9V171.7z M751.2,151.3c0.5,0,1-0.2,1.4-0.6c0.4-0.4,0.6-0.9,0.6-1.4c0-0.6-0.2-1-0.6-1.4
		c-0.4-0.4-0.8-0.6-1.4-0.6c-0.6,0-1,0.2-1.4,0.6c-0.4,0.4-0.6,0.9-0.6,1.4c0,0.6,0.2,1,0.6,1.4
		C750.2,151.1,750.6,151.3,751.2,151.3z M757.6,167.7c-0.7-1.4-1.1-3-1.1-4.8c0-1.8,0.4-3.4,1.1-4.8c0.7-1.4,1.7-2.4,3.1-3.2
		c1.3-0.7,2.8-1.1,4.5-1.1c1.7,0,3.1,0.4,4.4,1.1c1.3,0.7,2.3,1.7,3,3c0.7,1.3,1,2.7,1,4.3c0,0.6,0,1.1-0.1,1.8h-14
		c0.1,1.7,0.7,3.1,1.8,4c1.1,1,2.4,1.5,3.9,1.5c1.3,0,2.3-0.3,3.2-0.9c0.8-0.6,1.4-1.4,1.8-2.4h3.1c-0.5,1.7-1.4,3.1-2.8,4.1
		c-1.4,1.1-3.2,1.6-5.2,1.6c-1.7,0-3.2-0.4-4.5-1.1C759.4,170.1,758.3,169.1,757.6,167.7z M759.5,161.7h11.1c0-1.1-0.2-2.1-0.7-2.9
		c-0.5-0.8-1.2-1.4-2-1.8c-0.8-0.4-1.8-0.6-2.8-0.6c-1.5,0-2.7,0.5-3.8,1.4C760.2,158.7,759.6,160,759.5,161.7z M780.3,162.2
		c0-3.5,1.6-5.3,4.9-5.3h0.8v-3c-1.4,0-2.5,0.3-3.5,0.8s-1.7,1.3-2.2,2.3v-2.8h-2.9v17.5h2.9V162.2z M565.7,334.8h-8.3v-22.3h8
		c1.5,0,2.8,0.3,3.9,0.8c1.1,0.5,1.9,1.2,2.4,2c0.5,0.9,0.8,1.8,0.8,2.9c0,1.3-0.4,2.4-1.1,3.3c-0.7,0.9-1.7,1.5-2.8,1.9
		c0.8,0.1,1.6,0.5,2.2,1c0.7,0.5,1.2,1.2,1.6,2c0.4,0.8,0.6,1.6,0.6,2.5c0,1.1-0.3,2.1-0.9,3.1c-0.6,0.9-1.4,1.6-2.5,2.1
		C568.5,334.5,567.2,334.8,565.7,334.8z M560.3,322.1h4.9c1.4,0,2.4-0.3,3.2-1c0.7-0.6,1.1-1.5,1.1-2.7c0-1.1-0.4-2-1.1-2.7
		c-0.7-0.6-1.8-1-3.2-1h-4.8V322.1z M565.5,332.4c1.5,0,2.6-0.3,3.4-1c0.8-0.7,1.2-1.6,1.2-2.8c0-1.2-0.4-2.2-1.3-2.9
		c-0.9-0.7-2-1.1-3.4-1.1h-5.1v7.9H565.5z M579.9,325.2c0-3.5,1.6-5.3,4.9-5.3h0.8v-3c-1.4,0-2.5,0.3-3.5,0.8s-1.7,1.3-2.2,2.3v-2.8
		H577v17.5h2.9V325.2z M588.8,317.2v10.3c0,1.6,0.3,3,0.9,4.1c0.6,1.1,1.5,2,2.6,2.5c1.1,0.6,2.3,0.8,3.7,0.8c1.2,0,2.3-0.3,3.3-0.8
		c1-0.5,1.8-1.2,2.3-2.1v2.6h2.9v-17.5h-2.9v9.6c0,1.8-0.4,3.2-1.3,4.2s-2.1,1.4-3.7,1.4c-1.5,0-2.7-0.5-3.6-1.4
		c-0.9-0.9-1.3-2.3-1.3-4v-9.9H588.8z M609.5,334.8h2.9V327l6.9,7.7h4l-8.3-8.8l8.3-8.7h-4.1l-6.8,7.8v-13.9h-2.9V334.8z
		 M638.8,333.5c-1.4,1.1-3.2,1.6-5.2,1.6c-1.7,0-3.2-0.4-4.5-1.1c-1.3-0.7-2.3-1.8-3.1-3.2c-0.7-1.4-1.1-3-1.1-4.8
		c0-1.8,0.4-3.4,1.1-4.8c0.7-1.4,1.7-2.4,3.1-3.2c1.3-0.7,2.8-1.1,4.5-1.1c1.7,0,3.1,0.4,4.4,1.1c1.3,0.7,2.3,1.7,3,3
		c0.7,1.3,1,2.7,1,4.3c0,0.6,0,1.1-0.1,1.8h-14c0.1,1.7,0.7,3.1,1.8,4c1.1,1,2.4,1.5,3.9,1.5c1.3,0,2.3-0.3,3.2-0.9
		c0.8-0.6,1.4-1.4,1.8-2.4h3.1C641.1,331,640.2,332.4,638.8,333.5z M627.9,324.7h11.1c0-1.1-0.2-2.1-0.7-2.9c-0.5-0.8-1.2-1.4-2-1.8
		c-0.8-0.4-1.8-0.6-2.8-0.6c-1.5,0-2.7,0.5-3.8,1.4C628.6,321.8,628,323.1,627.9,324.7z M648.7,325.2c0-3.5,1.6-5.3,4.9-5.3h0.8v-3
		c-1.4,0-2.5,0.3-3.5,0.8s-1.7,1.3-2.2,2.3v-2.8h-2.9v17.5h2.9V325.2z M657.7,317.2v17.5h2.9v-9.5c0-3.5,1.6-5.3,4.9-5.3h0.8v-3
		c-1.4,0-2.5,0.3-3.5,0.8s-1.7,1.3-2.2,2.3v-2.8H657.7z M672.8,333.9c-1.3-0.7-2.3-1.8-3.1-3.2c-0.7-1.4-1.1-3-1.1-4.8
		c0-1.8,0.4-3.4,1.1-4.8c0.7-1.4,1.7-2.4,3.1-3.2c1.3-0.7,2.8-1.1,4.5-1.1c1.7,0,3.1,0.4,4.4,1.1c1.3,0.7,2.3,1.7,3,3
		c0.7,1.3,1,2.7,1,4.3c0,0.6,0,1.1-0.1,1.8h-14c0.1,1.7,0.7,3.1,1.8,4c1.1,1,2.4,1.5,3.9,1.5c1.3,0,2.3-0.3,3.2-0.9
		c0.8-0.6,1.4-1.4,1.8-2.4h3.1c-0.5,1.7-1.4,3.1-2.8,4.1c-1.4,1.1-3.2,1.6-5.2,1.6C675.6,335.1,674.1,334.7,672.8,333.9z
		 M671.6,324.7h11.1c0-1.1-0.2-2.1-0.7-2.9c-0.5-0.8-1.2-1.4-2-1.8c-0.8-0.4-1.8-0.6-2.8-0.6c-1.5,0-2.7,0.5-3.8,1.4
		C672.3,321.8,671.7,323.1,671.6,324.7z M689.5,334.8h2.9v-17.5h-2.9V334.8z M692.3,311c-0.4-0.4-0.8-0.6-1.4-0.6
		c-0.6,0-1,0.2-1.4,0.6c-0.4,0.4-0.6,0.9-0.6,1.4c0,0.6,0.2,1,0.6,1.4c0.4,0.4,0.9,0.6,1.4,0.6c0.5,0,1-0.2,1.4-0.6
		c0.4-0.4,0.6-0.9,0.6-1.4C692.9,311.8,692.7,311.4,692.3,311z M706.2,331.9c-0.6,0.5-1.5,0.7-2.6,0.7c-1.2,0-2.2-0.3-2.9-0.8
		c-0.7-0.6-1.1-1.3-1.2-2.1h-3c0.1,1.1,0.4,2,1,2.8s1.5,1.5,2.5,1.9c1.1,0.5,2.3,0.7,3.6,0.7c1.3,0,2.4-0.2,3.3-0.7
		c1-0.4,1.7-1,2.3-1.8c0.5-0.8,0.8-1.6,0.8-2.6c0-1.1-0.3-1.9-0.9-2.6c-0.6-0.7-1.2-1.2-2-1.5c-0.8-0.3-1.8-0.7-3.1-1
		c-1-0.3-1.8-0.5-2.4-0.8c-0.6-0.2-1-0.5-1.4-0.9c-0.4-0.4-0.6-0.8-0.6-1.4c0-0.7,0.3-1.3,0.9-1.8c0.6-0.4,1.5-0.7,2.5-0.7
		c1.1,0,2,0.3,2.7,0.8s1,1.3,1.1,2.2h2.9c-0.1-1.7-0.7-3.1-1.9-4c-1.2-1-2.8-1.5-4.7-1.5c-1.3,0-2.4,0.2-3.4,0.7
		c-1,0.4-1.7,1-2.3,1.8c-0.5,0.7-0.8,1.6-0.8,2.5c0,1.1,0.3,2,0.9,2.7c0.6,0.7,1.3,1.2,2.1,1.6c0.8,0.4,1.9,0.7,3.2,1
		c1.4,0.4,2.5,0.7,3.2,1.1c0.7,0.4,1,0.9,1,1.7C707.1,330.7,706.8,331.4,706.2,331.9z M729,321c0.7,1.3,1,2.7,1,4.3
		c0,0.6,0,1.1-0.1,1.8h-14c0.1,1.7,0.7,3.1,1.8,4c1.1,1,2.4,1.5,3.9,1.5c1.3,0,2.3-0.3,3.2-0.9c0.8-0.6,1.4-1.4,1.8-2.4h3.1
		c-0.5,1.7-1.4,3.1-2.8,4.1c-1.4,1.1-3.2,1.6-5.2,1.6c-1.7,0-3.2-0.4-4.5-1.1c-1.3-0.7-2.3-1.8-3.1-3.2c-0.7-1.4-1.1-3-1.1-4.8
		c0-1.8,0.4-3.4,1.1-4.8c0.7-1.4,1.7-2.4,3.1-3.2c1.3-0.7,2.8-1.1,4.5-1.1c1.7,0,3.1,0.4,4.4,1.1C727.3,318.8,728.3,319.8,729,321z
		 M727.1,324.7c0-1.1-0.2-2.1-0.7-2.9c-0.5-0.8-1.2-1.4-2-1.8c-0.8-0.4-1.8-0.6-2.8-0.6c-1.5,0-2.7,0.5-3.8,1.4
		c-1,0.9-1.6,2.2-1.8,3.9H727.1z M736.8,325.2c0-3.5,1.6-5.3,4.9-5.3h0.8v-3c-1.4,0-2.5,0.3-3.5,0.8s-1.7,1.3-2.2,2.3v-2.8h-2.9
		v17.5h2.9V325.2z M575.1,533l-11.7-17.7h-2.9v22.3h2.9v-17.8l11.7,17.8h2.9v-22.3h-2.9V533z M597.9,523.9c0.7,1.3,1,2.7,1,4.3
		c0,0.6,0,1.1-0.1,1.8h-14c0.1,1.7,0.7,3.1,1.8,4s2.4,1.5,3.9,1.5c1.3,0,2.3-0.3,3.2-0.9s1.4-1.4,1.8-2.4h3.1
		c-0.5,1.7-1.4,3.1-2.8,4.1c-1.4,1.1-3.2,1.6-5.2,1.6c-1.7,0-3.2-0.4-4.5-1.1c-1.3-0.7-2.3-1.8-3.1-3.2s-1.1-3-1.1-4.8
		c0-1.8,0.4-3.4,1.1-4.8s1.7-2.4,3.1-3.2c1.3-0.7,2.8-1.1,4.5-1.1c1.7,0,3.1,0.4,4.4,1.1C596.2,521.6,597.2,522.6,597.9,523.9z
		 M595.9,527.6c0-1.1-0.2-2.1-0.7-2.9c-0.5-0.8-1.2-1.4-2-1.8c-0.8-0.4-1.8-0.6-2.8-0.6c-1.5,0-2.7,0.5-3.8,1.4
		c-1,0.9-1.6,2.2-1.8,3.9H595.9z M606.3,515.7h-2.9v4.4h-2.3v2.4h2.3v10.3c0,1.7,0.4,2.9,1.2,3.7c0.8,0.7,2,1.1,3.6,1.1h2.6v-2.5
		h-2.1c-0.9,0-1.5-0.2-1.9-0.5c-0.4-0.4-0.5-1-0.5-1.8v-10.3h4.6v-2.4h-4.6V515.7z M618,515.7h-2.9v4.4h-2.3v2.4h2.3v10.3
		c0,1.7,0.4,2.9,1.2,3.7c0.8,0.7,2,1.1,3.6,1.1h2.6v-2.5h-2.1c-0.9,0-1.5-0.2-1.9-0.5c-0.4-0.4-0.5-1-0.5-1.8v-10.3h4.6v-2.4H618
		V515.7z M635.8,528.8c-0.8-0.3-1.8-0.7-3.1-1c-1-0.3-1.8-0.5-2.4-0.8c-0.6-0.2-1-0.5-1.4-0.9c-0.4-0.4-0.6-0.8-0.6-1.4
		c0-0.7,0.3-1.3,0.9-1.8c0.6-0.4,1.5-0.7,2.5-0.7c1.1,0,2,0.3,2.7,0.8s1,1.3,1.1,2.2h2.9c-0.1-1.7-0.7-3.1-1.9-4
		c-1.2-1-2.8-1.5-4.7-1.5c-1.3,0-2.4,0.2-3.4,0.7c-1,0.4-1.7,1-2.3,1.8s-0.8,1.6-0.8,2.5c0,1.1,0.3,2,0.9,2.7
		c0.6,0.7,1.3,1.2,2.1,1.6c0.8,0.4,1.9,0.7,3.2,1c1.4,0.4,2.5,0.7,3.2,1.1s1,0.9,1,1.7c0,0.7-0.3,1.4-1,1.9
		c-0.6,0.5-1.5,0.7-2.6,0.7c-1.2,0-2.2-0.3-2.9-0.8s-1.1-1.3-1.2-2.1h-3c0.1,1.1,0.4,2,1,2.8c0.6,0.8,1.5,1.5,2.5,1.9
		c1.1,0.5,2.3,0.7,3.6,0.7c1.3,0,2.4-0.2,3.3-0.7c1-0.4,1.7-1,2.3-1.8c0.5-0.8,0.8-1.6,0.8-2.6c0-1.1-0.3-1.9-0.9-2.6
		C637.2,529.6,636.6,529.1,635.8,528.8z M642.8,537.6h2.9v-17.5h-2.9V537.6z M644.3,513.3c-0.6,0-1,0.2-1.4,0.6
		c-0.4,0.4-0.6,0.9-0.6,1.4c0,0.6,0.2,1,0.6,1.4s0.9,0.6,1.4,0.6c0.5,0,1-0.2,1.4-0.6c0.4-0.4,0.6-0.9,0.6-1.4c0-0.6-0.2-1-0.6-1.4
		C645.3,513.5,644.8,513.3,644.3,513.3z M664.4,513.9h2.9v23.7h-2.9v-3.3c-0.6,1-1.4,1.9-2.6,2.6s-2.5,1-4,1c-1.6,0-3-0.4-4.2-1.2
		c-1.3-0.8-2.3-1.8-3-3.2s-1.1-3-1.1-4.7c0-1.8,0.4-3.4,1.1-4.7c0.7-1.4,1.7-2.4,3-3.2c1.3-0.7,2.7-1.1,4.3-1.1
		c1.4,0,2.6,0.3,3.8,0.9c1.2,0.6,2.1,1.5,2.7,2.5V513.9z M664.4,528.8c0-1.3-0.3-2.5-0.8-3.5c-0.5-1-1.3-1.7-2.2-2.3
		c-0.9-0.5-1.9-0.8-3-0.8s-2.1,0.3-3,0.8c-0.9,0.5-1.6,1.3-2.1,2.2c-0.5,1-0.8,2.1-0.8,3.5c0,1.3,0.3,2.5,0.8,3.5
		c0.5,1,1.2,1.8,2.1,2.3c0.9,0.5,1.9,0.8,3,0.8s2.1-0.3,3-0.8c0.9-0.5,1.6-1.3,2.2-2.3C664.1,531.3,664.4,530.1,664.4,528.8z
		 M687.2,523.9c0.7,1.3,1,2.7,1,4.3c0,0.6,0,1.1-0.1,1.8h-14c0.1,1.7,0.7,3.1,1.8,4s2.4,1.5,3.9,1.5c1.3,0,2.3-0.3,3.2-0.9
		s1.4-1.4,1.8-2.4h3.1c-0.5,1.7-1.4,3.1-2.8,4.1c-1.4,1.1-3.2,1.6-5.2,1.6c-1.7,0-3.2-0.4-4.5-1.1c-1.3-0.7-2.3-1.8-3.1-3.2
		s-1.1-3-1.1-4.8c0-1.8,0.4-3.4,1.1-4.8s1.7-2.4,3.1-3.2c1.3-0.7,2.8-1.1,4.5-1.1c1.7,0,3.1,0.4,4.4,1.1
		C685.6,521.6,686.6,522.6,687.2,523.9z M685.3,527.6c0-1.1-0.2-2.1-0.7-2.9c-0.5-0.8-1.2-1.4-2-1.8c-0.8-0.4-1.8-0.6-2.8-0.6
		c-1.5,0-2.7,0.5-3.8,1.4c-1,0.9-1.6,2.2-1.8,3.9H685.3z M705.9,520.1h-4.1l-6.8,7.8v-13.9h-2.9v23.7h2.9v-7.7l6.9,7.7h4l-8.3-8.8
		L705.9,520.1z M722.4,520.1h2.9v17.5h-2.9v-3.3c-0.6,1-1.4,1.9-2.6,2.5s-2.5,1-4,1c-1.6,0-3-0.4-4.2-1.2c-1.3-0.8-2.3-1.8-3-3.2
		c-0.7-1.4-1.1-3-1.1-4.7c0-1.8,0.4-3.4,1.1-4.7c0.7-1.4,1.7-2.4,3-3.2c1.3-0.7,2.7-1.1,4.2-1.1c1.5,0,2.9,0.3,4,1
		c1.1,0.7,2,1.5,2.5,2.5V520.1z M722.4,528.8c0-1.3-0.3-2.5-0.8-3.5c-0.5-1-1.3-1.7-2.2-2.3c-0.9-0.5-1.9-0.8-3-0.8s-2.1,0.3-3,0.8
		c-0.9,0.5-1.6,1.3-2.1,2.2c-0.5,1-0.8,2.1-0.8,3.5c0,1.3,0.3,2.5,0.8,3.5c0.5,1,1.2,1.8,2.1,2.3c0.9,0.5,1.9,0.8,3,0.8
		s2.1-0.3,3-0.8c0.9-0.5,1.6-1.3,2.2-2.3C722.1,531.3,722.4,530.1,722.4,528.8z M733.1,522.9v-2.8h-2.9v17.5h2.9v-9.5
		c0-3.5,1.6-5.3,4.9-5.3h0.8v-3c-1.4,0-2.5,0.3-3.5,0.8S733.7,521.9,733.1,522.9z M745.7,515.7h-2.9v4.4h-2.3v2.4h2.3v10.3
		c0,1.7,0.4,2.9,1.2,3.7c0.8,0.7,2,1.1,3.6,1.1h2.6v-2.5h-2.1c-0.9,0-1.5-0.2-1.9-0.5c-0.4-0.4-0.5-1-0.5-1.8v-10.3h4.6v-2.4h-4.6
		V515.7z M54,254.5h2.9v-19.9H63v-2.4H47.9v2.4H54V254.5z M77.8,253.8c-1.1,0.7-2.5,1-4,1c-1.6,0-3-0.4-4.2-1.2
		c-1.3-0.8-2.3-1.8-3-3.2c-0.7-1.4-1.1-3-1.1-4.7c0-1.8,0.4-3.4,1.1-4.7c0.7-1.4,1.7-2.4,3-3.2c1.3-0.7,2.7-1.1,4.2-1.1
		c1.5,0,2.9,0.3,4,1c1.1,0.7,2,1.5,2.5,2.5V237h2.9v17.5h-2.9v-3.3C79.8,252.3,78.9,253.1,77.8,253.8z M77.4,251.4
		c0.9-0.5,1.6-1.3,2.2-2.3c0.5-1,0.8-2.1,0.8-3.5s-0.3-2.5-0.8-3.5c-0.5-1-1.3-1.7-2.2-2.3c-0.9-0.5-1.9-0.8-3-0.8s-2.1,0.3-3,0.8
		c-0.9,0.5-1.6,1.3-2.1,2.2c-0.5,1-0.8,2.1-0.8,3.5c0,1.3,0.3,2.5,0.8,3.5c0.5,1,1.2,1.7,2.1,2.3c0.9,0.5,1.9,0.8,3,0.8
		S76.5,252,77.4,251.4z M88.2,254.5h2.9v-23.7h-2.9V254.5z M96.1,254.5H99v-23.7h-2.9V254.5z M120.2,254.8c-1.6,0-3.1-0.4-4.5-1.1
		c-1.3-0.7-2.4-1.8-3.1-3.2c-0.8-1.4-1.1-3-1.1-4.8c0-1.8,0.4-3.4,1.2-4.8c0.8-1.4,1.8-2.4,3.2-3.2c1.3-0.7,2.8-1.1,4.5-1.1
		c1.7,0,3.2,0.4,4.5,1.1c1.3,0.7,2.4,1.8,3.2,3.2c0.8,1.4,1.2,3,1.2,4.8c0,1.8-0.4,3.4-1.2,4.8c-0.8,1.4-1.9,2.4-3.2,3.2
		C123.4,254.4,121.8,254.8,120.2,254.8z M117.3,251.5c0.9,0.5,1.8,0.7,2.9,0.7s2-0.2,2.9-0.7c0.9-0.5,1.7-1.2,2.2-2.2
		c0.6-1,0.8-2.2,0.8-3.6c0-1.4-0.3-2.6-0.8-3.6s-1.3-1.7-2.2-2.2s-1.9-0.7-2.9-0.7c-1.1,0-2,0.2-2.9,0.7s-1.6,1.2-2.1,2.2
		s-0.8,2.2-0.8,3.6c0,1.4,0.3,2.6,0.8,3.6C115.7,250.3,116.4,251,117.3,251.5z M146.8,254.9v-3.7c-0.6,1-1.4,1.9-2.6,2.6
		c-1.1,0.7-2.5,1-4,1c-1.6,0-3-0.4-4.2-1.2c-1.3-0.8-2.3-1.8-3-3.2c-0.7-1.4-1.1-3-1.1-4.7c0-1.8,0.4-3.4,1.1-4.7
		c0.7-1.4,1.7-2.4,3-3.2c1.3-0.7,2.7-1.1,4.2-1.1c1.5,0,2.8,0.3,4,1c1.1,0.7,2,1.5,2.5,2.5V237h2.9v17.9c0,1.6-0.3,3-1,4.3
		c-0.7,1.2-1.7,2.2-2.9,2.9c-1.3,0.7-2.7,1.1-4.4,1.1c-2.3,0-4.2-0.5-5.8-1.6c-1.5-1.1-2.4-2.6-2.7-4.4h2.9c0.3,1.1,1,1.9,2,2.6
		c1,0.7,2.2,1,3.6,1c1.6,0,2.9-0.5,3.9-1.5C146.3,258.1,146.8,256.7,146.8,254.9z M146.8,245.7c0-1.3-0.3-2.5-0.8-3.5
		c-0.5-1-1.3-1.7-2.2-2.3c-0.9-0.5-1.9-0.8-3-0.8s-2.1,0.3-3,0.8c-0.9,0.5-1.6,1.3-2.1,2.2c-0.5,1-0.8,2.1-0.8,3.5
		c0,1.3,0.3,2.5,0.8,3.5c0.5,1,1.2,1.7,2.1,2.3c0.9,0.5,1.9,0.8,3,0.8s2.1-0.3,3-0.8c0.9-0.5,1.6-1.3,2.2-2.3
		C146.5,248.2,146.8,247,146.8,245.7z M58.1,290c-0.6,0.5-1.5,0.7-2.6,0.7c-1.2,0-2.2-0.3-2.9-0.8c-0.7-0.6-1.1-1.3-1.2-2.1h-3
		c0.1,1.1,0.4,2,1,2.8s1.5,1.5,2.5,1.9c1.1,0.5,2.3,0.7,3.6,0.7c1.3,0,2.4-0.2,3.3-0.7c1-0.4,1.7-1,2.3-1.8c0.5-0.8,0.8-1.6,0.8-2.6
		c0-1.1-0.3-1.9-0.9-2.6c-0.6-0.7-1.2-1.2-2-1.5c-0.8-0.3-1.8-0.7-3.1-1c-1-0.3-1.8-0.5-2.4-0.8c-0.6-0.2-1-0.5-1.4-0.9
		c-0.4-0.4-0.6-0.8-0.6-1.4c0-0.7,0.3-1.3,0.9-1.8c0.6-0.4,1.5-0.7,2.5-0.7c1.1,0,2,0.3,2.7,0.8s1,1.3,1.1,2.2h2.9
		c-0.1-1.7-0.7-3.1-1.9-4c-1.2-1-2.8-1.5-4.7-1.5c-1.3,0-2.4,0.2-3.4,0.7c-1,0.4-1.7,1-2.3,1.8c-0.5,0.7-0.8,1.6-0.8,2.5
		c0,1.1,0.3,2,0.9,2.7c0.6,0.7,1.3,1.2,2.1,1.6c0.8,0.4,1.9,0.7,3.2,1c1.4,0.4,2.5,0.7,3.2,1.1c0.7,0.4,1,0.9,1,1.7
		C59.1,288.9,58.7,289.5,58.1,290z M74.1,277.8v-2.4h-4.6V271h-2.9v4.4h-2.3v2.4h2.3v10.3c0,1.7,0.4,2.9,1.2,3.7
		c0.8,0.7,2,1.1,3.6,1.1h2.6v-2.5H72c-0.9,0-1.5-0.2-1.9-0.5c-0.4-0.4-0.5-1-0.5-1.8v-10.3H74.1z M77.6,288.8
		c-0.7-1.4-1.1-3-1.1-4.7c0-1.8,0.4-3.4,1.1-4.7c0.7-1.4,1.7-2.4,3-3.2c1.3-0.7,2.7-1.1,4.2-1.1c1.5,0,2.9,0.3,4,1
		c1.1,0.7,2,1.5,2.5,2.5v-3.2h2.9v17.5h-2.9v-3.3c-0.6,1-1.4,1.9-2.6,2.5c-1.1,0.7-2.5,1-4,1c-1.6,0-3-0.4-4.2-1.2
		C79.4,291.3,78.4,290.2,77.6,288.8z M79.5,284.1c0,1.3,0.3,2.5,0.8,3.5c0.5,1,1.2,1.7,2.1,2.3c0.9,0.5,1.9,0.8,3,0.8s2.1-0.3,3-0.8
		c0.9-0.5,1.6-1.3,2.2-2.3c0.5-1,0.8-2.1,0.8-3.5s-0.3-2.5-0.8-3.5c-0.5-1-1.3-1.7-2.2-2.3c-0.9-0.5-1.9-0.8-3-0.8s-2.1,0.3-3,0.8
		c-0.9,0.5-1.6,1.3-2.1,2.2C79.8,281.6,79.5,282.8,79.5,284.1z M107.4,277.8v-2.4h-4.6V271h-2.9v4.4h-2.3v2.4h2.3v10.3
		c0,1.7,0.4,2.9,1.2,3.7c0.8,0.7,2,1.1,3.6,1.1h2.6v-2.5h-2.1c-0.9,0-1.5-0.2-1.9-0.5c-0.4-0.4-0.5-1-0.5-1.8v-10.3H107.4z
		 M112.4,272.5c0.5,0,1-0.2,1.4-0.6c0.4-0.4,0.6-0.9,0.6-1.4c0-0.6-0.2-1-0.6-1.4c-0.4-0.4-0.8-0.6-1.4-0.6c-0.6,0-1,0.2-1.4,0.6
		c-0.4,0.4-0.6,0.9-0.6,1.4c0,0.6,0.2,1,0.6,1.4C111.4,272.3,111.9,272.5,112.4,272.5z M113.8,275.4h-2.9v17.5h2.9V275.4z
		 M127.6,290c-0.6,0.5-1.5,0.7-2.6,0.7c-1.2,0-2.2-0.3-2.9-0.8c-0.7-0.6-1.1-1.3-1.2-2.1h-3c0.1,1.1,0.4,2,1,2.8s1.5,1.5,2.5,1.9
		c1.1,0.5,2.3,0.7,3.6,0.7c1.3,0,2.4-0.2,3.3-0.7c1-0.4,1.7-1,2.3-1.8c0.5-0.8,0.8-1.6,0.8-2.6c0-1.1-0.3-1.9-0.9-2.6
		c-0.6-0.7-1.2-1.2-2-1.5c-0.8-0.3-1.8-0.7-3.1-1c-1-0.3-1.8-0.5-2.4-0.8c-0.6-0.2-1-0.5-1.4-0.9c-0.4-0.4-0.6-0.8-0.6-1.4
		c0-0.7,0.3-1.3,0.9-1.8c0.6-0.4,1.5-0.7,2.5-0.7c1.1,0,2,0.3,2.7,0.8s1,1.3,1.1,2.2h2.9c-0.1-1.7-0.7-3.1-1.9-4
		c-1.2-1-2.8-1.5-4.7-1.5c-1.3,0-2.4,0.2-3.4,0.7c-1,0.4-1.7,1-2.3,1.8c-0.5,0.7-0.8,1.6-0.8,2.5c0,1.1,0.3,2,0.9,2.7
		c0.6,0.7,1.3,1.2,2.1,1.6c0.8,0.4,1.9,0.7,3.2,1c1.4,0.4,2.5,0.7,3.2,1.1c0.7,0.4,1,0.9,1,1.7C128.6,288.9,128.2,289.5,127.6,290z
		 M137.4,291.8c0.8,0.7,2,1.1,3.6,1.1h2.6v-2.5h-2.1c-0.9,0-1.5-0.2-1.9-0.5c-0.4-0.4-0.5-1-0.5-1.8v-10.3h4.6v-2.4h-4.6V271h-2.9
		v4.4h-2.3v2.4h2.3v10.3C136.1,289.8,136.5,291,137.4,291.8z M147.2,292.9h2.9v-17.5h-2.9V292.9z M150,269.1
		c-0.4-0.4-0.8-0.6-1.4-0.6c-0.6,0-1,0.2-1.4,0.6c-0.4,0.4-0.6,0.9-0.6,1.4c0,0.6,0.2,1,0.6,1.4c0.4,0.4,0.9,0.6,1.4,0.6
		c0.5,0,1-0.2,1.4-0.6c0.4-0.4,0.6-0.9,0.6-1.4C150.6,270,150.4,269.5,150,269.1z M155,269.2v23.7h2.9v-7.7l6.9,7.7h4l-8.3-8.8
		l8.3-8.7h-4.1l-6.8,7.8v-13.9H155z M171.5,269.2v23.7h2.9v-7.7l6.9,7.7h4l-8.3-8.8l8.3-8.7h-4.1l-6.8,7.8v-13.9H171.5z M65,350.5
		h-3.7l-9.2,10.3v-10.3h-2.9v22.3h2.9v-10.2l9.2,10.2h3.8l-10.2-11.1L65,350.5z M82.1,355.2H85v17.5h-2.9v-3.3
		c-0.6,1-1.4,1.9-2.6,2.5c-1.1,0.7-2.5,1-4,1c-1.6,0-3-0.4-4.2-1.2c-1.3-0.8-2.3-1.8-3-3.2c-0.7-1.4-1.1-3-1.1-4.7
		c0-1.8,0.4-3.4,1.1-4.7c0.7-1.4,1.7-2.4,3-3.2c1.3-0.7,2.7-1.1,4.2-1.1c1.5,0,2.9,0.3,4,1c1.1,0.7,2,1.5,2.5,2.5V355.2z M82.1,364
		c0-1.3-0.3-2.5-0.8-3.5c-0.5-1-1.3-1.7-2.2-2.3c-0.9-0.5-1.9-0.8-3-0.8s-2.1,0.3-3,0.8c-0.9,0.5-1.6,1.3-2.1,2.2
		c-0.5,1-0.8,2.1-0.8,3.5c0,1.3,0.3,2.5,0.8,3.5c0.5,1,1.2,1.7,2.1,2.3c0.9,0.5,1.9,0.8,3,0.8s2.1-0.3,3-0.8
		c0.9-0.5,1.6-1.3,2.2-2.3C81.8,366.4,82.1,365.3,82.1,364z M92.9,363.2c0-3.5,1.6-5.3,4.9-5.3h0.8v-3c-1.4,0-2.5,0.3-3.5,0.8
		s-1.7,1.3-2.2,2.3v-2.8H90v17.5h2.9V363.2z M110,372.8v-2.5h-2.1c-0.9,0-1.5-0.2-1.9-0.5c-0.4-0.4-0.5-1-0.5-1.8v-10.3h4.6v-2.4
		h-4.6v-4.4h-2.9v4.4h-2.3v2.4h2.3V368c0,1.7,0.4,2.9,1.2,3.7c0.8,0.7,2,1.1,3.6,1.1H110z M116.5,349.1h-2.9v23.7h2.9V349.1z
		 M129,373c-1.7,0-3.2-0.4-4.5-1.1c-1.3-0.7-2.3-1.8-3.1-3.2c-0.7-1.4-1.1-3-1.1-4.8c0-1.8,0.4-3.4,1.1-4.8c0.7-1.4,1.7-2.4,3.1-3.2
		c1.3-0.7,2.8-1.1,4.5-1.1c1.7,0,3.1,0.4,4.4,1.1c1.3,0.7,2.3,1.7,3,3c0.7,1.3,1,2.7,1,4.3c0,0.6,0,1.1-0.1,1.8h-14
		c0.1,1.7,0.7,3.1,1.8,4c1.1,1,2.4,1.5,3.9,1.5c1.3,0,2.3-0.3,3.2-0.9c0.8-0.6,1.4-1.4,1.8-2.4h3.1c-0.5,1.7-1.4,3.1-2.8,4.1
		C132.8,372.5,131.1,373,129,373z M123.3,362.7h11.1c0-1.1-0.2-2.1-0.7-2.9c-0.5-0.8-1.2-1.4-2-1.8c-0.8-0.4-1.8-0.6-2.8-0.6
		c-1.5,0-2.7,0.5-3.8,1.4C124.1,359.7,123.5,361,123.3,362.7z M155,373.1v-3.7c-0.6,1-1.4,1.9-2.6,2.6c-1.1,0.7-2.5,1-4,1
		c-1.6,0-3-0.4-4.2-1.2c-1.3-0.8-2.3-1.8-3-3.2c-0.7-1.4-1.1-3-1.1-4.7c0-1.8,0.4-3.4,1.1-4.7c0.7-1.4,1.7-2.4,3-3.2
		c1.3-0.7,2.7-1.1,4.2-1.1c1.5,0,2.8,0.3,4,1c1.1,0.7,2,1.5,2.5,2.5v-3.2h2.9v17.9c0,1.6-0.3,3-1,4.3c-0.7,1.2-1.7,2.2-2.9,2.9
		c-1.3,0.7-2.7,1.1-4.4,1.1c-2.3,0-4.2-0.5-5.8-1.6c-1.5-1.1-2.4-2.6-2.7-4.4h2.9c0.3,1.1,1,1.9,2,2.6c1,0.7,2.2,1,3.6,1
		c1.6,0,2.9-0.5,3.9-1.5C154.5,376.4,155,375,155,373.1z M155,364c0-1.3-0.3-2.5-0.8-3.5c-0.5-1-1.3-1.7-2.2-2.3
		c-0.9-0.5-1.9-0.8-3-0.8s-2.1,0.3-3,0.8c-0.9,0.5-1.6,1.3-2.1,2.2c-0.5,1-0.8,2.1-0.8,3.5c0,1.3,0.3,2.5,0.8,3.5
		c0.5,1,1.2,1.7,2.1,2.3c0.9,0.5,1.9,0.8,3,0.8s2.1-0.3,3-0.8c0.9-0.5,1.6-1.3,2.2-2.3C154.7,366.4,155,365.3,155,364z M165.4,379.8
		c-1.5-1.1-2.4-2.6-2.7-4.4h2.9c0.3,1.1,1,1.9,2,2.6c1,0.7,2.2,1,3.6,1c1.6,0,2.9-0.5,3.9-1.5c1-1,1.5-2.4,1.5-4.2v-3.7
		c-0.6,1-1.4,1.9-2.6,2.6c-1.1,0.7-2.5,1-4,1c-1.6,0-3-0.4-4.2-1.2c-1.3-0.8-2.3-1.8-3-3.2c-0.7-1.4-1.1-3-1.1-4.7
		c0-1.8,0.4-3.4,1.1-4.7c0.7-1.4,1.7-2.4,3-3.2c1.3-0.7,2.7-1.1,4.2-1.1c1.5,0,2.8,0.3,4,1c1.1,0.7,2,1.5,2.5,2.5v-3.2h2.9v17.9
		c0,1.6-0.3,3-1,4.3c-0.7,1.2-1.7,2.2-2.9,2.9c-1.3,0.7-2.7,1.1-4.4,1.1C168.9,381.4,167,380.9,165.4,379.8z M176.6,364
		c0-1.3-0.3-2.5-0.8-3.5c-0.5-1-1.3-1.7-2.2-2.3c-0.9-0.5-1.9-0.8-3-0.8s-2.1,0.3-3,0.8c-0.9,0.5-1.6,1.3-2.1,2.2
		c-0.5,1-0.8,2.1-0.8,3.5c0,1.3,0.3,2.5,0.8,3.5c0.5,1,1.2,1.7,2.1,2.3c0.9,0.5,1.9,0.8,3,0.8s2.1-0.3,3-0.8
		c0.9-0.5,1.6-1.3,2.2-2.3C176.4,366.4,176.6,365.3,176.6,364z M184.5,368.7c-0.7-1.4-1.1-3-1.1-4.8c0-1.8,0.4-3.4,1.1-4.8
		c0.7-1.4,1.7-2.4,3.1-3.2c1.3-0.7,2.8-1.1,4.5-1.1c1.7,0,3.1,0.4,4.4,1.1c1.3,0.7,2.3,1.7,3,3c0.7,1.3,1,2.7,1,4.3
		c0,0.6,0,1.1-0.1,1.8h-14c0.1,1.7,0.7,3.1,1.8,4c1.1,1,2.4,1.5,3.9,1.5c1.3,0,2.3-0.3,3.2-0.9c0.8-0.6,1.4-1.4,1.8-2.4h3.1
		c-0.5,1.7-1.4,3.1-2.8,4.1c-1.4,1.1-3.2,1.6-5.2,1.6c-1.7,0-3.2-0.4-4.5-1.1C186.3,371.2,185.3,370.1,184.5,368.7z M186.4,362.7
		h11.1c0-1.1-0.2-2.1-0.7-2.9c-0.5-0.8-1.2-1.4-2-1.8c-0.8-0.4-1.8-0.6-2.8-0.6c-1.5,0-2.7,0.5-3.8,1.4
		C187.2,359.7,186.6,361,186.4,362.7z M62.9,393.6h-4.1l-6.8,7.8v-13.9h-2.9v23.7h2.9v-7.7l6.9,7.7h4l-8.3-8.8L62.9,393.6z
		 M78.3,403.3c0,1.8-0.4,3.2-1.3,4.2s-2.1,1.4-3.7,1.4c-1.5,0-2.7-0.5-3.6-1.4c-0.9-0.9-1.3-2.3-1.3-4v-9.9h-2.9v10.3
		c0,1.6,0.3,3,0.9,4.1c0.6,1.1,1.5,2,2.6,2.5c1.1,0.6,2.3,0.8,3.7,0.8c1.2,0,2.3-0.3,3.3-0.8c1-0.5,1.8-1.2,2.3-2.1v2.6h2.9v-17.5
		h-2.9V403.3z M94.7,393.3c-1.2,0-2.3,0.2-3.3,0.7c-1,0.5-1.8,1.2-2.4,2.1v-2.5h-2.9v17.5H89v-9.7c0-1.8,0.5-3.2,1.4-4.2
		s2.1-1.4,3.7-1.4c1.5,0,2.7,0.5,3.6,1.4c0.9,0.9,1.3,2.3,1.3,4v9.9h2.9v-10.3c0-2.4-0.7-4.3-2-5.6
		C98.5,393.9,96.8,393.3,94.7,393.3z M120.4,387.5h2.9v23.7h-2.9v-3.3c-0.6,1-1.4,1.9-2.6,2.6c-1.1,0.7-2.5,1-4,1
		c-1.6,0-3-0.4-4.2-1.2c-1.3-0.8-2.3-1.8-3-3.2c-0.7-1.4-1.1-3-1.1-4.7c0-1.8,0.4-3.4,1.1-4.7c0.7-1.4,1.7-2.4,3-3.2
		c1.3-0.7,2.7-1.1,4.3-1.1c1.4,0,2.6,0.3,3.8,0.9c1.2,0.6,2.1,1.5,2.7,2.5V387.5z M120.4,402.4c0-1.3-0.3-2.5-0.8-3.5
		c-0.5-1-1.3-1.7-2.2-2.3c-0.9-0.5-1.9-0.8-3-0.8s-2.1,0.3-3,0.8c-0.9,0.5-1.6,1.3-2.1,2.2c-0.5,1-0.8,2.1-0.8,3.5
		c0,1.3,0.3,2.5,0.8,3.5c0.5,1,1.2,1.7,2.1,2.3c0.9,0.5,1.9,0.8,3,0.8s2.1-0.3,3-0.8c0.9-0.5,1.6-1.3,2.2-2.3
		C120.1,404.8,120.4,403.7,120.4,402.4z M143.2,397.4c0.7,1.3,1,2.7,1,4.3c0,0.6,0,1.1-0.1,1.8h-14c0.1,1.7,0.7,3.1,1.8,4
		c1.1,1,2.4,1.5,3.9,1.5c1.3,0,2.3-0.3,3.2-0.9c0.8-0.6,1.4-1.4,1.8-2.4h3.1c-0.5,1.7-1.4,3.1-2.8,4.1c-1.4,1.1-3.2,1.6-5.2,1.6
		c-1.7,0-3.2-0.4-4.5-1.1c-1.3-0.7-2.3-1.8-3.1-3.2c-0.7-1.4-1.1-3-1.1-4.8c0-1.8,0.4-3.4,1.1-4.8c0.7-1.4,1.7-2.4,3.1-3.2
		c1.3-0.7,2.8-1.1,4.5-1.1c1.7,0,3.1,0.4,4.4,1.1C141.5,395.1,142.5,396.1,143.2,397.4z M141.2,401.1c0-1.1-0.2-2.1-0.7-2.9
		c-0.5-0.8-1.2-1.4-2-1.8c-0.8-0.4-1.8-0.6-2.8-0.6c-1.5,0-2.7,0.5-3.8,1.4c-1,0.9-1.6,2.2-1.8,3.9H141.2z M154.6,408.5l-5.5-14.8
		H146l6.9,17.5h3.4l6.9-17.5H160L154.6,408.5z M181,397.4c0.7,1.3,1,2.7,1,4.3c0,0.6,0,1.1-0.1,1.8h-14c0.1,1.7,0.7,3.1,1.8,4
		c1.1,1,2.4,1.5,3.9,1.5c1.3,0,2.3-0.3,3.2-0.9c0.8-0.6,1.4-1.4,1.8-2.4h3.1c-0.5,1.7-1.4,3.1-2.8,4.1c-1.4,1.1-3.2,1.6-5.2,1.6
		c-1.7,0-3.2-0.4-4.5-1.1c-1.3-0.7-2.3-1.8-3.1-3.2c-0.7-1.4-1.1-3-1.1-4.8c0-1.8,0.4-3.4,1.1-4.8c0.7-1.4,1.7-2.4,3.1-3.2
		c1.3-0.7,2.8-1.1,4.5-1.1c1.7,0,3.1,0.4,4.4,1.1C179.3,395.1,180.3,396.1,181,397.4z M179,401.1c0-1.1-0.2-2.1-0.7-2.9
		c-0.5-0.8-1.2-1.4-2-1.8c-0.8-0.4-1.8-0.6-2.8-0.6c-1.5,0-2.7,0.5-3.8,1.4c-1,0.9-1.6,2.2-1.8,3.9H179z M188.8,396.5v-2.8h-2.9
		v17.5h2.9v-9.5c0-3.5,1.6-5.3,4.9-5.3h0.8v-3c-1.4,0-2.5,0.3-3.5,0.8S189.3,395.5,188.8,396.5z M211.6,387.5h2.9v23.7h-2.9v-3.3
		c-0.6,1-1.4,1.9-2.6,2.6c-1.1,0.7-2.5,1-4,1c-1.6,0-3-0.4-4.2-1.2c-1.3-0.8-2.3-1.8-3-3.2c-0.7-1.4-1.1-3-1.1-4.7
		c0-1.8,0.4-3.4,1.1-4.7c0.7-1.4,1.7-2.4,3-3.2c1.3-0.7,2.7-1.1,4.3-1.1c1.4,0,2.6,0.3,3.8,0.9c1.2,0.6,2.1,1.5,2.7,2.5V387.5z
		 M211.6,402.4c0-1.3-0.3-2.5-0.8-3.5c-0.5-1-1.3-1.7-2.2-2.3c-0.9-0.5-1.9-0.8-3-0.8s-2.1,0.3-3,0.8c-0.9,0.5-1.6,1.3-2.1,2.2
		c-0.5,1-0.8,2.1-0.8,3.5c0,1.3,0.3,2.5,0.8,3.5c0.5,1,1.2,1.7,2.1,2.3c0.9,0.5,1.9,0.8,3,0.8s2.1-0.3,3-0.8
		c0.9-0.5,1.6-1.3,2.2-2.3C211.3,404.8,211.6,403.7,211.6,402.4z M219.4,411.2h2.9v-17.5h-2.9V411.2z M220.9,386.8
		c-0.6,0-1,0.2-1.4,0.6c-0.4,0.4-0.6,0.9-0.6,1.4c0,0.6,0.2,1,0.6,1.4c0.4,0.4,0.9,0.6,1.4,0.6c0.5,0,1-0.2,1.4-0.6
		c0.4-0.4,0.6-0.9,0.6-1.4c0-0.6-0.2-1-0.6-1.4C221.9,387,221.5,386.8,220.9,386.8z M20.5,16.5l5.5,9.2h-4.4l-5.1-8.9h-2.8v8.9h-3.6
		V3.5h7.7c1.7,0,3.2,0.3,4.3,0.9c1.2,0.6,2.1,1.4,2.7,2.4c0.6,1,0.9,2.1,0.9,3.4c0,1.5-0.4,2.8-1.3,4C23.5,15.3,22.2,16.1,20.5,16.5
		z M17.8,13.9c1.4,0,2.4-0.3,3.1-1c0.7-0.7,1-1.6,1-2.8s-0.3-2.1-1-2.7c-0.7-0.7-1.7-1-3.1-1h-4v7.5H17.8z M45.4,12
		c0.7,1.3,1.1,2.8,1.1,4.5c0,0.7,0,1.3-0.1,1.8H32.9c0.1,1.4,0.6,2.5,1.6,3.4c0.9,0.9,2.1,1.3,3.5,1.3c2,0,3.3-0.8,4.2-2.5H46
		c-0.5,1.6-1.5,2.9-2.9,4c-1.4,1-3.1,1.6-5.2,1.6c-1.7,0-3.2-0.4-4.5-1.1c-1.3-0.8-2.4-1.8-3.1-3.2s-1.1-3-1.1-4.8
		c0-1.8,0.4-3.4,1.1-4.8c0.7-1.4,1.8-2.4,3.1-3.2c1.3-0.7,2.9-1.1,4.6-1.1c1.7,0,3.1,0.4,4.4,1.1C43.7,9.7,44.7,10.7,45.4,12z
		 M42.7,15.4c0-1.3-0.5-2.4-1.4-3.2c-0.9-0.8-2.1-1.2-3.5-1.2c-1.3,0-2.3,0.4-3.2,1.2c-0.9,0.8-1.4,1.9-1.6,3.2H42.7z M58.8,22.4
		c-0.6,0.4-1.4,0.6-2.4,0.6c-1,0-1.8-0.3-2.4-0.8c-0.7-0.5-1-1.1-1.1-1.9h-3.8c0,1.1,0.4,2,1,2.9c0.6,0.9,1.5,1.5,2.6,2
		s2.3,0.8,3.7,0.8c1.4,0,2.6-0.2,3.6-0.7c1-0.4,1.8-1.1,2.4-1.9c0.6-0.8,0.8-1.7,0.8-2.7c0-1.1-0.3-2-0.9-2.7
		c-0.6-0.7-1.3-1.2-2.1-1.6c-0.8-0.4-1.9-0.7-3.2-1c-1-0.3-1.7-0.5-2.2-0.7c-0.5-0.2-0.9-0.4-1.2-0.8c-0.3-0.3-0.5-0.7-0.5-1.2
		c0-0.6,0.3-1.1,0.8-1.4c0.5-0.4,1.2-0.5,2.2-0.5c1,0,1.8,0.2,2.3,0.7c0.6,0.5,0.9,1.1,1,1.9H63c-0.1-1.7-0.7-3.1-2-4.1
		c-1.2-1-2.8-1.5-4.8-1.5c-1.3,0-2.5,0.2-3.6,0.7c-1,0.4-1.8,1.1-2.4,1.8c-0.6,0.8-0.8,1.6-0.8,2.6c0,1.2,0.3,2.1,0.9,2.8
		c0.6,0.7,1.3,1.2,2.2,1.6c0.8,0.3,1.9,0.7,3.2,1.1c1.4,0.4,2.4,0.7,3,1.1c0.6,0.3,0.9,0.8,0.9,1.5C59.6,21.5,59.3,22,58.8,22.4z
		 M67.1,21.7c-0.8-1.4-1.1-3-1.1-4.8c0-1.8,0.4-3.4,1.1-4.8c0.7-1.4,1.8-2.4,3.1-3.2c1.3-0.7,2.9-1.1,4.6-1.1c1.7,0,3.1,0.4,4.4,1.1
		c1.3,0.7,2.3,1.7,3,3.1c0.7,1.3,1.1,2.8,1.1,4.5c0,0.7,0,1.3-0.1,1.8H69.7c0.1,1.4,0.6,2.5,1.6,3.4c0.9,0.9,2.1,1.3,3.5,1.3
		c2,0,3.3-0.8,4.2-2.5h3.9c-0.5,1.6-1.5,2.9-2.9,4c-1.4,1-3.1,1.6-5.2,1.6c-1.7,0-3.2-0.4-4.5-1.1C68.9,24.2,67.8,23.1,67.1,21.7z
		 M69.7,15.4h9.8c0-1.3-0.5-2.4-1.4-3.2c-0.9-0.8-2.1-1.2-3.5-1.2c-1.3,0-2.3,0.4-3.2,1.2C70.4,12.9,69.9,14,69.7,15.4z M86.8,21.6
		c-0.7-1.4-1.1-3-1.1-4.8c0-1.8,0.4-3.3,1.1-4.7c0.7-1.4,1.7-2.4,3-3.2c1.3-0.8,2.7-1.1,4.2-1.1c1.4,0,2.6,0.3,3.6,0.8
		c1,0.5,1.9,1.2,2.5,2V8.1h3.7v17.6h-3.7v-2.6c-0.6,0.8-1.5,1.5-2.5,2.1c-1.1,0.6-2.3,0.8-3.6,0.8c-1.5,0-2.9-0.4-4.2-1.2
		S87.5,23,86.8,21.6z M89.4,16.9c0,1.2,0.3,2.3,0.8,3.2c0.5,0.9,1.2,1.6,2,2.1c0.8,0.5,1.7,0.7,2.6,0.7c0.9,0,1.8-0.2,2.6-0.7
		c0.8-0.5,1.5-1.2,2-2.1s0.8-2,0.8-3.2s-0.3-2.3-0.8-3.2s-1.2-1.6-2-2c-0.8-0.5-1.7-0.7-2.6-0.7c-0.9,0-1.8,0.2-2.6,0.7
		c-0.8,0.5-1.5,1.1-2,2C89.7,14.6,89.4,15.6,89.4,16.9z M112.2,16.5c0-1.8,0.4-3.1,1.1-3.8c0.7-0.7,1.8-1.1,3.2-1.1h0.9V7.8
		c-1.2,0-2.3,0.3-3.2,0.8c-0.9,0.5-1.6,1.2-2.1,2.1V8.1h-3.6v17.6h3.6V16.5z M123.8,24.9c1.3,0.8,2.8,1.1,4.5,1.1
		c2.1,0,3.8-0.5,5.2-1.6c1.4-1.1,2.4-2.5,2.9-4.3h-3.9c-0.7,1.9-2.1,2.8-4.2,2.8c-1.5,0-2.7-0.5-3.6-1.6s-1.3-2.5-1.3-4.4
		c0-1.9,0.4-3.4,1.3-4.4c0.9-1.1,2.1-1.6,3.6-1.6c1.1,0,2,0.2,2.7,0.7s1.2,1.2,1.5,2h3.9c-0.5-1.9-1.4-3.3-2.8-4.3
		c-1.4-1-3.2-1.5-5.3-1.5c-1.7,0-3.2,0.4-4.5,1.1c-1.3,0.7-2.3,1.8-3.1,3.2c-0.7,1.4-1.1,3-1.1,4.8c0,1.8,0.4,3.4,1.1,4.8
		C121.5,23.1,122.5,24.2,123.8,24.9z M143.7,15.9c0-1.6,0.4-2.8,1.2-3.6s1.9-1.3,3.2-1.3c1.4,0,2.4,0.4,3.2,1.3
		c0.8,0.8,1.2,2.1,1.2,3.6v9.9h3.6V15.4c0-1.6-0.3-3-0.9-4.1c-0.6-1.1-1.4-2-2.5-2.6c-1.1-0.6-2.3-0.9-3.6-0.9
		c-1.1,0-2.2,0.2-3.1,0.6c-0.9,0.4-1.7,1-2.4,1.7V2.1h-3.6v23.7h3.6V15.9z M49.3,151.3v22.3h2.9v-17.8l11.7,17.8h2.9v-22.3h-2.9V169
		l-11.7-17.7H49.3z M79.3,155.8c1.7,0,3.1,0.4,4.4,1.1c1.3,0.7,2.3,1.7,3,3c0.7,1.3,1,2.7,1,4.3c0,0.6,0,1.1-0.1,1.8h-14
		c0.1,1.7,0.7,3.1,1.8,4c1.1,1,2.4,1.5,3.9,1.5c1.3,0,2.3-0.3,3.2-0.9c0.8-0.6,1.4-1.4,1.8-2.4h3.1c-0.5,1.7-1.4,3.1-2.8,4.1
		c-1.4,1.1-3.2,1.6-5.2,1.6c-1.7,0-3.2-0.4-4.5-1.1c-1.3-0.7-2.3-1.8-3.1-3.2c-0.7-1.4-1.1-3-1.1-4.8c0-1.8,0.4-3.4,1.1-4.8
		c0.7-1.4,1.7-2.4,3.1-3.2C76.1,156.2,77.6,155.8,79.3,155.8z M82,158.9c-0.8-0.4-1.8-0.6-2.8-0.6c-1.5,0-2.7,0.5-3.8,1.4
		c-1,0.9-1.6,2.2-1.8,3.9h11.1c0-1.1-0.2-2.1-0.7-2.9C83.5,159.9,82.8,159.3,82,158.9z M92.2,151.7v4.4H90v2.4h2.3v10.3
		c0,1.7,0.4,2.9,1.2,3.7c0.8,0.7,2,1.1,3.6,1.1h2.6v-2.5h-2.1c-0.9,0-1.5-0.2-1.9-0.5c-0.4-0.4-0.5-1-0.5-1.8v-10.3h4.6v-2.4h-4.6
		v-4.4H92.2z M101.6,158.5h2.3v10.3c0,1.7,0.4,2.9,1.2,3.7c0.8,0.7,2,1.1,3.6,1.1h2.6v-2.5h-2.1c-0.9,0-1.5-0.2-1.9-0.5
		c-0.4-0.4-0.5-1-0.5-1.8v-10.3h4.6v-2.4h-4.6v-4.4h-2.9v4.4h-2.3V158.5z M123.7,170.7c-0.6,0.5-1.5,0.7-2.6,0.7
		c-1.2,0-2.2-0.3-2.9-0.8c-0.7-0.6-1.1-1.3-1.2-2.1h-3c0.1,1.1,0.4,2,1,2.8s1.5,1.5,2.5,1.9c1.1,0.5,2.3,0.7,3.6,0.7
		c1.3,0,2.4-0.2,3.3-0.7c1-0.4,1.7-1,2.3-1.8c0.5-0.8,0.8-1.6,0.8-2.6c0-1.1-0.3-1.9-0.9-2.6c-0.6-0.7-1.2-1.2-2-1.5
		c-0.8-0.3-1.8-0.7-3.1-1c-1-0.3-1.8-0.5-2.4-0.8c-0.6-0.2-1-0.5-1.4-0.9c-0.4-0.4-0.6-0.8-0.6-1.4c0-0.7,0.3-1.3,0.9-1.8
		c0.6-0.4,1.5-0.7,2.5-0.7c1.1,0,2,0.3,2.7,0.8s1,1.3,1.1,2.2h2.9c-0.1-1.7-0.7-3.1-1.9-4c-1.2-1-2.8-1.5-4.7-1.5
		c-1.3,0-2.4,0.2-3.4,0.7c-1,0.4-1.7,1-2.3,1.8c-0.5,0.7-0.8,1.6-0.8,2.5c0,1.1,0.3,2,0.9,2.7c0.6,0.7,1.3,1.2,2.1,1.6
		c0.8,0.4,1.9,0.7,3.2,1c1.4,0.4,2.5,0.7,3.2,1.1c0.7,0.4,1,0.9,1,1.7C124.6,169.6,124.3,170.2,123.7,170.7z M133.1,153.2
		c0.5,0,1-0.2,1.4-0.6c0.4-0.4,0.6-0.9,0.6-1.4c0-0.6-0.2-1-0.6-1.4c-0.4-0.4-0.8-0.6-1.4-0.6c-0.6,0-1,0.2-1.4,0.6
		c-0.4,0.4-0.6,0.9-0.6,1.4c0,0.6,0.2,1,0.6,1.4C132.1,153,132.5,153.2,133.1,153.2z M134.5,156.1h-2.9v17.5h2.9V156.1z
		 M139.5,169.5c-0.7-1.4-1.1-3-1.1-4.7c0-1.8,0.4-3.4,1.1-4.7c0.7-1.4,1.7-2.4,3-3.2c1.3-0.7,2.7-1.1,4.3-1.1c1.4,0,2.6,0.3,3.8,0.9
		c1.2,0.6,2.1,1.5,2.7,2.5v-9.3h2.9v23.7h-2.9v-3.3c-0.6,1-1.4,1.9-2.6,2.6c-1.1,0.7-2.5,1-4,1c-1.6,0-3-0.4-4.2-1.2
		C141.2,172,140.2,170.9,139.5,169.5z M141.3,164.8c0,1.3,0.3,2.5,0.8,3.5c0.5,1,1.2,1.7,2.1,2.3c0.9,0.5,1.9,0.8,3,0.8
		s2.1-0.3,3-0.8c0.9-0.5,1.6-1.3,2.2-2.3c0.5-1,0.8-2.1,0.8-3.5s-0.3-2.5-0.8-3.5c-0.5-1-1.3-1.7-2.2-2.3c-0.9-0.5-1.9-0.8-3-0.8
		s-2.1,0.3-3,0.8c-0.9,0.5-1.6,1.3-2.1,2.2C141.6,162.3,141.3,163.5,141.3,164.8z M161.1,169.6c-0.7-1.4-1.1-3-1.1-4.8
		c0-1.8,0.4-3.4,1.1-4.8c0.7-1.4,1.7-2.4,3.1-3.2c1.3-0.7,2.8-1.1,4.5-1.1c1.7,0,3.1,0.4,4.4,1.1c1.3,0.7,2.3,1.7,3,3
		c0.7,1.3,1,2.7,1,4.3c0,0.6,0,1.1-0.1,1.8h-14c0.1,1.7,0.7,3.1,1.8,4c1.1,1,2.4,1.5,3.9,1.5c1.3,0,2.3-0.3,3.2-0.9
		c0.8-0.6,1.4-1.4,1.8-2.4h3.1c-0.5,1.7-1.4,3.1-2.8,4.1c-1.4,1.1-3.2,1.6-5.2,1.6c-1.7,0-3.2-0.4-4.5-1.1
		C162.9,172,161.9,171,161.1,169.6z M163,163.6h11.1c0-1.1-0.2-2.1-0.7-2.9c-0.5-0.8-1.2-1.4-2-1.8c-0.8-0.4-1.8-0.6-2.8-0.6
		c-1.5,0-2.7,0.5-3.8,1.4C163.8,160.6,163.2,161.9,163,163.6z M180.9,169.5c-0.7-1.4-1.1-3-1.1-4.7c0-1.8,0.4-3.4,1.1-4.7
		c0.7-1.4,1.7-2.4,3-3.2c1.3-0.7,2.7-1.1,4.2-1.1c1.5,0,2.9,0.3,4,1c1.1,0.7,2,1.5,2.5,2.5v-3.2h2.9v17.5h-2.9v-3.3
		c-0.6,1-1.4,1.9-2.6,2.5c-1.1,0.7-2.5,1-4,1c-1.6,0-3-0.4-4.2-1.2C182.6,172,181.7,170.9,180.9,169.5z M182.8,164.8
		c0,1.3,0.3,2.5,0.8,3.5c0.5,1,1.2,1.7,2.1,2.3c0.9,0.5,1.9,0.8,3,0.8s2.1-0.3,3-0.8c0.9-0.5,1.6-1.3,2.2-2.3c0.5-1,0.8-2.1,0.8-3.5
		s-0.3-2.5-0.8-3.5c-0.5-1-1.3-1.7-2.2-2.3c-0.9-0.5-1.9-0.8-3-0.8s-2.1,0.3-3,0.8c-0.9,0.5-1.6,1.3-2.1,2.2
		C183.1,162.3,182.8,163.5,182.8,164.8z M211.1,155.8c-1.2,0-2.3,0.2-3.3,0.7c-1,0.5-1.8,1.2-2.4,2.1v-2.5h-2.9v17.5h2.9v-9.7
		c0-1.8,0.5-3.2,1.4-4.2s2.1-1.4,3.7-1.4c1.5,0,2.7,0.5,3.6,1.4c0.9,0.9,1.3,2.3,1.3,4v9.9h2.9v-10.3c0-2.4-0.7-4.3-2-5.6
		C215,156.4,213.2,155.8,211.1,155.8z M236.8,156.1h2.9v17.5h-2.9v-3.3c-0.6,1-1.4,1.9-2.6,2.5c-1.1,0.7-2.5,1-4,1
		c-1.6,0-3-0.4-4.2-1.2c-1.3-0.8-2.3-1.8-3-3.2c-0.7-1.4-1.1-3-1.1-4.7c0-1.8,0.4-3.4,1.1-4.7c0.7-1.4,1.7-2.4,3-3.2
		c1.3-0.7,2.7-1.1,4.2-1.1c1.5,0,2.9,0.3,4,1c1.1,0.7,2,1.5,2.5,2.5V156.1z M236.8,164.8c0-1.3-0.3-2.5-0.8-3.5
		c-0.5-1-1.3-1.7-2.2-2.3c-0.9-0.5-1.9-0.8-3-0.8s-2.1,0.3-3,0.8c-0.9,0.5-1.6,1.3-2.1,2.2c-0.5,1-0.8,2.1-0.8,3.5
		c0,1.3,0.3,2.5,0.8,3.5c0.5,1,1.2,1.7,2.1,2.3c0.9,0.5,1.9,0.8,3,0.8s2.1-0.3,3-0.8c0.9-0.5,1.6-1.3,2.2-2.3
		C236.5,167.3,236.8,166.1,236.8,164.8z M244.7,173.6h2.9v-23.7h-2.9V173.6z M259.2,170.3l-5.5-14.2h-3.2l7.1,17.3l-3.5,8.4h3
		l10.6-25.8h-3L259.2,170.3z M280.3,164.8c-0.8-0.3-1.8-0.7-3.1-1c-1-0.3-1.8-0.5-2.4-0.8c-0.6-0.2-1-0.5-1.4-0.9
		c-0.4-0.4-0.6-0.8-0.6-1.4c0-0.7,0.3-1.3,0.9-1.8c0.6-0.4,1.5-0.7,2.5-0.7c1.1,0,2,0.3,2.7,0.8s1,1.3,1.1,2.2h2.9
		c-0.1-1.7-0.7-3.1-1.9-4c-1.2-1-2.8-1.5-4.7-1.5c-1.3,0-2.4,0.2-3.4,0.7c-1,0.4-1.7,1-2.3,1.8c-0.5,0.7-0.8,1.6-0.8,2.5
		c0,1.1,0.3,2,0.9,2.7c0.6,0.7,1.3,1.2,2.1,1.6c0.8,0.4,1.9,0.7,3.2,1c1.4,0.4,2.5,0.7,3.2,1.1c0.7,0.4,1,0.9,1,1.7
		c0,0.7-0.3,1.4-1,1.9c-0.6,0.5-1.5,0.7-2.6,0.7c-1.2,0-2.2-0.3-2.9-0.8c-0.7-0.6-1.1-1.3-1.2-2.1h-3c0.1,1.1,0.4,2,1,2.8
		s1.5,1.5,2.5,1.9c1.1,0.5,2.3,0.7,3.6,0.7c1.3,0,2.4-0.2,3.3-0.7c1-0.4,1.7-1,2.3-1.8c0.5-0.8,0.8-1.6,0.8-2.6
		c0-1.1-0.3-1.9-0.9-2.6C281.7,165.6,281,165.1,280.3,164.8z M302.2,159.9c0.7,1.3,1,2.7,1,4.3c0,0.6,0,1.1-0.1,1.8h-14
		c0.1,1.7,0.7,3.1,1.8,4c1.1,1,2.4,1.5,3.9,1.5c1.3,0,2.3-0.3,3.2-0.9c0.8-0.6,1.4-1.4,1.8-2.4h3.1c-0.5,1.7-1.4,3.1-2.8,4.1
		c-1.4,1.1-3.2,1.6-5.2,1.6c-1.7,0-3.2-0.4-4.5-1.1c-1.3-0.7-2.3-1.8-3.1-3.2c-0.7-1.4-1.1-3-1.1-4.8c0-1.8,0.4-3.4,1.1-4.8
		c0.7-1.4,1.7-2.4,3.1-3.2c1.3-0.7,2.8-1.1,4.5-1.1c1.7,0,3.1,0.4,4.4,1.1C300.5,157.6,301.5,158.6,302.2,159.9z M300.3,163.6
		c0-1.1-0.2-2.1-0.7-2.9c-0.5-0.8-1.2-1.4-2-1.8c-0.8-0.4-1.8-0.6-2.8-0.6c-1.5,0-2.7,0.5-3.8,1.4c-1,0.9-1.6,2.2-1.8,3.9H300.3z
		 M310,158.9v-2.8h-2.9v17.5h2.9v-9.5c0-3.5,1.6-5.3,4.9-5.3h0.8v-3c-1.4,0-2.5,0.3-3.5,0.8S310.5,157.9,310,158.9z"/>
</g>
<g id="piler">
	<path class="st1" d="M1476.5,344v2.5h-25.8V94.1c-3.6-0.6-6.4-3.5-6.7-7.1H1037c-0.3,3.6-3.1,6.6-6.7,7.1V165h22.2v2.5h-22.2V245
		h22.2v2.5h-22.2V325h23.2v2.5h-24v-0.2h-1.8V94.1c-3.6-0.6-6.4-3.5-6.7-7.1H524c-0.3,3.6-3.1,6.6-6.7,7.1V160h23.2v2.5h-23.2V242
		h23.2v2.5h-23.2V324h23.2v2.5h-23.2V423h23.2v2.5h-23.2V525h23.2v2.5h-25.8V94.1c-3.6-0.6-6.4-3.5-6.7-7.1H16
		c-0.3,3.6-3.1,6.6-6.7,7.1V161h23.2v2.5H9.2V264h23.2v2.5H9.2V384h23.2v2.5H6.8V94.1C2.9,93.5,0,90.2,0,86.2c0-4.4,3.6-8,8-8
		c3.8,0,7,2.7,7.8,6.2h492.4c0.8-3.6,4-6.2,7.8-6.2s7,2.7,7.8,6.2h497.4c0.8-3.6,4-6.2,7.8-6.2s7,2.7,7.8,6.2h407.4
		c0.8-3.6,4-6.2,7.8-6.2c4.4,0,8,3.6,8,8c0,4-2.9,7.3-6.8,7.9V161h22.2v2.5h-22.2V243h22.2v2.5h-22.2V344H1476.5z"/>
</g>
</svg>
